%TF.GenerationSoftware,KiCad,Pcbnew,8.0.0*%
%TF.CreationDate,2024-03-12T01:14:05-04:00*%
%TF.ProjectId,ORA_ControlBoard-main_Rev2,4f52415f-436f-46e7-9472-6f6c426f6172,rev?*%
%TF.SameCoordinates,Original*%
%TF.FileFunction,Copper,L2,Bot*%
%TF.FilePolarity,Positive*%
%FSLAX46Y46*%
G04 Gerber Fmt 4.6, Leading zero omitted, Abs format (unit mm)*
G04 Created by KiCad (PCBNEW 8.0.0) date 2024-03-12 01:14:05*
%MOMM*%
%LPD*%
G01*
G04 APERTURE LIST*
G04 Aperture macros list*
%AMRoundRect*
0 Rectangle with rounded corners*
0 $1 Rounding radius*
0 $2 $3 $4 $5 $6 $7 $8 $9 X,Y pos of 4 corners*
0 Add a 4 corners polygon primitive as box body*
4,1,4,$2,$3,$4,$5,$6,$7,$8,$9,$2,$3,0*
0 Add four circle primitives for the rounded corners*
1,1,$1+$1,$2,$3*
1,1,$1+$1,$4,$5*
1,1,$1+$1,$6,$7*
1,1,$1+$1,$8,$9*
0 Add four rect primitives between the rounded corners*
20,1,$1+$1,$2,$3,$4,$5,0*
20,1,$1+$1,$4,$5,$6,$7,0*
20,1,$1+$1,$6,$7,$8,$9,0*
20,1,$1+$1,$8,$9,$2,$3,0*%
G04 Aperture macros list end*
%TA.AperFunction,ComponentPad*%
%ADD10R,1.500000X1.050000*%
%TD*%
%TA.AperFunction,ComponentPad*%
%ADD11O,1.500000X1.050000*%
%TD*%
%TA.AperFunction,ComponentPad*%
%ADD12C,5.600000*%
%TD*%
%TA.AperFunction,ComponentPad*%
%ADD13C,1.500000*%
%TD*%
%TA.AperFunction,ComponentPad*%
%ADD14C,1.524000*%
%TD*%
%TA.AperFunction,ComponentPad*%
%ADD15R,1.700000X1.700000*%
%TD*%
%TA.AperFunction,ComponentPad*%
%ADD16O,1.700000X1.700000*%
%TD*%
%TA.AperFunction,ComponentPad*%
%ADD17R,3.500000X3.500000*%
%TD*%
%TA.AperFunction,ComponentPad*%
%ADD18RoundRect,0.750000X-1.000000X0.750000X-1.000000X-0.750000X1.000000X-0.750000X1.000000X0.750000X0*%
%TD*%
%TA.AperFunction,ComponentPad*%
%ADD19RoundRect,0.875000X-0.875000X0.875000X-0.875000X-0.875000X0.875000X-0.875000X0.875000X0.875000X0*%
%TD*%
%TA.AperFunction,ComponentPad*%
%ADD20R,2.200000X2.200000*%
%TD*%
%TA.AperFunction,ComponentPad*%
%ADD21O,2.200000X2.200000*%
%TD*%
%TA.AperFunction,ComponentPad*%
%ADD22R,2.600000X2.600000*%
%TD*%
%TA.AperFunction,ComponentPad*%
%ADD23C,2.600000*%
%TD*%
%TA.AperFunction,SMDPad,CuDef*%
%ADD24RoundRect,0.250000X-0.450000X0.350000X-0.450000X-0.350000X0.450000X-0.350000X0.450000X0.350000X0*%
%TD*%
%TA.AperFunction,ViaPad*%
%ADD25C,0.800000*%
%TD*%
%TA.AperFunction,Conductor*%
%ADD26C,0.500000*%
%TD*%
%TA.AperFunction,Conductor*%
%ADD27C,0.250000*%
%TD*%
%TA.AperFunction,Conductor*%
%ADD28C,0.800000*%
%TD*%
G04 APERTURE END LIST*
D10*
%TO.P,Q3,1,D*%
%TO.N,Net-(Q3-D)*%
X131000000Y-96730000D03*
D11*
%TO.P,Q3,2,G*%
%TO.N,Net-(Q3-G)*%
X131000000Y-98000000D03*
%TO.P,Q3,3,S*%
%TO.N,GND*%
X131000000Y-99270000D03*
%TD*%
D12*
%TO.P,H1,1,1*%
%TO.N,GND*%
X185000000Y-97500000D03*
%TD*%
D13*
%TO.P,Y1,1,1*%
%TO.N,Net-(U2-OSC2)*%
X173120000Y-77600000D03*
%TO.P,Y1,2,2*%
%TO.N,Net-(U2-OSC1)*%
X178000000Y-77600000D03*
%TD*%
D12*
%TO.P,H3,1,1*%
%TO.N,GND*%
X95000000Y-54500000D03*
%TD*%
D10*
%TO.P,Q5,1,D*%
%TO.N,Net-(Q5-D)*%
X120000000Y-96730000D03*
D11*
%TO.P,Q5,2,G*%
%TO.N,Net-(Q5-G)*%
X120000000Y-98000000D03*
%TO.P,Q5,3,S*%
%TO.N,GND*%
X120000000Y-99270000D03*
%TD*%
D12*
%TO.P,H2,1,1*%
%TO.N,GND*%
X95000000Y-97500000D03*
%TD*%
D13*
%TO.P,Y2,1,1*%
%TO.N,XTAL1*%
X111000000Y-77100000D03*
%TO.P,Y2,2,2*%
%TO.N,XTAL2*%
X111000000Y-72220000D03*
%TD*%
D14*
%TO.P,U6,1,PS0*%
%TO.N,unconnected-(U6-PS0-Pad1)*%
X149710000Y-88740000D03*
%TO.P,U6,2,PS1*%
%TO.N,unconnected-(U6-PS1-Pad2)*%
X149710000Y-86200000D03*
%TO.P,U6,3,INT*%
%TO.N,unconnected-(U6-INT-Pad3)*%
X149710000Y-83660000D03*
%TO.P,U6,4,ADR*%
%TO.N,unconnected-(U6-ADR-Pad4)*%
X149710000Y-81120000D03*
%TO.P,U6,5,RST*%
%TO.N,unconnected-(U6-RST-Pad5)*%
X167490000Y-78580000D03*
%TO.P,U6,6,SCL*%
%TO.N,IMU_SCL*%
X167490000Y-81120000D03*
%TO.P,U6,7,SDA*%
%TO.N,IMU_SDA*%
X167490000Y-83660000D03*
%TO.P,U6,8,GND*%
%TO.N,GND*%
X167490000Y-86200000D03*
%TO.P,U6,9,3Vo*%
%TO.N,unconnected-(U6-3Vo-Pad9)*%
X167490000Y-88740000D03*
%TO.P,U6,10,Vin*%
%TO.N,+5V*%
X167490000Y-91280000D03*
%TD*%
D15*
%TO.P,J2,1,Pin_1*%
%TO.N,+5V*%
X92500000Y-83700000D03*
D16*
%TO.P,J2,2,Pin_2*%
X92500000Y-86240000D03*
%TO.P,J2,3,Pin_3*%
%TO.N,GND*%
X92500000Y-88780000D03*
%TO.P,J2,4,Pin_4*%
X92500000Y-91320000D03*
%TD*%
D17*
%TO.P,J4,1*%
%TO.N,Net-(D4-A)*%
X166500000Y-64500000D03*
D18*
%TO.P,J4,2*%
%TO.N,GND*%
X166500000Y-58500000D03*
D19*
%TO.P,J4,3,MountPin*%
%TO.N,unconnected-(J4-MountPin-Pad3)*%
X161800000Y-61500000D03*
%TD*%
D10*
%TO.P,Q1,1,D*%
%TO.N,Net-(Q1-D)*%
X141952500Y-96710000D03*
D11*
%TO.P,Q1,2,G*%
%TO.N,Net-(Q1-G)*%
X141952500Y-97980000D03*
%TO.P,Q1,3,S*%
%TO.N,GND*%
X141952500Y-99250000D03*
%TD*%
D12*
%TO.P,H4,1,1*%
%TO.N,GND*%
X185000000Y-54500000D03*
%TD*%
D15*
%TO.P,J8,1,Pin_1*%
%TO.N,A4*%
X144000000Y-70380000D03*
D16*
%TO.P,J8,2,Pin_2*%
%TO.N,A3*%
X144000000Y-72920000D03*
%TO.P,J8,3,Pin_3*%
%TO.N,A2*%
X144000000Y-75460000D03*
%TO.P,J8,4,Pin_4*%
%TO.N,A1*%
X144000000Y-78000000D03*
%TO.P,J8,5,Pin_5*%
%TO.N,A0*%
X144000000Y-80540000D03*
%TD*%
D20*
%TO.P,D3,1,K*%
%TO.N,+5V*%
X146920000Y-65000000D03*
D21*
%TO.P,D3,2,A*%
%TO.N,Net-(D3-A)*%
X157080000Y-65000000D03*
%TD*%
D22*
%TO.P,J9,1,Pin_1*%
%TO.N,PWRIN*%
X95500000Y-62500000D03*
D23*
%TO.P,J9,2,Pin_2*%
%TO.N,LED_R*%
X95500000Y-67500000D03*
%TO.P,J9,3,Pin_3*%
%TO.N,LED_G*%
X95500000Y-72500000D03*
%TO.P,J9,4,Pin_4*%
%TO.N,LED_B*%
X95500000Y-77500000D03*
%TD*%
D15*
%TO.P,J7,1,Pin_1*%
%TO.N,D0*%
X102460000Y-100000000D03*
D16*
%TO.P,J7,2,Pin_2*%
%TO.N,D1*%
X105000000Y-100000000D03*
%TO.P,J7,3,Pin_3*%
%TO.N,D10*%
X107540000Y-100000000D03*
%TO.P,J7,4,Pin_4*%
%TO.N,D5*%
X110080000Y-100000000D03*
%TO.P,J7,5,Pin_5*%
%TO.N,D13*%
X112620000Y-100000000D03*
%TD*%
D24*
%TO.P,TR1,1*%
%TO.N,CAN_L*%
X161800000Y-87800000D03*
%TO.P,TR1,2*%
%TO.N,CAN_H*%
X161800000Y-89800000D03*
%TD*%
D15*
%TO.P,J6,1,Pin_1*%
%TO.N,CAN_SO*%
X153700000Y-53660000D03*
D16*
%TO.P,J6,2,Pin_2*%
%TO.N,+5V*%
X151160000Y-53660000D03*
%TO.P,J6,3,Pin_3*%
%TO.N,CAN_SCK*%
X153700000Y-56200000D03*
%TO.P,J6,4,Pin_4*%
%TO.N,CAN_SI*%
X151160000Y-56200000D03*
%TO.P,J6,5,Pin_5*%
%TO.N,RST*%
X153700000Y-58740000D03*
%TO.P,J6,6,Pin_6*%
%TO.N,GND*%
X151160000Y-58740000D03*
%TD*%
D25*
%TO.N,RST*%
X137500000Y-67200000D03*
X120300000Y-67100000D03*
%TO.N,IMU_SCL*%
X123800000Y-75449997D03*
%TO.N,IMU_SDA*%
X123000000Y-76449500D03*
%TO.N,Net-(D3-A)*%
X142200000Y-65600000D03*
X140500000Y-63900000D03*
%TO.N,LED_R*%
X111500000Y-85200000D03*
%TO.N,CAN_L*%
X165100000Y-87500000D03*
X182700000Y-67100000D03*
X182700000Y-75900000D03*
%TO.N,CAN_H*%
X165100000Y-89800000D03*
%TO.N,Net-(U2-OSC2)*%
X175240632Y-87532167D03*
X174600000Y-83600000D03*
%TO.N,Net-(U2-OSC1)*%
X176600000Y-83600000D03*
X176200000Y-87250000D03*
%TO.N,CAN_SCK*%
X150100000Y-69200000D03*
X121500000Y-71500000D03*
X150100000Y-64500000D03*
X152900000Y-77200000D03*
%TO.N,CAN_SI*%
X155700000Y-56100000D03*
X119150002Y-70650000D03*
X181500000Y-93400000D03*
X146900000Y-52700000D03*
%TO.N,CAN_SO*%
X177800000Y-93900000D03*
X157700000Y-51200000D03*
X118587388Y-68298797D03*
%TO.N,CAN_CS*%
X177000000Y-92500000D03*
X123000000Y-71400000D03*
%TO.N,+5V*%
X115400000Y-71300000D03*
X187100000Y-91900000D03*
X127450000Y-60450000D03*
X123500000Y-77500000D03*
X160700000Y-92200000D03*
X170500000Y-85500000D03*
X156100000Y-53400000D03*
X137650000Y-87350000D03*
X131200000Y-80500000D03*
X123000000Y-87600000D03*
X115400000Y-66600000D03*
X121000000Y-82700000D03*
%TO.N,GND*%
X183300000Y-63100000D03*
X185400000Y-75600000D03*
X174000000Y-70200000D03*
X132500000Y-85200000D03*
X178249423Y-86800000D03*
X137050000Y-64000000D03*
X170600000Y-89700000D03*
X108700000Y-71900000D03*
X183000000Y-87000000D03*
X129887500Y-59200000D03*
X94300000Y-88780000D03*
X187900000Y-87000000D03*
X108900000Y-78000000D03*
X119000000Y-81500000D03*
X134800000Y-70500000D03*
X125500000Y-63400000D03*
X165200000Y-86100000D03*
X119200000Y-73200000D03*
X139700000Y-72800000D03*
X149600000Y-60300000D03*
X94300000Y-91300000D03*
X128900000Y-84500000D03*
X181500000Y-84700000D03*
X177070000Y-70230000D03*
X124000000Y-65500000D03*
X133500000Y-79900000D03*
X185500000Y-87000000D03*
X140300000Y-79900000D03*
%TO.N,PWRIN*%
X140600000Y-67000000D03*
X165400000Y-68900000D03*
X121000000Y-54500000D03*
X139500000Y-60500000D03*
X107500000Y-62500000D03*
X138100000Y-64500000D03*
X132500000Y-82750500D03*
X134599284Y-80975000D03*
X128000000Y-56800000D03*
X180200000Y-84400000D03*
%TO.N,LED_G*%
X109400000Y-87300000D03*
%TO.N,LEDPWR_R*%
X115500000Y-84700000D03*
X121100000Y-78800000D03*
%TO.N,LED_B*%
X107900000Y-89900000D03*
%TO.N,LEDPWR_G*%
X127750000Y-90050000D03*
X133400000Y-94800000D03*
%TO.N,D10*%
X125100000Y-79200000D03*
%TO.N,D5*%
X125900000Y-81750500D03*
%TO.N,D13*%
X126700000Y-79300000D03*
%TO.N,LEDPWR_B*%
X128100000Y-88800000D03*
X124000000Y-93500000D03*
%TD*%
D26*
%TO.N,RST*%
X137500000Y-67200000D02*
X137400000Y-67100000D01*
X137400000Y-67100000D02*
X120300000Y-67100000D01*
%TO.N,IMU_SCL*%
X136897918Y-77700000D02*
X141397918Y-82200000D01*
X141397918Y-82200000D02*
X145710050Y-82200000D01*
X145710050Y-82200000D02*
X149710050Y-78200000D01*
X126449997Y-75449997D02*
X128700000Y-77700000D01*
X128700000Y-77700000D02*
X136897918Y-77700000D01*
X123800000Y-75449997D02*
X126449997Y-75449997D01*
X149710050Y-78200000D02*
X164570000Y-78200000D01*
X164570000Y-78200000D02*
X167490000Y-81120000D01*
%TO.N,IMU_SDA*%
X149400000Y-79500000D02*
X163330000Y-79500000D01*
X146000000Y-82900000D02*
X149400000Y-79500000D01*
X136500000Y-78400000D02*
X141000000Y-82900000D01*
X123000000Y-76449500D02*
X126349500Y-76449500D01*
X126349500Y-76449500D02*
X128300000Y-78400000D01*
X163330000Y-79500000D02*
X167490000Y-83660000D01*
X141000000Y-82900000D02*
X146000000Y-82900000D01*
X128300000Y-78400000D02*
X136500000Y-78400000D01*
%TO.N,Net-(D3-A)*%
X140500000Y-63900000D02*
X142200000Y-65600000D01*
%TO.N,LED_R*%
X95500000Y-69202082D02*
X95500000Y-67500000D01*
X111497918Y-85200000D02*
X95500000Y-69202082D01*
X111500000Y-85200000D02*
X111497918Y-85200000D01*
%TO.N,CAN_L*%
X165072000Y-87528000D02*
X165100000Y-87500000D01*
X162072000Y-87528000D02*
X165072000Y-87528000D01*
X161800000Y-87800000D02*
X162072000Y-87528000D01*
X182700000Y-67100000D02*
X182700000Y-75900000D01*
%TO.N,CAN_H*%
X161800000Y-89800000D02*
X165100000Y-89800000D01*
%TO.N,Net-(U2-OSC2)*%
X175250000Y-84250000D02*
X174600000Y-83600000D01*
X175240632Y-87532167D02*
X175250000Y-87522799D01*
X175250000Y-87522799D02*
X175250000Y-84250000D01*
%TO.N,Net-(U2-OSC1)*%
X176600000Y-85100000D02*
X176600000Y-83600000D01*
X176200000Y-85500000D02*
X176600000Y-85100000D01*
X176200000Y-87250000D02*
X176200000Y-85500000D01*
%TO.N,CAN_SCK*%
X122300000Y-72300000D02*
X137250000Y-72300000D01*
X150100000Y-71600000D02*
X152900000Y-74400000D01*
D27*
X152400000Y-57500000D02*
X153700000Y-56200000D01*
D26*
X121500000Y-71500000D02*
X122300000Y-72300000D01*
D27*
X150183170Y-57500000D02*
X152400000Y-57500000D01*
D26*
X148000000Y-62400000D02*
X145283170Y-62400000D01*
X152900000Y-74400000D02*
X152900000Y-77200000D01*
X145283170Y-62400000D02*
X145241585Y-62441585D01*
X143800000Y-65750000D02*
X143800000Y-63883170D01*
X143800000Y-63883170D02*
X145241585Y-62441585D01*
X137250000Y-72300000D02*
X143800000Y-65750000D01*
X150100000Y-64500000D02*
X148000000Y-62400000D01*
X145241585Y-62441585D02*
X150183170Y-57500000D01*
X150100000Y-69200000D02*
X150100000Y-71600000D01*
%TO.N,CAN_SI*%
X146850000Y-52750000D02*
X146900000Y-52700000D01*
X181900000Y-69800000D02*
X168240000Y-56140000D01*
X181500000Y-86800000D02*
X182600000Y-85700000D01*
X130847918Y-52750000D02*
X146850000Y-52750000D01*
X155700000Y-56100000D02*
X155700000Y-56140000D01*
X117500000Y-68999998D02*
X117500000Y-66097918D01*
X182600000Y-85700000D02*
X182600000Y-77002082D01*
X181500000Y-93400000D02*
X181500000Y-86800000D01*
X117500000Y-66097918D02*
X130847918Y-52750000D01*
X182600000Y-77002082D02*
X181850000Y-76252082D01*
X119150002Y-70650000D02*
X117500000Y-68999998D01*
X181900000Y-75497918D02*
X181900000Y-69800000D01*
X181850000Y-76252082D02*
X181850000Y-75547918D01*
X181850000Y-75547918D02*
X181900000Y-75497918D01*
X168240000Y-56140000D02*
X155700000Y-56100000D01*
%TO.N,CAN_SO*%
X149600000Y-55160000D02*
X149600000Y-55100000D01*
X169100000Y-51200000D02*
X183850000Y-65950000D01*
X118587388Y-68298797D02*
X118200000Y-67911409D01*
X183850000Y-65950000D02*
X183850000Y-92252082D01*
X157700000Y-51200000D02*
X169100000Y-51200000D01*
X183850000Y-92252082D02*
X181202082Y-94900000D01*
X149600000Y-55100000D02*
X148700000Y-56000000D01*
X142710000Y-62050000D02*
X149600000Y-55160000D01*
X122950000Y-62050000D02*
X142710000Y-62050000D01*
D27*
X153700000Y-53660000D02*
X152335000Y-55025000D01*
D26*
X181202082Y-94900000D02*
X178800000Y-94900000D01*
X118200000Y-66800000D02*
X122950000Y-62050000D01*
D27*
X149675000Y-55025000D02*
X148700000Y-56000000D01*
D26*
X178800000Y-94900000D02*
X177800000Y-93900000D01*
D27*
X152335000Y-55025000D02*
X149675000Y-55025000D01*
D26*
X118200000Y-67911409D02*
X118200000Y-66800000D01*
%TO.N,CAN_CS*%
X121297918Y-70500000D02*
X120650000Y-71147918D01*
X173350000Y-82725973D02*
X173350000Y-88850000D01*
X123000000Y-71400000D02*
X122100000Y-70500000D01*
X158224027Y-67600000D02*
X173350000Y-82725973D01*
X173350000Y-88850000D02*
X177000000Y-92500000D01*
X143200000Y-67600000D02*
X158224027Y-67600000D01*
X120650000Y-71147918D02*
X120650000Y-72147918D01*
X133780000Y-74220000D02*
X135000000Y-73000000D01*
X122100000Y-70500000D02*
X121297918Y-70500000D01*
X120650000Y-72147918D02*
X122722082Y-74220000D01*
X122722082Y-74220000D02*
X133780000Y-74220000D01*
X135000000Y-73000000D02*
X137800000Y-73000000D01*
X137800000Y-73000000D02*
X143200000Y-67600000D01*
%TO.N,+5V*%
X156100000Y-53400000D02*
X156040000Y-53400000D01*
X137650000Y-87350000D02*
X137400000Y-87600000D01*
X128350000Y-61350000D02*
X140052082Y-61350000D01*
X127550000Y-78947918D02*
X127550000Y-78950000D01*
X127550000Y-78950000D02*
X129100000Y-80500000D01*
X169800000Y-89100000D02*
X169800000Y-86200000D01*
X152520000Y-52300000D02*
X151160000Y-53660000D01*
X154940000Y-52300000D02*
X152520000Y-52300000D01*
X167490000Y-91280000D02*
X167620000Y-91280000D01*
X185500000Y-91900000D02*
X187100000Y-91900000D01*
X129100000Y-80500000D02*
X131200000Y-80500000D01*
X147802082Y-53600000D02*
X151100000Y-53600000D01*
X169800000Y-86200000D02*
X170500000Y-85500000D01*
X127450000Y-60450000D02*
X128350000Y-61350000D01*
X181300000Y-96100000D02*
X185500000Y-91900000D01*
X161620000Y-91280000D02*
X167490000Y-91280000D01*
X123500000Y-80200000D02*
X121000000Y-82700000D01*
X167620000Y-91280000D02*
X169800000Y-89100000D01*
X140052082Y-61350000D02*
X147802082Y-53600000D01*
X137400000Y-87600000D02*
X123000000Y-87600000D01*
X123500000Y-77500000D02*
X124300000Y-78300000D01*
X126902082Y-78300000D02*
X127550000Y-78947918D01*
X156040000Y-53400000D02*
X154940000Y-52300000D01*
X115400000Y-66600000D02*
X115400000Y-71300000D01*
X160700000Y-92200000D02*
X161620000Y-91280000D01*
X123500000Y-77500000D02*
X123500000Y-80200000D01*
X131200000Y-80500000D02*
X131300000Y-80600000D01*
X172310000Y-96100000D02*
X181300000Y-96100000D01*
X167490000Y-91280000D02*
X172310000Y-96100000D01*
X151100000Y-53600000D02*
X151160000Y-53660000D01*
X124300000Y-78300000D02*
X126902082Y-78300000D01*
D27*
%TO.N,GND*%
X178249423Y-86800000D02*
X179400000Y-86800000D01*
D28*
X139700000Y-72800000D02*
X140300000Y-73400000D01*
X140300000Y-73400000D02*
X140300000Y-79900000D01*
D27*
X179400000Y-86800000D02*
X181500000Y-84700000D01*
D28*
X133500000Y-79900000D02*
X128900000Y-84500000D01*
%TO.N,PWRIN*%
X133050000Y-56800000D02*
X134700000Y-58450000D01*
X128000000Y-56800000D02*
X133050000Y-56800000D01*
D26*
X107600000Y-62400000D02*
X113100000Y-62400000D01*
D28*
X166900000Y-68900000D02*
X165400000Y-68900000D01*
X180200000Y-84400000D02*
X180200000Y-82200000D01*
D26*
X107500000Y-62500000D02*
X107600000Y-62400000D01*
D28*
X138100000Y-64500000D02*
X140600000Y-67000000D01*
X134275500Y-80975000D02*
X132500000Y-82750500D01*
D26*
X113100000Y-62400000D02*
X121000000Y-54500000D01*
X128000000Y-56800000D02*
X128100000Y-56800000D01*
D28*
X134700000Y-58450000D02*
X138100000Y-58450000D01*
X139500000Y-59850000D02*
X139500000Y-60400000D01*
X138100000Y-58450000D02*
X139500000Y-59850000D01*
X134599284Y-80975000D02*
X134275500Y-80975000D01*
X180200000Y-82200000D02*
X166900000Y-68900000D01*
D26*
%TO.N,LED_G*%
X109300000Y-87300000D02*
X95500000Y-73500000D01*
X95500000Y-73500000D02*
X95500000Y-72500000D01*
X109400000Y-87300000D02*
X109300000Y-87300000D01*
%TO.N,LEDPWR_R*%
X115500000Y-82800000D02*
X115500000Y-84700000D01*
X121100000Y-78800000D02*
X120500000Y-78200000D01*
X120500000Y-78200000D02*
X120100000Y-78200000D01*
X120100000Y-78200000D02*
X115500000Y-82800000D01*
%TO.N,LED_B*%
X107900000Y-89900000D02*
X95500000Y-77500000D01*
%TO.N,LEDPWR_G*%
X127750000Y-90050000D02*
X132500000Y-94800000D01*
X132500000Y-94800000D02*
X133400000Y-94800000D01*
%TO.N,D10*%
X107540000Y-100000000D02*
X107540000Y-97362082D01*
X107540000Y-97362082D02*
X125100000Y-79802082D01*
X125100000Y-79802082D02*
X125100000Y-79200000D01*
%TO.N,D5*%
X110080000Y-100000000D02*
X110080000Y-96220000D01*
X110080000Y-96220000D02*
X124549500Y-81750500D01*
X124549500Y-81750500D02*
X125900000Y-81750500D01*
%TO.N,D13*%
X112620000Y-94930000D02*
X112620000Y-100000000D01*
X126750000Y-79350000D02*
X126750000Y-82150000D01*
X126300000Y-82600000D02*
X124950000Y-82600000D01*
X126700000Y-79300000D02*
X126750000Y-79350000D01*
X124950000Y-82600000D02*
X112620000Y-94930000D01*
X126750000Y-82150000D02*
X126300000Y-82600000D01*
%TO.N,LEDPWR_B*%
X127797918Y-88800000D02*
X124000000Y-92597918D01*
X128100000Y-88800000D02*
X127797918Y-88800000D01*
X124000000Y-92597918D02*
X124000000Y-93500000D01*
%TD*%
%TA.AperFunction,Conductor*%
%TO.N,GND*%
G36*
X168766950Y-79204378D02*
G01*
X168769777Y-79207117D01*
X172563181Y-83000521D01*
X172596666Y-83061844D01*
X172599500Y-83088202D01*
X172599500Y-88923918D01*
X172599500Y-88923920D01*
X172599499Y-88923920D01*
X172628340Y-89068907D01*
X172628343Y-89068917D01*
X172684912Y-89205488D01*
X172684921Y-89205504D01*
X172699357Y-89227108D01*
X172699358Y-89227112D01*
X172699359Y-89227112D01*
X172767046Y-89328414D01*
X172767052Y-89328421D01*
X176087228Y-92648595D01*
X176117478Y-92697958D01*
X176172818Y-92868277D01*
X176172821Y-92868284D01*
X176267467Y-93032216D01*
X176394129Y-93172888D01*
X176547265Y-93284148D01*
X176547270Y-93284151D01*
X176720192Y-93361142D01*
X176720197Y-93361144D01*
X176873636Y-93393758D01*
X176935118Y-93426950D01*
X176968894Y-93488113D01*
X176965786Y-93553366D01*
X176917479Y-93702039D01*
X176914326Y-93711744D01*
X176894540Y-93900000D01*
X176914326Y-94088256D01*
X176914327Y-94088259D01*
X176972818Y-94268277D01*
X176972821Y-94268284D01*
X177067467Y-94432216D01*
X177194129Y-94572888D01*
X177347265Y-94684148D01*
X177347270Y-94684151D01*
X177520191Y-94761142D01*
X177520194Y-94761142D01*
X177520197Y-94761144D01*
X177554221Y-94768375D01*
X177585329Y-94774988D01*
X177646811Y-94808180D01*
X177647230Y-94808597D01*
X177976452Y-95137819D01*
X178009937Y-95199142D01*
X178004953Y-95268834D01*
X177963081Y-95324767D01*
X177897617Y-95349184D01*
X177888771Y-95349500D01*
X172672229Y-95349500D01*
X172605190Y-95329815D01*
X172584548Y-95313181D01*
X168781640Y-91510272D01*
X168748155Y-91448949D01*
X168745793Y-91411786D01*
X168757323Y-91280000D01*
X168756251Y-91267758D01*
X168770015Y-91199262D01*
X168792095Y-91169271D01*
X170382952Y-89578415D01*
X170425268Y-89515084D01*
X170465084Y-89455495D01*
X170498979Y-89373666D01*
X170501415Y-89367785D01*
X170516148Y-89332216D01*
X170521659Y-89318912D01*
X170545411Y-89199500D01*
X170550500Y-89173918D01*
X170550500Y-86562229D01*
X170570185Y-86495190D01*
X170586819Y-86474548D01*
X170652770Y-86408597D01*
X170714093Y-86375112D01*
X170714671Y-86374988D01*
X170744101Y-86368732D01*
X170779803Y-86361144D01*
X170779806Y-86361142D01*
X170779808Y-86361142D01*
X170838058Y-86335206D01*
X170952730Y-86284151D01*
X171105871Y-86172888D01*
X171232533Y-86032216D01*
X171327179Y-85868284D01*
X171385674Y-85688256D01*
X171405460Y-85500000D01*
X171385674Y-85311744D01*
X171327179Y-85131716D01*
X171232533Y-84967784D01*
X171105871Y-84827112D01*
X171105095Y-84826548D01*
X170952734Y-84715851D01*
X170952729Y-84715848D01*
X170779807Y-84638857D01*
X170779802Y-84638855D01*
X170634001Y-84607865D01*
X170594646Y-84599500D01*
X170405354Y-84599500D01*
X170372897Y-84606398D01*
X170220197Y-84638855D01*
X170220192Y-84638857D01*
X170047270Y-84715848D01*
X170047265Y-84715851D01*
X169894129Y-84827111D01*
X169767466Y-84967785D01*
X169672821Y-85131715D01*
X169672818Y-85131722D01*
X169617479Y-85302039D01*
X169587229Y-85351402D01*
X169217047Y-85721584D01*
X169180463Y-85776336D01*
X169180464Y-85776337D01*
X169134914Y-85844508D01*
X169078343Y-85981082D01*
X169078340Y-85981092D01*
X169049500Y-86126079D01*
X169049500Y-88737769D01*
X169029815Y-88804808D01*
X169013181Y-88825450D01*
X168965501Y-88873130D01*
X168904178Y-88906615D01*
X168834486Y-88901631D01*
X168778553Y-88859759D01*
X168754136Y-88794295D01*
X168754292Y-88774640D01*
X168754380Y-88773642D01*
X168757323Y-88740000D01*
X168738070Y-88519932D01*
X168680894Y-88306550D01*
X168587534Y-88106339D01*
X168460826Y-87925380D01*
X168304620Y-87769174D01*
X168304616Y-87769171D01*
X168304615Y-87769170D01*
X168123666Y-87642468D01*
X168123662Y-87642466D01*
X167994218Y-87582105D01*
X167941779Y-87535932D01*
X167922627Y-87468739D01*
X167942843Y-87401858D01*
X167994219Y-87357340D01*
X168123416Y-87297095D01*
X168123417Y-87297094D01*
X168188188Y-87251741D01*
X167517448Y-86581000D01*
X167540160Y-86581000D01*
X167637061Y-86555036D01*
X167723940Y-86504876D01*
X167794876Y-86433940D01*
X167845036Y-86347061D01*
X167871000Y-86250160D01*
X167871000Y-86227447D01*
X168541741Y-86898188D01*
X168587094Y-86833417D01*
X168587100Y-86833407D01*
X168680419Y-86633284D01*
X168680424Y-86633270D01*
X168737573Y-86419986D01*
X168737575Y-86419976D01*
X168756821Y-86200000D01*
X168756821Y-86199999D01*
X168737575Y-85980023D01*
X168737573Y-85980013D01*
X168680424Y-85766729D01*
X168680420Y-85766720D01*
X168587096Y-85566586D01*
X168541741Y-85501811D01*
X168541740Y-85501810D01*
X167871000Y-86172551D01*
X167871000Y-86149840D01*
X167845036Y-86052939D01*
X167794876Y-85966060D01*
X167723940Y-85895124D01*
X167637061Y-85844964D01*
X167540160Y-85819000D01*
X167517448Y-85819000D01*
X168188188Y-85148259D01*
X168188187Y-85148258D01*
X168123411Y-85102901D01*
X168123405Y-85102898D01*
X167994219Y-85042658D01*
X167941779Y-84996486D01*
X167922627Y-84929293D01*
X167942843Y-84862411D01*
X167994219Y-84817894D01*
X168034450Y-84799134D01*
X168123662Y-84757534D01*
X168304620Y-84630826D01*
X168460826Y-84474620D01*
X168587534Y-84293662D01*
X168680894Y-84093450D01*
X168738070Y-83880068D01*
X168757323Y-83660000D01*
X168754937Y-83632731D01*
X168747505Y-83547781D01*
X168738070Y-83439932D01*
X168680894Y-83226550D01*
X168587534Y-83026339D01*
X168460826Y-82845380D01*
X168304620Y-82689174D01*
X168304616Y-82689171D01*
X168304615Y-82689170D01*
X168123666Y-82562468D01*
X168123658Y-82562464D01*
X167994811Y-82502382D01*
X167942371Y-82456210D01*
X167923219Y-82389017D01*
X167943435Y-82322135D01*
X167994811Y-82277618D01*
X168001017Y-82274724D01*
X168123662Y-82217534D01*
X168304620Y-82090826D01*
X168460826Y-81934620D01*
X168587534Y-81753662D01*
X168680894Y-81553450D01*
X168738070Y-81340068D01*
X168757323Y-81120000D01*
X168756959Y-81115843D01*
X168747144Y-81003655D01*
X168738070Y-80899932D01*
X168680894Y-80686550D01*
X168587534Y-80486339D01*
X168465282Y-80311744D01*
X168460827Y-80305381D01*
X168390095Y-80234649D01*
X168304620Y-80149174D01*
X168304616Y-80149171D01*
X168304615Y-80149170D01*
X168123666Y-80022468D01*
X168123658Y-80022464D01*
X167994811Y-79962382D01*
X167942371Y-79916210D01*
X167923219Y-79849017D01*
X167943435Y-79782135D01*
X167994811Y-79737618D01*
X168000802Y-79734824D01*
X168123662Y-79677534D01*
X168304620Y-79550826D01*
X168460826Y-79394620D01*
X168580526Y-79223669D01*
X168635097Y-79180050D01*
X168704595Y-79172856D01*
X168766950Y-79204378D01*
G37*
%TD.AperFunction*%
%TA.AperFunction,Conductor*%
G36*
X155083009Y-56764849D02*
G01*
X155088734Y-56769256D01*
X155088871Y-56769069D01*
X155247265Y-56884148D01*
X155247270Y-56884151D01*
X155420192Y-56961142D01*
X155420197Y-56961144D01*
X155605354Y-57000500D01*
X155605355Y-57000500D01*
X155794644Y-57000500D01*
X155794646Y-57000500D01*
X155979803Y-56961144D01*
X156078843Y-56917048D01*
X156152726Y-56884153D01*
X156152726Y-56884152D01*
X156152730Y-56884151D01*
X156164086Y-56875899D01*
X156229888Y-56852419D01*
X156237361Y-56852217D01*
X164347027Y-56878085D01*
X164414001Y-56897983D01*
X164459587Y-56950933D01*
X164469310Y-57020122D01*
X164448558Y-57072699D01*
X164408430Y-57130620D01*
X164408428Y-57130625D01*
X164315377Y-57335480D01*
X164260400Y-57553667D01*
X164250000Y-57685803D01*
X164250000Y-58250000D01*
X165066988Y-58250000D01*
X165034075Y-58307007D01*
X165000000Y-58434174D01*
X165000000Y-58565826D01*
X165034075Y-58692993D01*
X165066988Y-58750000D01*
X164250001Y-58750000D01*
X164250001Y-59314197D01*
X164260400Y-59446332D01*
X164315377Y-59664519D01*
X164408428Y-59869374D01*
X164408431Y-59869380D01*
X164536559Y-60054323D01*
X164536569Y-60054335D01*
X164695664Y-60213430D01*
X164695676Y-60213440D01*
X164880619Y-60341568D01*
X164880625Y-60341571D01*
X165085480Y-60434622D01*
X165303667Y-60489599D01*
X165435810Y-60499999D01*
X166249999Y-60499999D01*
X166250000Y-60499998D01*
X166250000Y-59000000D01*
X166750000Y-59000000D01*
X166750000Y-60499999D01*
X167564182Y-60499999D01*
X167564197Y-60499998D01*
X167696332Y-60489599D01*
X167914519Y-60434622D01*
X168119374Y-60341571D01*
X168119380Y-60341568D01*
X168304323Y-60213440D01*
X168304335Y-60213430D01*
X168463430Y-60054335D01*
X168463440Y-60054323D01*
X168591568Y-59869380D01*
X168591571Y-59869374D01*
X168684622Y-59664519D01*
X168739599Y-59446332D01*
X168749999Y-59314196D01*
X168750000Y-59314184D01*
X168750000Y-58750000D01*
X167933012Y-58750000D01*
X167965925Y-58692993D01*
X168000000Y-58565826D01*
X168000000Y-58434174D01*
X167965925Y-58307007D01*
X167933012Y-58250000D01*
X168749999Y-58250000D01*
X168749999Y-58010728D01*
X168769684Y-57943689D01*
X168822488Y-57897934D01*
X168891646Y-57887990D01*
X168955202Y-57917015D01*
X168961666Y-57923034D01*
X174540698Y-63502065D01*
X181113181Y-70074548D01*
X181146666Y-70135871D01*
X181149500Y-70162229D01*
X181149500Y-75253260D01*
X181140062Y-75300711D01*
X181128341Y-75329008D01*
X181128340Y-75329011D01*
X181099500Y-75473997D01*
X181099500Y-75474000D01*
X181099500Y-76326000D01*
X181099500Y-76326002D01*
X181099499Y-76326002D01*
X181128340Y-76470989D01*
X181128343Y-76470999D01*
X181184913Y-76607572D01*
X181184918Y-76607581D01*
X181194325Y-76621659D01*
X181194327Y-76621661D01*
X181266715Y-76730000D01*
X181267051Y-76730502D01*
X181267052Y-76730503D01*
X181813181Y-77276630D01*
X181846666Y-77337953D01*
X181849500Y-77364311D01*
X181849500Y-85337770D01*
X181829815Y-85404809D01*
X181813181Y-85425451D01*
X180917047Y-86321584D01*
X180917045Y-86321586D01*
X180900025Y-86347061D01*
X180887983Y-86365084D01*
X180867773Y-86395331D01*
X180834914Y-86444507D01*
X180778343Y-86581082D01*
X180778340Y-86581092D01*
X180749500Y-86726079D01*
X180749500Y-92865677D01*
X180732887Y-92927677D01*
X180672821Y-93031714D01*
X180626951Y-93172888D01*
X180614326Y-93211744D01*
X180594540Y-93400000D01*
X180614326Y-93588256D01*
X180614327Y-93588259D01*
X180672818Y-93768277D01*
X180672821Y-93768284D01*
X180767467Y-93932216D01*
X180773445Y-93938855D01*
X180776752Y-93942528D01*
X180806982Y-94005519D01*
X180798357Y-94074855D01*
X180753615Y-94128520D01*
X180686963Y-94149478D01*
X180684602Y-94149500D01*
X179162229Y-94149500D01*
X179095190Y-94129815D01*
X179074548Y-94113181D01*
X178712770Y-93751402D01*
X178682521Y-93702041D01*
X178627179Y-93531716D01*
X178532533Y-93367784D01*
X178405871Y-93227112D01*
X178384719Y-93211744D01*
X178252734Y-93115851D01*
X178252729Y-93115848D01*
X178079807Y-93038857D01*
X178079802Y-93038855D01*
X177926363Y-93006241D01*
X177864881Y-92973049D01*
X177831105Y-92911885D01*
X177834212Y-92846636D01*
X177885674Y-92688256D01*
X177905460Y-92500000D01*
X177885674Y-92311744D01*
X177827179Y-92131716D01*
X177732533Y-91967784D01*
X177605871Y-91827112D01*
X177605870Y-91827111D01*
X177452734Y-91715851D01*
X177452729Y-91715848D01*
X177279807Y-91638857D01*
X177279802Y-91638855D01*
X177214669Y-91625011D01*
X177153187Y-91591818D01*
X177152769Y-91591402D01*
X174136819Y-88575451D01*
X174103334Y-88514128D01*
X174100500Y-88487770D01*
X174100500Y-87665472D01*
X174120185Y-87598433D01*
X174172989Y-87552678D01*
X174242147Y-87542734D01*
X174305703Y-87571759D01*
X174343477Y-87630537D01*
X174347819Y-87652503D01*
X174354958Y-87720423D01*
X174354959Y-87720426D01*
X174413450Y-87900444D01*
X174413453Y-87900451D01*
X174508099Y-88064383D01*
X174595223Y-88161144D01*
X174634761Y-88205055D01*
X174787897Y-88316315D01*
X174787902Y-88316318D01*
X174960824Y-88393309D01*
X174960829Y-88393311D01*
X175145986Y-88432667D01*
X175145987Y-88432667D01*
X175335276Y-88432667D01*
X175335278Y-88432667D01*
X175520435Y-88393311D01*
X175693362Y-88316318D01*
X175846503Y-88205055D01*
X175881412Y-88166284D01*
X175940895Y-88129636D01*
X175999339Y-88127966D01*
X176105354Y-88150500D01*
X176105355Y-88150500D01*
X176294644Y-88150500D01*
X176294646Y-88150500D01*
X176479803Y-88111144D01*
X176652730Y-88034151D01*
X176805871Y-87922888D01*
X176932533Y-87782216D01*
X177027179Y-87618284D01*
X177085674Y-87438256D01*
X177105460Y-87250000D01*
X177085674Y-87061744D01*
X177027179Y-86881716D01*
X176999438Y-86833666D01*
X176967113Y-86777677D01*
X176950500Y-86715677D01*
X176950500Y-85862229D01*
X176970185Y-85795190D01*
X176986819Y-85774548D01*
X177182948Y-85578419D01*
X177182951Y-85578416D01*
X177265084Y-85455495D01*
X177321658Y-85318913D01*
X177338904Y-85232214D01*
X177350500Y-85173920D01*
X177350500Y-84134321D01*
X177367113Y-84072321D01*
X177427179Y-83968284D01*
X177485674Y-83788256D01*
X177505460Y-83600000D01*
X177485674Y-83411744D01*
X177431112Y-83243823D01*
X177427181Y-83231722D01*
X177427179Y-83231717D01*
X177427179Y-83231716D01*
X177332533Y-83067784D01*
X177205871Y-82927112D01*
X177205870Y-82927111D01*
X177052734Y-82815851D01*
X177052729Y-82815848D01*
X176879807Y-82738857D01*
X176879802Y-82738855D01*
X176734001Y-82707865D01*
X176694646Y-82699500D01*
X176505354Y-82699500D01*
X176472897Y-82706398D01*
X176320197Y-82738855D01*
X176320192Y-82738857D01*
X176147270Y-82815848D01*
X176147265Y-82815851D01*
X175994129Y-82927111D01*
X175867466Y-83067785D01*
X175772821Y-83231715D01*
X175772821Y-83231716D01*
X175772819Y-83231722D01*
X175717930Y-83400650D01*
X175678492Y-83458325D01*
X175614133Y-83485523D01*
X175545287Y-83473608D01*
X175493811Y-83426364D01*
X175482071Y-83400656D01*
X175438021Y-83265084D01*
X175427181Y-83231721D01*
X175427178Y-83231715D01*
X175426067Y-83229790D01*
X175332533Y-83067784D01*
X175205871Y-82927112D01*
X175205870Y-82927111D01*
X175052734Y-82815851D01*
X175052729Y-82815848D01*
X174879807Y-82738857D01*
X174879802Y-82738855D01*
X174734001Y-82707865D01*
X174694646Y-82699500D01*
X174505354Y-82699500D01*
X174472897Y-82706398D01*
X174320197Y-82738855D01*
X174274912Y-82759018D01*
X174205662Y-82768302D01*
X174142386Y-82738674D01*
X174105173Y-82679538D01*
X174101073Y-82657881D01*
X174100500Y-82652067D01*
X174100500Y-82652055D01*
X174071658Y-82507060D01*
X174069720Y-82502382D01*
X174015087Y-82370484D01*
X174015080Y-82370471D01*
X173932952Y-82247558D01*
X173881605Y-82196211D01*
X173828416Y-82143022D01*
X170092271Y-78406877D01*
X160585395Y-68899999D01*
X164494540Y-68899999D01*
X164498821Y-68940731D01*
X164499500Y-68953692D01*
X164499500Y-68988695D01*
X164507637Y-69029602D01*
X164509341Y-69040831D01*
X164514325Y-69088253D01*
X164514325Y-69088254D01*
X164524904Y-69120811D01*
X164528590Y-69134938D01*
X164534104Y-69162662D01*
X164534105Y-69162664D01*
X164552644Y-69207423D01*
X164556012Y-69216554D01*
X164572819Y-69268279D01*
X164572822Y-69268286D01*
X164586569Y-69292097D01*
X164593742Y-69306643D01*
X164601984Y-69326542D01*
X164632634Y-69372413D01*
X164636912Y-69379294D01*
X164651597Y-69404728D01*
X164667468Y-69432218D01*
X164667469Y-69432219D01*
X164681357Y-69447643D01*
X164692307Y-69461721D01*
X164700534Y-69474033D01*
X164744274Y-69517773D01*
X164748744Y-69522483D01*
X164794129Y-69572888D01*
X164794131Y-69572890D01*
X164805467Y-69581126D01*
X164820263Y-69593763D01*
X164825961Y-69599461D01*
X164825965Y-69599464D01*
X164882994Y-69637570D01*
X164886967Y-69640339D01*
X164947270Y-69684151D01*
X164953902Y-69687104D01*
X164972361Y-69697283D01*
X164973453Y-69698013D01*
X165043042Y-69726836D01*
X165045987Y-69728102D01*
X165120197Y-69761144D01*
X165120696Y-69761250D01*
X165131370Y-69764562D01*
X165131503Y-69764125D01*
X165137330Y-69765892D01*
X165137334Y-69765894D01*
X165217816Y-69781902D01*
X165219282Y-69782204D01*
X165305354Y-69800500D01*
X165311309Y-69800500D01*
X166475638Y-69800500D01*
X166542677Y-69820185D01*
X166563319Y-69836819D01*
X169796685Y-73070185D01*
X172898639Y-76172138D01*
X172932124Y-76233461D01*
X172927140Y-76303153D01*
X172885268Y-76359086D01*
X172843052Y-76379594D01*
X172690675Y-76420423D01*
X172690668Y-76420426D01*
X172492361Y-76512898D01*
X172492357Y-76512900D01*
X172313121Y-76638402D01*
X172158402Y-76793121D01*
X172032900Y-76972357D01*
X172032898Y-76972361D01*
X171940426Y-77170668D01*
X171940422Y-77170677D01*
X171883793Y-77382020D01*
X171883793Y-77382024D01*
X171864723Y-77599997D01*
X171864723Y-77600002D01*
X171866215Y-77617051D01*
X171881787Y-77795052D01*
X171883793Y-77817975D01*
X171883793Y-77817979D01*
X171940422Y-78029322D01*
X171940424Y-78029326D01*
X171940425Y-78029330D01*
X171986661Y-78128484D01*
X172032897Y-78227638D01*
X172032898Y-78227639D01*
X172158402Y-78406877D01*
X172313123Y-78561598D01*
X172492361Y-78687102D01*
X172690670Y-78779575D01*
X172902023Y-78836207D01*
X173084926Y-78852208D01*
X173119998Y-78855277D01*
X173120000Y-78855277D01*
X173120002Y-78855277D01*
X173148254Y-78852805D01*
X173337977Y-78836207D01*
X173549330Y-78779575D01*
X173747639Y-78687102D01*
X173926877Y-78561598D01*
X174081598Y-78406877D01*
X174207102Y-78227639D01*
X174299575Y-78029330D01*
X174340406Y-77876945D01*
X174376770Y-77817288D01*
X174439616Y-77786758D01*
X174508992Y-77795052D01*
X174547861Y-77821360D01*
X179263181Y-82536680D01*
X179296666Y-82598003D01*
X179299500Y-82624361D01*
X179299500Y-84346306D01*
X179298821Y-84359266D01*
X179294540Y-84399999D01*
X179298821Y-84440731D01*
X179299500Y-84453692D01*
X179299500Y-84488695D01*
X179307637Y-84529602D01*
X179309341Y-84540831D01*
X179314325Y-84588253D01*
X179314325Y-84588254D01*
X179314326Y-84588256D01*
X179322115Y-84612230D01*
X179324904Y-84620811D01*
X179328590Y-84634938D01*
X179334104Y-84662662D01*
X179334105Y-84662664D01*
X179352644Y-84707423D01*
X179356012Y-84716554D01*
X179372819Y-84768279D01*
X179372822Y-84768286D01*
X179386569Y-84792097D01*
X179393742Y-84806643D01*
X179401984Y-84826542D01*
X179432634Y-84872413D01*
X179436912Y-84879294D01*
X179459506Y-84918427D01*
X179467468Y-84932218D01*
X179467469Y-84932219D01*
X179481357Y-84947643D01*
X179492307Y-84961721D01*
X179500534Y-84974033D01*
X179544274Y-85017773D01*
X179548744Y-85022483D01*
X179594129Y-85072888D01*
X179594131Y-85072890D01*
X179605467Y-85081126D01*
X179620263Y-85093763D01*
X179625961Y-85099461D01*
X179625965Y-85099464D01*
X179682994Y-85137570D01*
X179686966Y-85140338D01*
X179747270Y-85184151D01*
X179753902Y-85187104D01*
X179772361Y-85197283D01*
X179773453Y-85198013D01*
X179843042Y-85226836D01*
X179845987Y-85228102D01*
X179920197Y-85261144D01*
X179920668Y-85261244D01*
X179920696Y-85261250D01*
X179931370Y-85264562D01*
X179931503Y-85264125D01*
X179937330Y-85265892D01*
X179937334Y-85265894D01*
X180017816Y-85281902D01*
X180019282Y-85282204D01*
X180105354Y-85300500D01*
X180105355Y-85300500D01*
X180294645Y-85300500D01*
X180294646Y-85300500D01*
X180380746Y-85282198D01*
X180382180Y-85281902D01*
X180462666Y-85265894D01*
X180462669Y-85265892D01*
X180462672Y-85265892D01*
X180468496Y-85264126D01*
X180468631Y-85264573D01*
X180479315Y-85261247D01*
X180479803Y-85261144D01*
X180554057Y-85228082D01*
X180556955Y-85226837D01*
X180626547Y-85198013D01*
X180627633Y-85197287D01*
X180646095Y-85187104D01*
X180652730Y-85184151D01*
X180713054Y-85140322D01*
X180716952Y-85137605D01*
X180774035Y-85099464D01*
X180779739Y-85093758D01*
X180794531Y-85081126D01*
X180805871Y-85072888D01*
X180851274Y-85022461D01*
X180855687Y-85017810D01*
X180899464Y-84974035D01*
X180907687Y-84961727D01*
X180918642Y-84947643D01*
X180932531Y-84932218D01*
X180932530Y-84932218D01*
X180932533Y-84932216D01*
X180963091Y-84879284D01*
X180967368Y-84872408D01*
X180974048Y-84862411D01*
X180998013Y-84826547D01*
X181006259Y-84806637D01*
X181013433Y-84792091D01*
X181027177Y-84768287D01*
X181027178Y-84768286D01*
X181027179Y-84768284D01*
X181043995Y-84716528D01*
X181047355Y-84707423D01*
X181065894Y-84662666D01*
X181071411Y-84634927D01*
X181075094Y-84620813D01*
X181085674Y-84588256D01*
X181090656Y-84540837D01*
X181092361Y-84529604D01*
X181100500Y-84488695D01*
X181100500Y-84453692D01*
X181101179Y-84440731D01*
X181105460Y-84400000D01*
X181101179Y-84359266D01*
X181100500Y-84346306D01*
X181100500Y-82111308D01*
X181093942Y-82078343D01*
X181093942Y-82078340D01*
X181065895Y-81937337D01*
X181065894Y-81937335D01*
X181065894Y-81937334D01*
X181056995Y-81915849D01*
X181040282Y-81875500D01*
X180998016Y-81773459D01*
X180998009Y-81773446D01*
X180899465Y-81625966D01*
X180842855Y-81569356D01*
X180774035Y-81500536D01*
X178284454Y-79010955D01*
X178250969Y-78949632D01*
X178255953Y-78879940D01*
X178297825Y-78824007D01*
X178340040Y-78803499D01*
X178391511Y-78789708D01*
X178429320Y-78779578D01*
X178429321Y-78779577D01*
X178429330Y-78779575D01*
X178627639Y-78687102D01*
X178806877Y-78561598D01*
X178961598Y-78406877D01*
X179087102Y-78227639D01*
X179179575Y-78029330D01*
X179236207Y-77817977D01*
X179253785Y-77617051D01*
X179255277Y-77600002D01*
X179255277Y-77599997D01*
X179249094Y-77529330D01*
X179236207Y-77382023D01*
X179179575Y-77170670D01*
X179087102Y-76972362D01*
X179087100Y-76972359D01*
X179087099Y-76972357D01*
X178961599Y-76793124D01*
X178885074Y-76716599D01*
X178806877Y-76638402D01*
X178627639Y-76512898D01*
X178627640Y-76512898D01*
X178627638Y-76512897D01*
X178528484Y-76466661D01*
X178429330Y-76420425D01*
X178429326Y-76420424D01*
X178429322Y-76420422D01*
X178217977Y-76363793D01*
X178000002Y-76344723D01*
X177999998Y-76344723D01*
X177854682Y-76357436D01*
X177782023Y-76363793D01*
X177782020Y-76363793D01*
X177570677Y-76420422D01*
X177570668Y-76420426D01*
X177372361Y-76512898D01*
X177372357Y-76512900D01*
X177193121Y-76638402D01*
X177038402Y-76793121D01*
X176912900Y-76972357D01*
X176912898Y-76972361D01*
X176820426Y-77170668D01*
X176820423Y-77170675D01*
X176796500Y-77259958D01*
X176760135Y-77319618D01*
X176697288Y-77350147D01*
X176627912Y-77341852D01*
X176589044Y-77315545D01*
X172042602Y-72769103D01*
X167474036Y-68200536D01*
X167474035Y-68200535D01*
X167474030Y-68200531D01*
X167414961Y-68161064D01*
X167414960Y-68161063D01*
X167326544Y-68101985D01*
X167326542Y-68101984D01*
X167244607Y-68068046D01*
X167244606Y-68068046D01*
X167162666Y-68034105D01*
X167162658Y-68034103D01*
X166988696Y-67999500D01*
X166988692Y-67999500D01*
X166988691Y-67999500D01*
X165494646Y-67999500D01*
X165305354Y-67999500D01*
X165305350Y-67999500D01*
X165219334Y-68017783D01*
X165217745Y-68018110D01*
X165137336Y-68034105D01*
X165131514Y-68035871D01*
X165131382Y-68035437D01*
X165120720Y-68038744D01*
X165120200Y-68038854D01*
X165120199Y-68038854D01*
X165045969Y-68071904D01*
X165042986Y-68073185D01*
X164973457Y-68101984D01*
X164973450Y-68101988D01*
X164972346Y-68102726D01*
X164953911Y-68112892D01*
X164947272Y-68115848D01*
X164947264Y-68115853D01*
X164886976Y-68159653D01*
X164882986Y-68162434D01*
X164825968Y-68200533D01*
X164825958Y-68200542D01*
X164820253Y-68206246D01*
X164805472Y-68218870D01*
X164794129Y-68227111D01*
X164794126Y-68227114D01*
X164748742Y-68277517D01*
X164744277Y-68282222D01*
X164700539Y-68325961D01*
X164700532Y-68325969D01*
X164692310Y-68338275D01*
X164681362Y-68352350D01*
X164667472Y-68367776D01*
X164667467Y-68367784D01*
X164636914Y-68420703D01*
X164632630Y-68427591D01*
X164601988Y-68473450D01*
X164593741Y-68493360D01*
X164586569Y-68507902D01*
X164572824Y-68531710D01*
X164572821Y-68531715D01*
X164556010Y-68583451D01*
X164552643Y-68592578D01*
X164534106Y-68637333D01*
X164528589Y-68665066D01*
X164524905Y-68679183D01*
X164514325Y-68711747D01*
X164509340Y-68759171D01*
X164507638Y-68770396D01*
X164499500Y-68811310D01*
X164499500Y-68846306D01*
X164498821Y-68859266D01*
X164494540Y-68899999D01*
X160585395Y-68899999D01*
X158702448Y-67017052D01*
X158702441Y-67017046D01*
X158628744Y-66967804D01*
X158628743Y-66967804D01*
X158579528Y-66934919D01*
X158579515Y-66934912D01*
X158442944Y-66878343D01*
X158442934Y-66878340D01*
X158297947Y-66849500D01*
X158297945Y-66849500D01*
X157135047Y-66849500D01*
X157077169Y-66832505D01*
X157050445Y-66846851D01*
X157024953Y-66849500D01*
X144061230Y-66849500D01*
X143994191Y-66829815D01*
X143948436Y-66777011D01*
X143938492Y-66707853D01*
X143967517Y-66644297D01*
X143973549Y-66637819D01*
X144382947Y-66228421D01*
X144382952Y-66228416D01*
X144402633Y-66198959D01*
X144442785Y-66138869D01*
X144442787Y-66138864D01*
X144442793Y-66138856D01*
X144465084Y-66105495D01*
X144521658Y-65968913D01*
X144539542Y-65879005D01*
X144550500Y-65823920D01*
X144550500Y-64245400D01*
X144570185Y-64178361D01*
X144586819Y-64157719D01*
X144864622Y-63879916D01*
X145145252Y-63599285D01*
X145206573Y-63565802D01*
X145276264Y-63570786D01*
X145332198Y-63612657D01*
X145356615Y-63678122D01*
X145349113Y-63730300D01*
X145325909Y-63792514D01*
X145325908Y-63792516D01*
X145319501Y-63852116D01*
X145319500Y-63852135D01*
X145319500Y-66147870D01*
X145319501Y-66147876D01*
X145325908Y-66207483D01*
X145376202Y-66342328D01*
X145376206Y-66342335D01*
X145462452Y-66457544D01*
X145462455Y-66457547D01*
X145577664Y-66543793D01*
X145577671Y-66543797D01*
X145712517Y-66594091D01*
X145712516Y-66594091D01*
X145719444Y-66594835D01*
X145772127Y-66600500D01*
X148067872Y-66600499D01*
X148127483Y-66594091D01*
X148262331Y-66543796D01*
X148377546Y-66457546D01*
X148463796Y-66342331D01*
X148514091Y-66207483D01*
X148520500Y-66147873D01*
X148520499Y-64281227D01*
X148540184Y-64214189D01*
X148592987Y-64168434D01*
X148662146Y-64158490D01*
X148725702Y-64187515D01*
X148732180Y-64193547D01*
X149187228Y-64648595D01*
X149217478Y-64697958D01*
X149272818Y-64868277D01*
X149272820Y-64868282D01*
X149272821Y-64868284D01*
X149367467Y-65032216D01*
X149444512Y-65117783D01*
X149494129Y-65172888D01*
X149647265Y-65284148D01*
X149647270Y-65284151D01*
X149820192Y-65361142D01*
X149820197Y-65361144D01*
X150005354Y-65400500D01*
X150005355Y-65400500D01*
X150194644Y-65400500D01*
X150194646Y-65400500D01*
X150379803Y-65361144D01*
X150552730Y-65284151D01*
X150705871Y-65172888D01*
X150832533Y-65032216D01*
X150851133Y-65000000D01*
X155474551Y-65000000D01*
X155494317Y-65251151D01*
X155553126Y-65496110D01*
X155649533Y-65728859D01*
X155781160Y-65943653D01*
X155781161Y-65943656D01*
X155836604Y-66008571D01*
X155944776Y-66135224D01*
X156066115Y-66238857D01*
X156136343Y-66298838D01*
X156136346Y-66298839D01*
X156351140Y-66430466D01*
X156569010Y-66520710D01*
X156583889Y-66526873D01*
X156828852Y-66585683D01*
X157034683Y-66601882D01*
X157080286Y-66619263D01*
X157100112Y-66606523D01*
X157125314Y-66601882D01*
X157331148Y-66585683D01*
X157576111Y-66526873D01*
X157808859Y-66430466D01*
X158023659Y-66298836D01*
X158215224Y-66135224D01*
X158378836Y-65943659D01*
X158510466Y-65728859D01*
X158606873Y-65496111D01*
X158665683Y-65251148D01*
X158685449Y-65000000D01*
X158665683Y-64748852D01*
X158606873Y-64503889D01*
X158585714Y-64452807D01*
X158510466Y-64271140D01*
X158378839Y-64056346D01*
X158378838Y-64056343D01*
X158284349Y-63945711D01*
X158215224Y-63864776D01*
X158081422Y-63750498D01*
X158023656Y-63701161D01*
X158023653Y-63701160D01*
X157808859Y-63569533D01*
X157576110Y-63473126D01*
X157331151Y-63414317D01*
X157080000Y-63394551D01*
X156828848Y-63414317D01*
X156583889Y-63473126D01*
X156351140Y-63569533D01*
X156136346Y-63701160D01*
X156136343Y-63701161D01*
X155944776Y-63864776D01*
X155781161Y-64056343D01*
X155781160Y-64056346D01*
X155649533Y-64271140D01*
X155553126Y-64503889D01*
X155494317Y-64748848D01*
X155474551Y-65000000D01*
X150851133Y-65000000D01*
X150927179Y-64868284D01*
X150985674Y-64688256D01*
X151005460Y-64500000D01*
X150985674Y-64311744D01*
X150927179Y-64131716D01*
X150832533Y-63967784D01*
X150705871Y-63827112D01*
X150705870Y-63827111D01*
X150552734Y-63715851D01*
X150552729Y-63715848D01*
X150379807Y-63638857D01*
X150379802Y-63638855D01*
X150314669Y-63625011D01*
X150253187Y-63591818D01*
X150252769Y-63591402D01*
X149129981Y-62468613D01*
X159549500Y-62468613D01*
X159549501Y-62468652D01*
X159552295Y-62521243D01*
X159552295Y-62521244D01*
X159587279Y-62702128D01*
X159596755Y-62751126D01*
X159642744Y-62872989D01*
X159679425Y-62970189D01*
X159797929Y-63172131D01*
X159797934Y-63172138D01*
X159948856Y-63351141D01*
X159948858Y-63351143D01*
X160127861Y-63502065D01*
X160127868Y-63502070D01*
X160329810Y-63620574D01*
X160548874Y-63703245D01*
X160778759Y-63747705D01*
X160831378Y-63750500D01*
X160831386Y-63750500D01*
X162768614Y-63750500D01*
X162768622Y-63750500D01*
X162821241Y-63747705D01*
X163051126Y-63703245D01*
X163270190Y-63620574D01*
X163472132Y-63502070D01*
X163593785Y-63399501D01*
X163651141Y-63351143D01*
X163651143Y-63351141D01*
X163802065Y-63172138D01*
X163802065Y-63172137D01*
X163802070Y-63172132D01*
X163920574Y-62970190D01*
X164003245Y-62751126D01*
X164003756Y-62748485D01*
X164004281Y-62747467D01*
X164004683Y-62746050D01*
X164004971Y-62746131D01*
X164035812Y-62686403D01*
X164096343Y-62651507D01*
X164166131Y-62654876D01*
X164223019Y-62695440D01*
X164248946Y-62760322D01*
X164249500Y-62772030D01*
X164249500Y-66297870D01*
X164249501Y-66297876D01*
X164255908Y-66357483D01*
X164306202Y-66492328D01*
X164306206Y-66492335D01*
X164392452Y-66607544D01*
X164392455Y-66607547D01*
X164507664Y-66693793D01*
X164507671Y-66693797D01*
X164642517Y-66744091D01*
X164642516Y-66744091D01*
X164649444Y-66744835D01*
X164702127Y-66750500D01*
X168297872Y-66750499D01*
X168357483Y-66744091D01*
X168492331Y-66693796D01*
X168607546Y-66607546D01*
X168693796Y-66492331D01*
X168744091Y-66357483D01*
X168750500Y-66297873D01*
X168750499Y-62702128D01*
X168744091Y-62642517D01*
X168740524Y-62632954D01*
X168693797Y-62507671D01*
X168693793Y-62507664D01*
X168607547Y-62392455D01*
X168607544Y-62392452D01*
X168492335Y-62306206D01*
X168492328Y-62306202D01*
X168357482Y-62255908D01*
X168357483Y-62255908D01*
X168297883Y-62249501D01*
X168297881Y-62249500D01*
X168297873Y-62249500D01*
X168297864Y-62249500D01*
X164702129Y-62249500D01*
X164702123Y-62249501D01*
X164642516Y-62255908D01*
X164507671Y-62306202D01*
X164507664Y-62306206D01*
X164392455Y-62392452D01*
X164392452Y-62392455D01*
X164306206Y-62507664D01*
X164306203Y-62507669D01*
X164288573Y-62554939D01*
X164246701Y-62610872D01*
X164181237Y-62635289D01*
X164112964Y-62620437D01*
X164063559Y-62571032D01*
X164048566Y-62505025D01*
X164050499Y-62468650D01*
X164050500Y-62468613D01*
X164050500Y-60531386D01*
X164050498Y-60531347D01*
X164048833Y-60499998D01*
X164047705Y-60478759D01*
X164003245Y-60248874D01*
X163920574Y-60029810D01*
X163802070Y-59827868D01*
X163802065Y-59827861D01*
X163651143Y-59648858D01*
X163651141Y-59648856D01*
X163472138Y-59497934D01*
X163472131Y-59497929D01*
X163270189Y-59379425D01*
X163179832Y-59345326D01*
X163051126Y-59296755D01*
X163051105Y-59296751D01*
X162821243Y-59252295D01*
X162768652Y-59249501D01*
X162768629Y-59249500D01*
X162768622Y-59249500D01*
X160831378Y-59249500D01*
X160831370Y-59249500D01*
X160831347Y-59249501D01*
X160778756Y-59252295D01*
X160778755Y-59252295D01*
X160548878Y-59296754D01*
X160548876Y-59296754D01*
X160548874Y-59296755D01*
X160474933Y-59324659D01*
X160329810Y-59379425D01*
X160127868Y-59497929D01*
X160127861Y-59497934D01*
X159948858Y-59648856D01*
X159948856Y-59648858D01*
X159797934Y-59827861D01*
X159797929Y-59827868D01*
X159679425Y-60029810D01*
X159624659Y-60174933D01*
X159596755Y-60248874D01*
X159596754Y-60248876D01*
X159596754Y-60248878D01*
X159552295Y-60478755D01*
X159552295Y-60478756D01*
X159549501Y-60531347D01*
X159549500Y-60531386D01*
X159549500Y-62468613D01*
X149129981Y-62468613D01*
X148478421Y-61817052D01*
X148478414Y-61817046D01*
X148404729Y-61767812D01*
X148404729Y-61767813D01*
X148355491Y-61734913D01*
X148218917Y-61678343D01*
X148218907Y-61678340D01*
X148073920Y-61649500D01*
X148073918Y-61649500D01*
X147394400Y-61649500D01*
X147327361Y-61629815D01*
X147281606Y-61577011D01*
X147271662Y-61507853D01*
X147300687Y-61444297D01*
X147306719Y-61437819D01*
X147656719Y-61087819D01*
X149661687Y-59082850D01*
X149723005Y-59049368D01*
X149792696Y-59054352D01*
X149848630Y-59096224D01*
X149869138Y-59138440D01*
X149886567Y-59203485D01*
X149886570Y-59203492D01*
X149986399Y-59417578D01*
X150121894Y-59611082D01*
X150288917Y-59778105D01*
X150482421Y-59913600D01*
X150696507Y-60013429D01*
X150696516Y-60013433D01*
X150910000Y-60070634D01*
X150910000Y-59173012D01*
X150967007Y-59205925D01*
X151094174Y-59240000D01*
X151225826Y-59240000D01*
X151352993Y-59205925D01*
X151410000Y-59173012D01*
X151410000Y-60070633D01*
X151623483Y-60013433D01*
X151623492Y-60013429D01*
X151837578Y-59913600D01*
X152031082Y-59778105D01*
X152198105Y-59611082D01*
X152328119Y-59425405D01*
X152382696Y-59381781D01*
X152452195Y-59374588D01*
X152514549Y-59406110D01*
X152531269Y-59425405D01*
X152661505Y-59611401D01*
X152828599Y-59778495D01*
X152899101Y-59827861D01*
X153022165Y-59914032D01*
X153022167Y-59914033D01*
X153022170Y-59914035D01*
X153236337Y-60013903D01*
X153464592Y-60075063D01*
X153652918Y-60091539D01*
X153699999Y-60095659D01*
X153700000Y-60095659D01*
X153700001Y-60095659D01*
X153739234Y-60092226D01*
X153935408Y-60075063D01*
X154163663Y-60013903D01*
X154377830Y-59914035D01*
X154571401Y-59778495D01*
X154738495Y-59611401D01*
X154874035Y-59417830D01*
X154973903Y-59203663D01*
X155035063Y-58975408D01*
X155055659Y-58740000D01*
X155035063Y-58504592D01*
X154973903Y-58276337D01*
X154874035Y-58062171D01*
X154838015Y-58010728D01*
X154738494Y-57868597D01*
X154571402Y-57701506D01*
X154571396Y-57701501D01*
X154385842Y-57571575D01*
X154342217Y-57516998D01*
X154335023Y-57447500D01*
X154366546Y-57385145D01*
X154385842Y-57368425D01*
X154432892Y-57335480D01*
X154571401Y-57238495D01*
X154738495Y-57071401D01*
X154874035Y-56877830D01*
X154902762Y-56816222D01*
X154948934Y-56763785D01*
X155016128Y-56744633D01*
X155083009Y-56764849D01*
G37*
%TD.AperFunction*%
%TA.AperFunction,Conductor*%
G36*
X183018834Y-86445048D02*
G01*
X183074767Y-86486920D01*
X183099184Y-86552384D01*
X183099500Y-86561230D01*
X183099500Y-91889852D01*
X183079815Y-91956891D01*
X183063181Y-91977533D01*
X182462181Y-92578533D01*
X182400858Y-92612018D01*
X182331166Y-92607034D01*
X182275233Y-92565162D01*
X182250816Y-92499698D01*
X182250500Y-92490852D01*
X182250500Y-87162230D01*
X182270185Y-87095191D01*
X182286819Y-87074549D01*
X182887819Y-86473549D01*
X182949142Y-86440064D01*
X183018834Y-86445048D01*
G37*
%TD.AperFunction*%
%TA.AperFunction,Conductor*%
G36*
X142568834Y-69395047D02*
G01*
X142624767Y-69436919D01*
X142649184Y-69502383D01*
X142649500Y-69511229D01*
X142649500Y-71277870D01*
X142649501Y-71277876D01*
X142655908Y-71337483D01*
X142706202Y-71472328D01*
X142706206Y-71472335D01*
X142792452Y-71587544D01*
X142792455Y-71587547D01*
X142907664Y-71673793D01*
X142907671Y-71673797D01*
X143039081Y-71722810D01*
X143095015Y-71764681D01*
X143119432Y-71830145D01*
X143104580Y-71898418D01*
X143083430Y-71926673D01*
X142961503Y-72048600D01*
X142825965Y-72242169D01*
X142825964Y-72242171D01*
X142726098Y-72456335D01*
X142726094Y-72456344D01*
X142664938Y-72684586D01*
X142664936Y-72684596D01*
X142644341Y-72919999D01*
X142644341Y-72920000D01*
X142664936Y-73155403D01*
X142664938Y-73155413D01*
X142726094Y-73383655D01*
X142726096Y-73383659D01*
X142726097Y-73383663D01*
X142788321Y-73517102D01*
X142825965Y-73597830D01*
X142825967Y-73597834D01*
X142961501Y-73791395D01*
X142961506Y-73791402D01*
X143128597Y-73958493D01*
X143128603Y-73958498D01*
X143314158Y-74088425D01*
X143357783Y-74143002D01*
X143364977Y-74212500D01*
X143333454Y-74274855D01*
X143314158Y-74291575D01*
X143128597Y-74421505D01*
X142961505Y-74588597D01*
X142825965Y-74782169D01*
X142825964Y-74782171D01*
X142726098Y-74996335D01*
X142726094Y-74996344D01*
X142664938Y-75224586D01*
X142664936Y-75224596D01*
X142644341Y-75459999D01*
X142644341Y-75460000D01*
X142664936Y-75695403D01*
X142664938Y-75695413D01*
X142726094Y-75923655D01*
X142726096Y-75923659D01*
X142726097Y-75923663D01*
X142799568Y-76081222D01*
X142825965Y-76137830D01*
X142825967Y-76137834D01*
X142961501Y-76331395D01*
X142961506Y-76331402D01*
X143128597Y-76498493D01*
X143128603Y-76498498D01*
X143314158Y-76628425D01*
X143357783Y-76683002D01*
X143364977Y-76752500D01*
X143333454Y-76814855D01*
X143314158Y-76831575D01*
X143128597Y-76961505D01*
X142961505Y-77128597D01*
X142825965Y-77322169D01*
X142825964Y-77322171D01*
X142749024Y-77487170D01*
X142726762Y-77534912D01*
X142726098Y-77536335D01*
X142726094Y-77536344D01*
X142664938Y-77764586D01*
X142664936Y-77764596D01*
X142644341Y-77999999D01*
X142644341Y-78000000D01*
X142664936Y-78235403D01*
X142664938Y-78235413D01*
X142726094Y-78463655D01*
X142726096Y-78463659D01*
X142726097Y-78463663D01*
X142747426Y-78509402D01*
X142825965Y-78677830D01*
X142825967Y-78677834D01*
X142961501Y-78871395D01*
X142961506Y-78871402D01*
X143128597Y-79038493D01*
X143128603Y-79038498D01*
X143314158Y-79168425D01*
X143357783Y-79223002D01*
X143364977Y-79292500D01*
X143333454Y-79354855D01*
X143314158Y-79371575D01*
X143128597Y-79501505D01*
X142961505Y-79668597D01*
X142825965Y-79862169D01*
X142825964Y-79862171D01*
X142726098Y-80076335D01*
X142726094Y-80076344D01*
X142664938Y-80304586D01*
X142664936Y-80304596D01*
X142644341Y-80539999D01*
X142644341Y-80540000D01*
X142664936Y-80775403D01*
X142664938Y-80775413D01*
X142726094Y-81003655D01*
X142726096Y-81003659D01*
X142726097Y-81003663D01*
X142805008Y-81172888D01*
X142825965Y-81217830D01*
X142825967Y-81217834D01*
X142851555Y-81254377D01*
X142873882Y-81320583D01*
X142856872Y-81388350D01*
X142805924Y-81436163D01*
X142749980Y-81449500D01*
X141760148Y-81449500D01*
X141693109Y-81429815D01*
X141672467Y-81413181D01*
X137376339Y-77117052D01*
X137376332Y-77117046D01*
X137288501Y-77058360D01*
X137288500Y-77058360D01*
X137253419Y-77034919D01*
X137253406Y-77034912D01*
X137116835Y-76978343D01*
X137116825Y-76978340D01*
X136971838Y-76949500D01*
X136971836Y-76949500D01*
X129062230Y-76949500D01*
X128995191Y-76929815D01*
X128974549Y-76913181D01*
X127243549Y-75182181D01*
X127210064Y-75120858D01*
X127215048Y-75051166D01*
X127256920Y-74995233D01*
X127322384Y-74970816D01*
X127331230Y-74970500D01*
X133853920Y-74970500D01*
X133951462Y-74951096D01*
X133998913Y-74941658D01*
X134135495Y-74885084D01*
X134223532Y-74826260D01*
X134258416Y-74802952D01*
X135274548Y-73786818D01*
X135335871Y-73753334D01*
X135362229Y-73750500D01*
X137873920Y-73750500D01*
X137986603Y-73728085D01*
X138018913Y-73721658D01*
X138155495Y-73665084D01*
X138219719Y-73622171D01*
X138278416Y-73582952D01*
X142437819Y-69423547D01*
X142499142Y-69390063D01*
X142568834Y-69395047D01*
G37*
%TD.AperFunction*%
%TA.AperFunction,Conductor*%
G36*
X140239218Y-62820185D02*
G01*
X140284973Y-62872989D01*
X140294917Y-62942147D01*
X140265892Y-63005703D01*
X140222615Y-63037779D01*
X140047270Y-63115848D01*
X140047265Y-63115851D01*
X139894129Y-63227111D01*
X139767466Y-63367785D01*
X139672821Y-63531715D01*
X139672818Y-63531722D01*
X139615350Y-63708591D01*
X139614326Y-63711744D01*
X139594540Y-63900000D01*
X139614326Y-64088256D01*
X139614327Y-64088259D01*
X139672818Y-64268277D01*
X139672821Y-64268284D01*
X139767467Y-64432216D01*
X139832002Y-64503889D01*
X139894129Y-64572888D01*
X140047265Y-64684148D01*
X140047270Y-64684151D01*
X140220191Y-64761142D01*
X140220193Y-64761142D01*
X140220197Y-64761144D01*
X140285329Y-64774987D01*
X140346809Y-64808178D01*
X140347228Y-64808596D01*
X141287228Y-65748596D01*
X141317478Y-65797958D01*
X141372819Y-65968280D01*
X141372821Y-65968284D01*
X141467467Y-66132216D01*
X141563487Y-66238857D01*
X141594129Y-66272888D01*
X141747265Y-66384148D01*
X141747267Y-66384149D01*
X141747270Y-66384151D01*
X141820060Y-66416559D01*
X141829613Y-66420813D01*
X141882849Y-66466064D01*
X141903170Y-66532913D01*
X141884124Y-66600136D01*
X141866857Y-66621773D01*
X141677285Y-66811345D01*
X141615962Y-66844830D01*
X141546270Y-66839846D01*
X141490337Y-66797974D01*
X141467987Y-66747854D01*
X141465895Y-66737334D01*
X141465891Y-66737324D01*
X141447356Y-66692578D01*
X141443985Y-66683441D01*
X141427179Y-66631716D01*
X141427177Y-66631712D01*
X141413430Y-66607901D01*
X141406257Y-66593356D01*
X141398015Y-66573459D01*
X141398013Y-66573456D01*
X141398012Y-66573453D01*
X141367355Y-66527572D01*
X141363089Y-66520710D01*
X141332534Y-66467785D01*
X141318642Y-66452357D01*
X141307692Y-66438279D01*
X141299464Y-66425964D01*
X141255715Y-66382215D01*
X141251245Y-66377505D01*
X141205875Y-66327115D01*
X141205869Y-66327110D01*
X141194529Y-66318871D01*
X141179736Y-66306236D01*
X138755715Y-63882215D01*
X138751245Y-63877505D01*
X138705875Y-63827115D01*
X138705871Y-63827112D01*
X138694531Y-63818873D01*
X138679738Y-63806238D01*
X138674036Y-63800536D01*
X138674032Y-63800533D01*
X138674031Y-63800532D01*
X138617021Y-63762439D01*
X138613028Y-63759657D01*
X138566400Y-63725781D01*
X138552730Y-63715849D01*
X138546081Y-63712888D01*
X138527636Y-63702716D01*
X138527022Y-63702305D01*
X138526546Y-63701987D01*
X138490459Y-63687039D01*
X138456984Y-63673173D01*
X138454039Y-63671907D01*
X138379804Y-63638856D01*
X138379618Y-63638816D01*
X138379294Y-63638747D01*
X138368632Y-63635437D01*
X138368500Y-63635874D01*
X138362667Y-63634105D01*
X138282222Y-63618103D01*
X138280633Y-63617776D01*
X138194650Y-63599500D01*
X138194646Y-63599500D01*
X138005354Y-63599500D01*
X137919306Y-63617789D01*
X137917717Y-63618115D01*
X137837333Y-63634104D01*
X137831508Y-63635871D01*
X137831378Y-63635443D01*
X137820726Y-63638743D01*
X137820202Y-63638854D01*
X137820198Y-63638855D01*
X137745971Y-63671902D01*
X137742994Y-63673181D01*
X137673453Y-63701988D01*
X137673450Y-63701989D01*
X137672342Y-63702730D01*
X137653921Y-63712886D01*
X137647279Y-63715843D01*
X137647273Y-63715847D01*
X137586993Y-63759641D01*
X137583004Y-63762421D01*
X137525967Y-63800533D01*
X137525955Y-63800543D01*
X137520251Y-63806247D01*
X137505468Y-63818872D01*
X137494136Y-63827105D01*
X137494126Y-63827114D01*
X137448751Y-63877507D01*
X137444286Y-63882212D01*
X137400539Y-63925960D01*
X137400532Y-63925968D01*
X137392308Y-63938277D01*
X137381361Y-63952352D01*
X137367468Y-63967782D01*
X137367467Y-63967783D01*
X137336907Y-64020713D01*
X137332626Y-64027597D01*
X137301987Y-64073454D01*
X137293742Y-64093357D01*
X137286575Y-64107890D01*
X137272820Y-64131716D01*
X137272818Y-64131721D01*
X137256010Y-64183449D01*
X137252642Y-64192580D01*
X137234105Y-64237333D01*
X137234103Y-64237341D01*
X137228588Y-64265067D01*
X137224902Y-64279193D01*
X137214326Y-64311743D01*
X137214325Y-64311746D01*
X137209341Y-64359160D01*
X137207639Y-64370384D01*
X137199500Y-64411307D01*
X137199500Y-64446306D01*
X137198821Y-64459266D01*
X137194540Y-64499999D01*
X137198821Y-64540731D01*
X137199500Y-64553692D01*
X137199500Y-64588692D01*
X137207639Y-64629614D01*
X137209341Y-64640839D01*
X137214325Y-64688249D01*
X137214326Y-64688256D01*
X137223787Y-64717375D01*
X137224903Y-64720807D01*
X137228587Y-64734927D01*
X137233802Y-64761142D01*
X137234105Y-64762665D01*
X137234106Y-64762670D01*
X137252641Y-64807417D01*
X137256011Y-64816550D01*
X137272820Y-64868282D01*
X137286571Y-64892100D01*
X137293743Y-64906644D01*
X137301986Y-64926544D01*
X137301988Y-64926547D01*
X137332626Y-64972402D01*
X137336910Y-64979290D01*
X137367467Y-65032216D01*
X137381355Y-65047640D01*
X137392307Y-65061721D01*
X137400535Y-65074035D01*
X137444283Y-65117783D01*
X137448752Y-65122492D01*
X137494129Y-65172888D01*
X137505467Y-65181125D01*
X137520261Y-65193761D01*
X139944283Y-67617783D01*
X139948752Y-67622492D01*
X139994129Y-67672888D01*
X139999821Y-67677024D01*
X140005463Y-67681123D01*
X140020259Y-67693760D01*
X140025960Y-67699461D01*
X140025965Y-67699465D01*
X140082981Y-67737561D01*
X140086956Y-67740330D01*
X140147270Y-67784151D01*
X140153907Y-67787106D01*
X140172353Y-67797277D01*
X140173453Y-67798012D01*
X140243027Y-67826831D01*
X140245930Y-67828077D01*
X140320195Y-67861143D01*
X140320197Y-67861144D01*
X140320691Y-67861249D01*
X140331373Y-67864567D01*
X140331507Y-67864127D01*
X140337324Y-67865891D01*
X140337334Y-67865895D01*
X140347853Y-67867987D01*
X140409765Y-67900371D01*
X140444340Y-67961087D01*
X140440601Y-68030856D01*
X140411345Y-68077286D01*
X136975451Y-71513181D01*
X136914128Y-71546666D01*
X136887770Y-71549500D01*
X124027463Y-71549500D01*
X123960424Y-71529815D01*
X123914669Y-71477011D01*
X123904142Y-71412539D01*
X123905460Y-71400000D01*
X123885674Y-71211744D01*
X123827179Y-71031716D01*
X123732533Y-70867784D01*
X123605871Y-70727112D01*
X123605870Y-70727111D01*
X123452734Y-70615851D01*
X123452729Y-70615848D01*
X123279807Y-70538857D01*
X123279802Y-70538855D01*
X123214669Y-70525011D01*
X123153187Y-70491818D01*
X123152769Y-70491402D01*
X122578421Y-69917052D01*
X122578418Y-69917049D01*
X122501790Y-69865849D01*
X122501789Y-69865848D01*
X122455495Y-69834916D01*
X122455492Y-69834914D01*
X122455491Y-69834914D01*
X122318917Y-69778343D01*
X122318907Y-69778340D01*
X122173920Y-69749500D01*
X122173918Y-69749500D01*
X121371835Y-69749500D01*
X121224000Y-69749500D01*
X121223998Y-69749500D01*
X121079010Y-69778340D01*
X121079000Y-69778343D01*
X120942429Y-69834912D01*
X120942416Y-69834919D01*
X120819502Y-69917048D01*
X120819498Y-69917051D01*
X120237402Y-70499147D01*
X120176079Y-70532632D01*
X120106387Y-70527648D01*
X120050454Y-70485776D01*
X120031790Y-70449784D01*
X119977183Y-70281722D01*
X119977182Y-70281721D01*
X119977181Y-70281716D01*
X119882535Y-70117784D01*
X119755873Y-69977112D01*
X119755872Y-69977111D01*
X119602736Y-69865851D01*
X119602731Y-69865848D01*
X119429809Y-69788857D01*
X119429804Y-69788855D01*
X119364671Y-69775011D01*
X119303189Y-69741818D01*
X119302771Y-69741402D01*
X118893827Y-69332458D01*
X118860342Y-69271135D01*
X118865326Y-69201443D01*
X118907198Y-69145510D01*
X118931062Y-69131503D01*
X119040118Y-69082948D01*
X119193259Y-68971685D01*
X119319921Y-68831013D01*
X119414567Y-68667081D01*
X119473062Y-68487053D01*
X119492848Y-68298797D01*
X119473062Y-68110541D01*
X119414567Y-67930513D01*
X119319921Y-67766581D01*
X119193259Y-67625909D01*
X119188556Y-67622492D01*
X119040122Y-67514648D01*
X119040120Y-67514647D01*
X119040118Y-67514646D01*
X119024062Y-67507497D01*
X118970826Y-67462247D01*
X118950506Y-67395397D01*
X118950500Y-67394219D01*
X118950500Y-67162229D01*
X118970185Y-67095190D01*
X118986819Y-67074548D01*
X119076595Y-66984772D01*
X119197813Y-66863553D01*
X119259134Y-66830070D01*
X119328825Y-66835054D01*
X119384759Y-66876925D01*
X119409176Y-66942390D01*
X119408813Y-66964197D01*
X119394540Y-67099999D01*
X119394540Y-67100000D01*
X119414326Y-67288256D01*
X119414327Y-67288259D01*
X119472818Y-67468277D01*
X119472821Y-67468284D01*
X119567467Y-67632216D01*
X119663543Y-67738919D01*
X119694129Y-67772888D01*
X119847265Y-67884148D01*
X119847270Y-67884151D01*
X120020192Y-67961142D01*
X120020197Y-67961144D01*
X120205354Y-68000500D01*
X120205355Y-68000500D01*
X120394644Y-68000500D01*
X120394646Y-68000500D01*
X120579803Y-67961144D01*
X120752730Y-67884151D01*
X120755619Y-67882052D01*
X120766452Y-67874182D01*
X120832258Y-67850702D01*
X120839337Y-67850500D01*
X136823025Y-67850500D01*
X136890064Y-67870185D01*
X136895910Y-67874182D01*
X137047265Y-67984148D01*
X137047270Y-67984151D01*
X137220192Y-68061142D01*
X137220197Y-68061144D01*
X137405354Y-68100500D01*
X137405355Y-68100500D01*
X137594644Y-68100500D01*
X137594646Y-68100500D01*
X137779803Y-68061144D01*
X137952730Y-67984151D01*
X138105871Y-67872888D01*
X138232533Y-67732216D01*
X138327179Y-67568284D01*
X138385674Y-67388256D01*
X138405460Y-67200000D01*
X138385674Y-67011744D01*
X138327179Y-66831716D01*
X138232533Y-66667784D01*
X138105871Y-66527112D01*
X138101896Y-66524224D01*
X137952734Y-66415851D01*
X137952729Y-66415848D01*
X137779807Y-66338857D01*
X137779802Y-66338855D01*
X137634001Y-66307865D01*
X137594646Y-66299500D01*
X137405354Y-66299500D01*
X137365999Y-66307865D01*
X137220198Y-66338855D01*
X137214014Y-66340865D01*
X137213790Y-66340178D01*
X137169933Y-66349500D01*
X120839337Y-66349500D01*
X120772298Y-66329815D01*
X120766452Y-66325818D01*
X120752734Y-66315851D01*
X120752729Y-66315848D01*
X120579807Y-66238857D01*
X120579802Y-66238855D01*
X120421387Y-66205184D01*
X120394646Y-66199500D01*
X120205354Y-66199500D01*
X120178613Y-66205183D01*
X120108947Y-66199866D01*
X120053214Y-66157728D01*
X120029110Y-66092148D01*
X120044288Y-66023947D01*
X120065150Y-65996216D01*
X123224548Y-62836819D01*
X123285871Y-62803334D01*
X123312229Y-62800500D01*
X140172179Y-62800500D01*
X140239218Y-62820185D01*
G37*
%TD.AperFunction*%
%TA.AperFunction,Conductor*%
G36*
X127334324Y-57427473D02*
G01*
X127383139Y-57460683D01*
X127391529Y-57470000D01*
X127394130Y-57472889D01*
X127394131Y-57472890D01*
X127405467Y-57481126D01*
X127420263Y-57493763D01*
X127425961Y-57499461D01*
X127425965Y-57499464D01*
X127482994Y-57537570D01*
X127486967Y-57540339D01*
X127547270Y-57584151D01*
X127553902Y-57587104D01*
X127572361Y-57597283D01*
X127573453Y-57598013D01*
X127643042Y-57626836D01*
X127645987Y-57628102D01*
X127720197Y-57661144D01*
X127720696Y-57661250D01*
X127731370Y-57664562D01*
X127731503Y-57664125D01*
X127737330Y-57665892D01*
X127737334Y-57665894D01*
X127817816Y-57681902D01*
X127819282Y-57682204D01*
X127905354Y-57700500D01*
X127911309Y-57700500D01*
X132625638Y-57700500D01*
X132692677Y-57720185D01*
X132713319Y-57736819D01*
X134000536Y-59024035D01*
X134072725Y-59096224D01*
X134125966Y-59149465D01*
X134273446Y-59248009D01*
X134273459Y-59248016D01*
X134340933Y-59275964D01*
X134437334Y-59315894D01*
X134479935Y-59324368D01*
X134611305Y-59350500D01*
X134611308Y-59350500D01*
X134611309Y-59350500D01*
X137675638Y-59350500D01*
X137742677Y-59370185D01*
X137763319Y-59386819D01*
X138563181Y-60186681D01*
X138596666Y-60248004D01*
X138599500Y-60274362D01*
X138599500Y-60446306D01*
X138598821Y-60459266D01*
X138595753Y-60488460D01*
X138569170Y-60553075D01*
X138511873Y-60593060D01*
X138472432Y-60599500D01*
X128712229Y-60599500D01*
X128645190Y-60579815D01*
X128624548Y-60563181D01*
X128495989Y-60434622D01*
X128362770Y-60301402D01*
X128332521Y-60252041D01*
X128297738Y-60144992D01*
X128277181Y-60081721D01*
X128277178Y-60081715D01*
X128182533Y-59917784D01*
X128055871Y-59777112D01*
X128005479Y-59740500D01*
X127902734Y-59665851D01*
X127902729Y-59665848D01*
X127729807Y-59588857D01*
X127729802Y-59588855D01*
X127584001Y-59557865D01*
X127544646Y-59549500D01*
X127355354Y-59549500D01*
X127322897Y-59556398D01*
X127170197Y-59588855D01*
X127170192Y-59588857D01*
X126997270Y-59665848D01*
X126997265Y-59665851D01*
X126844129Y-59777111D01*
X126717466Y-59917785D01*
X126622821Y-60081715D01*
X126622818Y-60081722D01*
X126568506Y-60248878D01*
X126564326Y-60261744D01*
X126544540Y-60450000D01*
X126564326Y-60638256D01*
X126564327Y-60638259D01*
X126622818Y-60818277D01*
X126622821Y-60818284D01*
X126717467Y-60982216D01*
X126812553Y-61087819D01*
X126816793Y-61092528D01*
X126847023Y-61155519D01*
X126838398Y-61224854D01*
X126793657Y-61278520D01*
X126727004Y-61299478D01*
X126724643Y-61299500D01*
X123659148Y-61299500D01*
X123592109Y-61279815D01*
X123546354Y-61227011D01*
X123536410Y-61157853D01*
X123565435Y-61094297D01*
X123571467Y-61087819D01*
X124170826Y-60488460D01*
X127203311Y-57455972D01*
X127264632Y-57422489D01*
X127334324Y-57427473D01*
G37*
%TD.AperFunction*%
%TA.AperFunction,Conductor*%
G36*
X92750000Y-90886988D02*
G01*
X92692993Y-90854075D01*
X92565826Y-90820000D01*
X92434174Y-90820000D01*
X92307007Y-90854075D01*
X92250000Y-90886988D01*
X92250000Y-89213012D01*
X92307007Y-89245925D01*
X92434174Y-89280000D01*
X92565826Y-89280000D01*
X92692993Y-89245925D01*
X92750000Y-89213012D01*
X92750000Y-90886988D01*
G37*
%TD.AperFunction*%
%TA.AperFunction,Conductor*%
G36*
X185000641Y-50000006D02*
G01*
X185213481Y-50002328D01*
X185222915Y-50002792D01*
X185647552Y-50039943D01*
X185658270Y-50041354D01*
X186077393Y-50115256D01*
X186087921Y-50117590D01*
X186499033Y-50227747D01*
X186509322Y-50230992D01*
X186909255Y-50376555D01*
X186919221Y-50380683D01*
X187304942Y-50560547D01*
X187314528Y-50565538D01*
X187683088Y-50778326D01*
X187692207Y-50784135D01*
X188040820Y-51028237D01*
X188049401Y-51034821D01*
X188292360Y-51238688D01*
X188375420Y-51308383D01*
X188383395Y-51315692D01*
X188684307Y-51616604D01*
X188691616Y-51624579D01*
X188965177Y-51950597D01*
X188971762Y-51959179D01*
X189215864Y-52307792D01*
X189221676Y-52316916D01*
X189434459Y-52685467D01*
X189439454Y-52695062D01*
X189619310Y-53080764D01*
X189623450Y-53090759D01*
X189769003Y-53490664D01*
X189772256Y-53500980D01*
X189882405Y-53912061D01*
X189884746Y-53922623D01*
X189958644Y-54341725D01*
X189960056Y-54352450D01*
X189997206Y-54777073D01*
X189997671Y-54786527D01*
X189999993Y-54999357D01*
X190000000Y-55000710D01*
X190000000Y-97499289D01*
X189999993Y-97500642D01*
X189997671Y-97713472D01*
X189997206Y-97722926D01*
X189960056Y-98147549D01*
X189958644Y-98158274D01*
X189884746Y-98577376D01*
X189882405Y-98587938D01*
X189772256Y-98999019D01*
X189769003Y-99009335D01*
X189623450Y-99409240D01*
X189619310Y-99419235D01*
X189439454Y-99804937D01*
X189434459Y-99814532D01*
X189221676Y-100183083D01*
X189215864Y-100192207D01*
X188971762Y-100540820D01*
X188965177Y-100549402D01*
X188691616Y-100875420D01*
X188684307Y-100883395D01*
X188383395Y-101184307D01*
X188375420Y-101191616D01*
X188049402Y-101465177D01*
X188040820Y-101471762D01*
X187692207Y-101715864D01*
X187683083Y-101721676D01*
X187314532Y-101934459D01*
X187304937Y-101939454D01*
X186919235Y-102119310D01*
X186909240Y-102123450D01*
X186509335Y-102269003D01*
X186499019Y-102272256D01*
X186087938Y-102382405D01*
X186077376Y-102384746D01*
X185658274Y-102458644D01*
X185647549Y-102460056D01*
X185222926Y-102497206D01*
X185213472Y-102497671D01*
X185005455Y-102499940D01*
X185000640Y-102499993D01*
X184999290Y-102500000D01*
X95000710Y-102500000D01*
X94999359Y-102499993D01*
X94994454Y-102499939D01*
X94786527Y-102497671D01*
X94777073Y-102497206D01*
X94352450Y-102460056D01*
X94341725Y-102458644D01*
X93922623Y-102384746D01*
X93912061Y-102382405D01*
X93500980Y-102272256D01*
X93490664Y-102269003D01*
X93090759Y-102123450D01*
X93080764Y-102119310D01*
X92695062Y-101939454D01*
X92685467Y-101934459D01*
X92316916Y-101721676D01*
X92307792Y-101715864D01*
X91959179Y-101471762D01*
X91950597Y-101465177D01*
X91624579Y-101191616D01*
X91616604Y-101184307D01*
X91330167Y-100897870D01*
X101109500Y-100897870D01*
X101109501Y-100897876D01*
X101115908Y-100957483D01*
X101166202Y-101092328D01*
X101166206Y-101092335D01*
X101252452Y-101207544D01*
X101252455Y-101207547D01*
X101367664Y-101293793D01*
X101367671Y-101293797D01*
X101502517Y-101344091D01*
X101502516Y-101344091D01*
X101509444Y-101344835D01*
X101562127Y-101350500D01*
X103357872Y-101350499D01*
X103417483Y-101344091D01*
X103552331Y-101293796D01*
X103667546Y-101207546D01*
X103753796Y-101092331D01*
X103802810Y-100960916D01*
X103844681Y-100904984D01*
X103910145Y-100880566D01*
X103978418Y-100895417D01*
X104006673Y-100916569D01*
X104128599Y-101038495D01*
X104225384Y-101106265D01*
X104322165Y-101174032D01*
X104322167Y-101174033D01*
X104322170Y-101174035D01*
X104536337Y-101273903D01*
X104764592Y-101335063D01*
X104941034Y-101350500D01*
X104999999Y-101355659D01*
X105000000Y-101355659D01*
X105000001Y-101355659D01*
X105058966Y-101350500D01*
X105235408Y-101335063D01*
X105463663Y-101273903D01*
X105677830Y-101174035D01*
X105871401Y-101038495D01*
X106038495Y-100871401D01*
X106168425Y-100685842D01*
X106223002Y-100642217D01*
X106292500Y-100635023D01*
X106354855Y-100666546D01*
X106371575Y-100685842D01*
X106501500Y-100871395D01*
X106501505Y-100871401D01*
X106668599Y-101038495D01*
X106765384Y-101106265D01*
X106862165Y-101174032D01*
X106862167Y-101174033D01*
X106862170Y-101174035D01*
X107076337Y-101273903D01*
X107304592Y-101335063D01*
X107481034Y-101350500D01*
X107539999Y-101355659D01*
X107540000Y-101355659D01*
X107540001Y-101355659D01*
X107598966Y-101350500D01*
X107775408Y-101335063D01*
X108003663Y-101273903D01*
X108217830Y-101174035D01*
X108411401Y-101038495D01*
X108578495Y-100871401D01*
X108708425Y-100685842D01*
X108763002Y-100642217D01*
X108832500Y-100635023D01*
X108894855Y-100666546D01*
X108911575Y-100685842D01*
X109041500Y-100871395D01*
X109041505Y-100871401D01*
X109208599Y-101038495D01*
X109305384Y-101106265D01*
X109402165Y-101174032D01*
X109402167Y-101174033D01*
X109402170Y-101174035D01*
X109616337Y-101273903D01*
X109844592Y-101335063D01*
X110021034Y-101350500D01*
X110079999Y-101355659D01*
X110080000Y-101355659D01*
X110080001Y-101355659D01*
X110138966Y-101350500D01*
X110315408Y-101335063D01*
X110543663Y-101273903D01*
X110757830Y-101174035D01*
X110951401Y-101038495D01*
X111118495Y-100871401D01*
X111248425Y-100685842D01*
X111303002Y-100642217D01*
X111372500Y-100635023D01*
X111434855Y-100666546D01*
X111451575Y-100685842D01*
X111581500Y-100871395D01*
X111581505Y-100871401D01*
X111748599Y-101038495D01*
X111845384Y-101106265D01*
X111942165Y-101174032D01*
X111942167Y-101174033D01*
X111942170Y-101174035D01*
X112156337Y-101273903D01*
X112384592Y-101335063D01*
X112561034Y-101350500D01*
X112619999Y-101355659D01*
X112620000Y-101355659D01*
X112620001Y-101355659D01*
X112678966Y-101350500D01*
X112855408Y-101335063D01*
X113083663Y-101273903D01*
X113297830Y-101174035D01*
X113491401Y-101038495D01*
X113658495Y-100871401D01*
X113794035Y-100677830D01*
X113893903Y-100463663D01*
X113955063Y-100235408D01*
X113975659Y-100000000D01*
X113955063Y-99764592D01*
X113897584Y-99550075D01*
X113893905Y-99536344D01*
X113893904Y-99536343D01*
X113893903Y-99536337D01*
X113794035Y-99322171D01*
X113788425Y-99314158D01*
X113658494Y-99128597D01*
X113491404Y-98961507D01*
X113423375Y-98913872D01*
X113379751Y-98859294D01*
X113370500Y-98812298D01*
X113370500Y-98101007D01*
X118749500Y-98101007D01*
X118788907Y-98299119D01*
X118788909Y-98299127D01*
X118866212Y-98485754D01*
X118920204Y-98566558D01*
X118941081Y-98633235D01*
X118922596Y-98700615D01*
X118920204Y-98704337D01*
X118866655Y-98784479D01*
X118866654Y-98784481D01*
X118789390Y-98971016D01*
X118789387Y-98971025D01*
X118779647Y-99020000D01*
X119634134Y-99020000D01*
X119658326Y-99022383D01*
X119661123Y-99022939D01*
X119673995Y-99025499D01*
X119673996Y-99025500D01*
X119673997Y-99025500D01*
X119714170Y-99025500D01*
X119699925Y-99039745D01*
X119650556Y-99125255D01*
X119625000Y-99220630D01*
X119625000Y-99319370D01*
X119650556Y-99414745D01*
X119699925Y-99500255D01*
X119719670Y-99520000D01*
X118779647Y-99520000D01*
X118789387Y-99568974D01*
X118789390Y-99568983D01*
X118866652Y-99755513D01*
X118866659Y-99755526D01*
X118978829Y-99923399D01*
X118978832Y-99923403D01*
X119121596Y-100066167D01*
X119121600Y-100066170D01*
X119289473Y-100178340D01*
X119289486Y-100178347D01*
X119476016Y-100255609D01*
X119476025Y-100255612D01*
X119674041Y-100294999D01*
X119674045Y-100295000D01*
X119750000Y-100295000D01*
X119750000Y-99550330D01*
X119769745Y-99570075D01*
X119855255Y-99619444D01*
X119950630Y-99645000D01*
X120049370Y-99645000D01*
X120144745Y-99619444D01*
X120230255Y-99570075D01*
X120250000Y-99550330D01*
X120250000Y-100295000D01*
X120325955Y-100295000D01*
X120325958Y-100294999D01*
X120523974Y-100255612D01*
X120523983Y-100255609D01*
X120710513Y-100178347D01*
X120710526Y-100178340D01*
X120878399Y-100066170D01*
X120878403Y-100066167D01*
X121021167Y-99923403D01*
X121021170Y-99923399D01*
X121133340Y-99755526D01*
X121133347Y-99755513D01*
X121210609Y-99568983D01*
X121210612Y-99568974D01*
X121220353Y-99520000D01*
X120280330Y-99520000D01*
X120300075Y-99500255D01*
X120349444Y-99414745D01*
X120375000Y-99319370D01*
X120375000Y-99220630D01*
X120349444Y-99125255D01*
X120300075Y-99039745D01*
X120285830Y-99025500D01*
X120326004Y-99025500D01*
X120326004Y-99025499D01*
X120339473Y-99022820D01*
X120341674Y-99022383D01*
X120365866Y-99020000D01*
X121220353Y-99020000D01*
X121210612Y-98971025D01*
X121210609Y-98971016D01*
X121133347Y-98784486D01*
X121133343Y-98784479D01*
X121079795Y-98704340D01*
X121058917Y-98637662D01*
X121077401Y-98570282D01*
X121079733Y-98566652D01*
X121133786Y-98485756D01*
X121211091Y-98299127D01*
X121250499Y-98101007D01*
X129749500Y-98101007D01*
X129788907Y-98299119D01*
X129788909Y-98299127D01*
X129866212Y-98485754D01*
X129920204Y-98566558D01*
X129941081Y-98633235D01*
X129922596Y-98700615D01*
X129920204Y-98704337D01*
X129866655Y-98784479D01*
X129866654Y-98784481D01*
X129789390Y-98971016D01*
X129789387Y-98971025D01*
X129779647Y-99020000D01*
X130634134Y-99020000D01*
X130658326Y-99022383D01*
X130661123Y-99022939D01*
X130673995Y-99025499D01*
X130673996Y-99025500D01*
X130673997Y-99025500D01*
X130714170Y-99025500D01*
X130699925Y-99039745D01*
X130650556Y-99125255D01*
X130625000Y-99220630D01*
X130625000Y-99319370D01*
X130650556Y-99414745D01*
X130699925Y-99500255D01*
X130719670Y-99520000D01*
X129779647Y-99520000D01*
X129789387Y-99568974D01*
X129789390Y-99568983D01*
X129866652Y-99755513D01*
X129866659Y-99755526D01*
X129978829Y-99923399D01*
X129978832Y-99923403D01*
X130121596Y-100066167D01*
X130121600Y-100066170D01*
X130289473Y-100178340D01*
X130289486Y-100178347D01*
X130476016Y-100255609D01*
X130476025Y-100255612D01*
X130674041Y-100294999D01*
X130674045Y-100295000D01*
X130750000Y-100295000D01*
X130750000Y-99550330D01*
X130769745Y-99570075D01*
X130855255Y-99619444D01*
X130950630Y-99645000D01*
X131049370Y-99645000D01*
X131144745Y-99619444D01*
X131230255Y-99570075D01*
X131250000Y-99550330D01*
X131250000Y-100295000D01*
X131325955Y-100295000D01*
X131325958Y-100294999D01*
X131523974Y-100255612D01*
X131523983Y-100255609D01*
X131710513Y-100178347D01*
X131710526Y-100178340D01*
X131878399Y-100066170D01*
X131878403Y-100066167D01*
X132021167Y-99923403D01*
X132021170Y-99923399D01*
X132133340Y-99755526D01*
X132133347Y-99755513D01*
X132210609Y-99568983D01*
X132210612Y-99568974D01*
X132220353Y-99520000D01*
X131280330Y-99520000D01*
X131300075Y-99500255D01*
X131349444Y-99414745D01*
X131375000Y-99319370D01*
X131375000Y-99220630D01*
X131349444Y-99125255D01*
X131300075Y-99039745D01*
X131285830Y-99025500D01*
X131326004Y-99025500D01*
X131326004Y-99025499D01*
X131339473Y-99022820D01*
X131341674Y-99022383D01*
X131365866Y-99020000D01*
X132220353Y-99020000D01*
X132210612Y-98971025D01*
X132210609Y-98971016D01*
X132133347Y-98784486D01*
X132133343Y-98784479D01*
X132079795Y-98704340D01*
X132058917Y-98637662D01*
X132077401Y-98570282D01*
X132079733Y-98566652D01*
X132133786Y-98485756D01*
X132211091Y-98299127D01*
X132250500Y-98101003D01*
X132250500Y-98081007D01*
X140702000Y-98081007D01*
X140741407Y-98279119D01*
X140741409Y-98279127D01*
X140818712Y-98465754D01*
X140872704Y-98546558D01*
X140893581Y-98613235D01*
X140875096Y-98680615D01*
X140872704Y-98684337D01*
X140819155Y-98764479D01*
X140819154Y-98764481D01*
X140741890Y-98951016D01*
X140741887Y-98951025D01*
X140732147Y-99000000D01*
X141586634Y-99000000D01*
X141610826Y-99002383D01*
X141613623Y-99002939D01*
X141626495Y-99005499D01*
X141626496Y-99005500D01*
X141626497Y-99005500D01*
X141666670Y-99005500D01*
X141652425Y-99019745D01*
X141603056Y-99105255D01*
X141577500Y-99200630D01*
X141577500Y-99299370D01*
X141603056Y-99394745D01*
X141652425Y-99480255D01*
X141672170Y-99500000D01*
X140732147Y-99500000D01*
X140741887Y-99548974D01*
X140741890Y-99548983D01*
X140819152Y-99735513D01*
X140819159Y-99735526D01*
X140931329Y-99903399D01*
X140931332Y-99903403D01*
X141074096Y-100046167D01*
X141074100Y-100046170D01*
X141241973Y-100158340D01*
X141241986Y-100158347D01*
X141428516Y-100235609D01*
X141428525Y-100235612D01*
X141626541Y-100274999D01*
X141626545Y-100275000D01*
X141702500Y-100275000D01*
X141702500Y-99530330D01*
X141722245Y-99550075D01*
X141807755Y-99599444D01*
X141903130Y-99625000D01*
X142001870Y-99625000D01*
X142097245Y-99599444D01*
X142182755Y-99550075D01*
X142202500Y-99530330D01*
X142202500Y-100275000D01*
X142278455Y-100275000D01*
X142278458Y-100274999D01*
X142476474Y-100235612D01*
X142476483Y-100235609D01*
X142663013Y-100158347D01*
X142663026Y-100158340D01*
X142830899Y-100046170D01*
X142830903Y-100046167D01*
X142973667Y-99903403D01*
X142973670Y-99903399D01*
X143085840Y-99735526D01*
X143085847Y-99735513D01*
X143163109Y-99548983D01*
X143163112Y-99548974D01*
X143172853Y-99500000D01*
X142232830Y-99500000D01*
X142252575Y-99480255D01*
X142301944Y-99394745D01*
X142327500Y-99299370D01*
X142327500Y-99200630D01*
X142301944Y-99105255D01*
X142252575Y-99019745D01*
X142238330Y-99005500D01*
X142278504Y-99005500D01*
X142278504Y-99005499D01*
X142291973Y-99002820D01*
X142294174Y-99002383D01*
X142318366Y-99000000D01*
X143172853Y-99000000D01*
X143163112Y-98951025D01*
X143163109Y-98951016D01*
X143085847Y-98764486D01*
X143085843Y-98764479D01*
X143032295Y-98684340D01*
X143011417Y-98617662D01*
X143029901Y-98550282D01*
X143032233Y-98546652D01*
X143086286Y-98465756D01*
X143163591Y-98279127D01*
X143203000Y-98081003D01*
X143203000Y-97878997D01*
X143163591Y-97680873D01*
X143130173Y-97600198D01*
X143122705Y-97530730D01*
X143142464Y-97485340D01*
X143142047Y-97485112D01*
X143144595Y-97480444D01*
X143145472Y-97478431D01*
X143146296Y-97477331D01*
X143196591Y-97342483D01*
X143203000Y-97282873D01*
X143202999Y-96137128D01*
X143196591Y-96077517D01*
X143153756Y-95962671D01*
X143146297Y-95942671D01*
X143146293Y-95942664D01*
X143060047Y-95827455D01*
X143060044Y-95827452D01*
X142944835Y-95741206D01*
X142944828Y-95741202D01*
X142809982Y-95690908D01*
X142809983Y-95690908D01*
X142750383Y-95684501D01*
X142750381Y-95684500D01*
X142750373Y-95684500D01*
X142750364Y-95684500D01*
X141154629Y-95684500D01*
X141154623Y-95684501D01*
X141095016Y-95690908D01*
X140960171Y-95741202D01*
X140960164Y-95741206D01*
X140844955Y-95827452D01*
X140844952Y-95827455D01*
X140758706Y-95942664D01*
X140758702Y-95942671D01*
X140708408Y-96077517D01*
X140702599Y-96131557D01*
X140702001Y-96137123D01*
X140702000Y-96137135D01*
X140702000Y-97282870D01*
X140702001Y-97282876D01*
X140708408Y-97342483D01*
X140758702Y-97477328D01*
X140758703Y-97477330D01*
X140758704Y-97477331D01*
X140759528Y-97478432D01*
X140760009Y-97479721D01*
X140762954Y-97485114D01*
X140762178Y-97485537D01*
X140783948Y-97543895D01*
X140774825Y-97600198D01*
X140741410Y-97680868D01*
X140741407Y-97680880D01*
X140702000Y-97878992D01*
X140702000Y-98081007D01*
X132250500Y-98081007D01*
X132250500Y-97898997D01*
X132211091Y-97700873D01*
X132177673Y-97620198D01*
X132170205Y-97550730D01*
X132189964Y-97505340D01*
X132189547Y-97505112D01*
X132192095Y-97500444D01*
X132192972Y-97498431D01*
X132193796Y-97497331D01*
X132244091Y-97362483D01*
X132250500Y-97302873D01*
X132250499Y-96157128D01*
X132244091Y-96097517D01*
X132236631Y-96077517D01*
X132193797Y-95962671D01*
X132193793Y-95962664D01*
X132107547Y-95847455D01*
X132107544Y-95847452D01*
X131992335Y-95761206D01*
X131992328Y-95761202D01*
X131857482Y-95710908D01*
X131857483Y-95710908D01*
X131797883Y-95704501D01*
X131797881Y-95704500D01*
X131797873Y-95704500D01*
X131797864Y-95704500D01*
X130202129Y-95704500D01*
X130202123Y-95704501D01*
X130142516Y-95710908D01*
X130007671Y-95761202D01*
X130007664Y-95761206D01*
X129892455Y-95847452D01*
X129892452Y-95847455D01*
X129806206Y-95962664D01*
X129806202Y-95962671D01*
X129755908Y-96097517D01*
X129751650Y-96137127D01*
X129749501Y-96157123D01*
X129749500Y-96157135D01*
X129749500Y-97302870D01*
X129749501Y-97302876D01*
X129755908Y-97362483D01*
X129806202Y-97497328D01*
X129806203Y-97497330D01*
X129806204Y-97497331D01*
X129807028Y-97498432D01*
X129807509Y-97499721D01*
X129810454Y-97505114D01*
X129809678Y-97505537D01*
X129831448Y-97563895D01*
X129822325Y-97620198D01*
X129788910Y-97700868D01*
X129788907Y-97700880D01*
X129749500Y-97898992D01*
X129749500Y-98101007D01*
X121250499Y-98101007D01*
X121250500Y-98101003D01*
X121250500Y-97898997D01*
X121211091Y-97700873D01*
X121177673Y-97620198D01*
X121170205Y-97550730D01*
X121189964Y-97505340D01*
X121189547Y-97505112D01*
X121192095Y-97500444D01*
X121192972Y-97498431D01*
X121193796Y-97497331D01*
X121244091Y-97362483D01*
X121250500Y-97302873D01*
X121250499Y-96157128D01*
X121244091Y-96097517D01*
X121236631Y-96077517D01*
X121193797Y-95962671D01*
X121193793Y-95962664D01*
X121107547Y-95847455D01*
X121107544Y-95847452D01*
X120992335Y-95761206D01*
X120992328Y-95761202D01*
X120857482Y-95710908D01*
X120857483Y-95710908D01*
X120797883Y-95704501D01*
X120797881Y-95704500D01*
X120797873Y-95704500D01*
X120797864Y-95704500D01*
X119202129Y-95704500D01*
X119202123Y-95704501D01*
X119142516Y-95710908D01*
X119007671Y-95761202D01*
X119007664Y-95761206D01*
X118892455Y-95847452D01*
X118892452Y-95847455D01*
X118806206Y-95962664D01*
X118806202Y-95962671D01*
X118755908Y-96097517D01*
X118751650Y-96137127D01*
X118749501Y-96157123D01*
X118749500Y-96157135D01*
X118749500Y-97302870D01*
X118749501Y-97302876D01*
X118755908Y-97362483D01*
X118806202Y-97497328D01*
X118806203Y-97497330D01*
X118806204Y-97497331D01*
X118807028Y-97498432D01*
X118807509Y-97499721D01*
X118810454Y-97505114D01*
X118809678Y-97505537D01*
X118831448Y-97563895D01*
X118822325Y-97620198D01*
X118788910Y-97700868D01*
X118788907Y-97700880D01*
X118749500Y-97898992D01*
X118749500Y-98101007D01*
X113370500Y-98101007D01*
X113370500Y-95292229D01*
X113390185Y-95225190D01*
X113406819Y-95204548D01*
X121011367Y-87600000D01*
X122094540Y-87600000D01*
X122114326Y-87788256D01*
X122114327Y-87788259D01*
X122172818Y-87968277D01*
X122172821Y-87968284D01*
X122267467Y-88132216D01*
X122360338Y-88235359D01*
X122394129Y-88272888D01*
X122547265Y-88384148D01*
X122547270Y-88384151D01*
X122720192Y-88461142D01*
X122720197Y-88461144D01*
X122905354Y-88500500D01*
X122905355Y-88500500D01*
X123094644Y-88500500D01*
X123094646Y-88500500D01*
X123279803Y-88461144D01*
X123452730Y-88384151D01*
X123458580Y-88379901D01*
X123466452Y-88374182D01*
X123532258Y-88350702D01*
X123539337Y-88350500D01*
X126886689Y-88350500D01*
X126953728Y-88370185D01*
X126999483Y-88422989D01*
X127009427Y-88492147D01*
X126980402Y-88555703D01*
X126974370Y-88562181D01*
X123417052Y-92119496D01*
X123417049Y-92119499D01*
X123381923Y-92172069D01*
X123381924Y-92172070D01*
X123334913Y-92242426D01*
X123278343Y-92379000D01*
X123278340Y-92379010D01*
X123249500Y-92523997D01*
X123249500Y-92965677D01*
X123232887Y-93027677D01*
X123172821Y-93131714D01*
X123114327Y-93311740D01*
X123114326Y-93311744D01*
X123094540Y-93500000D01*
X123114326Y-93688256D01*
X123114327Y-93688259D01*
X123172818Y-93868277D01*
X123172821Y-93868284D01*
X123267467Y-94032216D01*
X123373070Y-94149500D01*
X123394129Y-94172888D01*
X123547265Y-94284148D01*
X123547270Y-94284151D01*
X123720192Y-94361142D01*
X123720197Y-94361144D01*
X123905354Y-94400500D01*
X123905355Y-94400500D01*
X124094644Y-94400500D01*
X124094646Y-94400500D01*
X124279803Y-94361144D01*
X124452730Y-94284151D01*
X124605871Y-94172888D01*
X124732533Y-94032216D01*
X124827179Y-93868284D01*
X124885674Y-93688256D01*
X124905460Y-93500000D01*
X124885674Y-93311744D01*
X124827179Y-93131716D01*
X124827178Y-93131714D01*
X124767113Y-93027677D01*
X124750500Y-92965677D01*
X124750500Y-92960146D01*
X124770185Y-92893107D01*
X124786814Y-92872470D01*
X126953310Y-90705973D01*
X127014631Y-90672490D01*
X127084323Y-90677474D01*
X127133138Y-90710682D01*
X127144127Y-90722886D01*
X127144130Y-90722889D01*
X127297265Y-90834148D01*
X127297270Y-90834151D01*
X127470191Y-90911142D01*
X127470193Y-90911142D01*
X127470197Y-90911144D01*
X127535329Y-90924987D01*
X127596809Y-90958178D01*
X127597228Y-90958596D01*
X129770347Y-93131714D01*
X131917048Y-95278415D01*
X131917049Y-95278416D01*
X131970847Y-95332214D01*
X132021585Y-95382952D01*
X132144498Y-95465080D01*
X132144511Y-95465087D01*
X132281082Y-95521656D01*
X132281087Y-95521658D01*
X132281091Y-95521658D01*
X132281092Y-95521659D01*
X132426079Y-95550500D01*
X132426082Y-95550500D01*
X132860663Y-95550500D01*
X132927702Y-95570185D01*
X132933548Y-95574182D01*
X132947265Y-95584148D01*
X132947270Y-95584151D01*
X133120192Y-95661142D01*
X133120197Y-95661144D01*
X133305354Y-95700500D01*
X133305355Y-95700500D01*
X133494644Y-95700500D01*
X133494646Y-95700500D01*
X133679803Y-95661144D01*
X133852730Y-95584151D01*
X134005871Y-95472888D01*
X134132533Y-95332216D01*
X134227179Y-95168284D01*
X134285674Y-94988256D01*
X134305460Y-94800000D01*
X134285674Y-94611744D01*
X134231112Y-94443823D01*
X134227181Y-94431722D01*
X134227180Y-94431721D01*
X134227179Y-94431716D01*
X134132533Y-94267784D01*
X134005871Y-94127112D01*
X133986697Y-94113181D01*
X133852734Y-94015851D01*
X133852729Y-94015848D01*
X133679807Y-93938857D01*
X133679802Y-93938855D01*
X133534001Y-93907865D01*
X133494646Y-93899500D01*
X133305354Y-93899500D01*
X133272897Y-93906398D01*
X133120197Y-93938855D01*
X133120192Y-93938857D01*
X132947270Y-94015848D01*
X132947265Y-94015851D01*
X132934455Y-94025159D01*
X132868649Y-94048639D01*
X132800595Y-94032813D01*
X132773889Y-94012522D01*
X128662770Y-89901402D01*
X128632521Y-89852041D01*
X128586936Y-89711744D01*
X128575171Y-89675535D01*
X128577672Y-89674722D01*
X128569937Y-89617070D01*
X128599559Y-89553790D01*
X128619618Y-89535554D01*
X128705871Y-89472888D01*
X128832533Y-89332216D01*
X128927179Y-89168284D01*
X128985674Y-88988256D01*
X129005460Y-88800000D01*
X128985674Y-88611744D01*
X128955841Y-88519929D01*
X128953531Y-88512818D01*
X128951536Y-88442977D01*
X128987616Y-88383144D01*
X129050317Y-88352316D01*
X129071462Y-88350500D01*
X137473920Y-88350500D01*
X137571462Y-88331096D01*
X137618913Y-88321658D01*
X137755495Y-88265084D01*
X137772758Y-88253548D01*
X137815862Y-88235362D01*
X137929803Y-88211144D01*
X137929807Y-88211142D01*
X137929808Y-88211142D01*
X138042103Y-88161144D01*
X138102730Y-88134151D01*
X138255871Y-88022888D01*
X138382533Y-87882216D01*
X138477179Y-87718284D01*
X138535674Y-87538256D01*
X138555460Y-87350000D01*
X138535674Y-87161744D01*
X138477179Y-86981716D01*
X138382533Y-86817784D01*
X138255871Y-86677112D01*
X138255870Y-86677111D01*
X138102734Y-86565851D01*
X138102729Y-86565848D01*
X137929807Y-86488857D01*
X137929802Y-86488855D01*
X137784001Y-86457865D01*
X137744646Y-86449500D01*
X137555354Y-86449500D01*
X137522897Y-86456398D01*
X137370197Y-86488855D01*
X137370192Y-86488857D01*
X137197270Y-86565848D01*
X137197265Y-86565851D01*
X137044129Y-86677111D01*
X136925852Y-86808472D01*
X136866365Y-86845121D01*
X136833702Y-86849500D01*
X123539337Y-86849500D01*
X123472298Y-86829815D01*
X123466452Y-86825818D01*
X123452734Y-86815851D01*
X123452729Y-86815848D01*
X123279807Y-86738857D01*
X123279802Y-86738855D01*
X123114236Y-86703664D01*
X123094646Y-86699500D01*
X122905354Y-86699500D01*
X122885764Y-86703664D01*
X122720197Y-86738855D01*
X122720192Y-86738857D01*
X122547270Y-86815848D01*
X122547265Y-86815851D01*
X122394129Y-86927111D01*
X122267466Y-87067785D01*
X122172821Y-87231715D01*
X122172818Y-87231722D01*
X122117538Y-87401858D01*
X122114326Y-87411744D01*
X122094540Y-87600000D01*
X121011367Y-87600000D01*
X125224548Y-83386819D01*
X125285871Y-83353334D01*
X125312229Y-83350500D01*
X126373920Y-83350500D01*
X126471462Y-83331096D01*
X126518913Y-83321658D01*
X126609967Y-83283942D01*
X126655493Y-83265085D01*
X126655493Y-83265084D01*
X126655495Y-83265084D01*
X126705434Y-83231716D01*
X126705434Y-83231715D01*
X126705436Y-83231715D01*
X126741925Y-83207334D01*
X126778416Y-83182952D01*
X127210868Y-82750499D01*
X131594540Y-82750499D01*
X131598821Y-82791231D01*
X131599500Y-82804192D01*
X131599500Y-82839192D01*
X131607639Y-82880114D01*
X131609341Y-82891339D01*
X131614325Y-82938749D01*
X131614326Y-82938756D01*
X131624903Y-82971307D01*
X131628587Y-82985427D01*
X131631590Y-83000521D01*
X131634105Y-83013165D01*
X131634106Y-83013170D01*
X131652641Y-83057917D01*
X131656011Y-83067050D01*
X131672820Y-83118782D01*
X131686571Y-83142600D01*
X131693743Y-83157144D01*
X131701986Y-83177044D01*
X131701988Y-83177047D01*
X131732626Y-83222902D01*
X131736910Y-83229790D01*
X131767467Y-83282716D01*
X131781355Y-83298140D01*
X131792307Y-83312221D01*
X131800535Y-83324535D01*
X131844283Y-83368283D01*
X131848752Y-83372992D01*
X131894129Y-83423388D01*
X131897423Y-83425781D01*
X131905463Y-83431623D01*
X131920259Y-83444260D01*
X131925960Y-83449961D01*
X131925965Y-83449965D01*
X131938477Y-83458325D01*
X131979182Y-83485523D01*
X131982981Y-83488061D01*
X131986956Y-83490830D01*
X132047270Y-83534651D01*
X132053896Y-83537601D01*
X132053907Y-83537606D01*
X132072353Y-83547777D01*
X132073453Y-83548512D01*
X132143027Y-83577331D01*
X132145930Y-83578577D01*
X132220195Y-83611643D01*
X132220197Y-83611644D01*
X132220691Y-83611749D01*
X132231373Y-83615067D01*
X132231507Y-83614627D01*
X132237330Y-83616393D01*
X132237334Y-83616395D01*
X132317904Y-83632420D01*
X132319283Y-83632704D01*
X132405354Y-83651000D01*
X132405355Y-83651000D01*
X132594645Y-83651000D01*
X132594646Y-83651000D01*
X132680699Y-83632708D01*
X132682134Y-83632412D01*
X132762666Y-83616395D01*
X132762671Y-83616393D01*
X132768495Y-83614627D01*
X132768628Y-83615068D01*
X132779319Y-83611747D01*
X132779404Y-83611728D01*
X132779803Y-83611644D01*
X132854096Y-83578565D01*
X132856942Y-83577343D01*
X132926547Y-83548512D01*
X132927637Y-83547783D01*
X132946088Y-83537607D01*
X132952730Y-83534651D01*
X133013039Y-83490833D01*
X133016966Y-83488095D01*
X133074036Y-83449964D01*
X133079740Y-83444260D01*
X133094533Y-83431624D01*
X133105871Y-83423388D01*
X133151265Y-83372971D01*
X133155697Y-83368301D01*
X134612181Y-81911819D01*
X134673504Y-81878334D01*
X134687530Y-81876825D01*
X134687463Y-81876180D01*
X134693926Y-81875500D01*
X134693930Y-81875500D01*
X134780030Y-81857198D01*
X134781464Y-81856902D01*
X134861950Y-81840894D01*
X134861953Y-81840892D01*
X134861956Y-81840892D01*
X134867780Y-81839126D01*
X134867915Y-81839573D01*
X134878599Y-81836247D01*
X134879087Y-81836144D01*
X134953341Y-81803082D01*
X134956239Y-81801837D01*
X135025831Y-81773013D01*
X135026917Y-81772287D01*
X135045379Y-81762104D01*
X135052014Y-81759151D01*
X135112338Y-81715322D01*
X135116236Y-81712605D01*
X135173319Y-81674464D01*
X135179023Y-81668758D01*
X135193815Y-81656126D01*
X135205155Y-81647888D01*
X135250558Y-81597461D01*
X135254971Y-81592810D01*
X135298748Y-81549035D01*
X135306971Y-81536727D01*
X135317926Y-81522643D01*
X135331815Y-81507218D01*
X135331814Y-81507218D01*
X135331817Y-81507216D01*
X135362375Y-81454284D01*
X135366652Y-81447408D01*
X135397296Y-81401548D01*
X135397297Y-81401547D01*
X135405543Y-81381637D01*
X135412717Y-81367091D01*
X135426461Y-81343287D01*
X135426462Y-81343286D01*
X135427508Y-81340068D01*
X135443279Y-81291528D01*
X135446635Y-81282431D01*
X135465178Y-81237666D01*
X135470695Y-81209927D01*
X135474378Y-81195813D01*
X135484958Y-81163256D01*
X135489940Y-81115837D01*
X135491645Y-81104604D01*
X135499784Y-81063695D01*
X135499784Y-81028692D01*
X135500463Y-81015731D01*
X135502116Y-81000000D01*
X135504744Y-80975000D01*
X135500463Y-80934266D01*
X135499784Y-80921306D01*
X135499784Y-80886309D01*
X135496197Y-80868277D01*
X135491642Y-80845383D01*
X135489940Y-80834156D01*
X135485804Y-80794797D01*
X135484958Y-80786744D01*
X135474378Y-80754183D01*
X135470693Y-80740059D01*
X135465179Y-80712339D01*
X135465178Y-80712338D01*
X135465178Y-80712334D01*
X135446636Y-80667569D01*
X135443274Y-80658455D01*
X135426465Y-80606720D01*
X135426463Y-80606716D01*
X135412708Y-80582892D01*
X135405540Y-80568355D01*
X135397298Y-80548456D01*
X135397297Y-80548454D01*
X135397297Y-80548453D01*
X135366643Y-80502577D01*
X135362372Y-80495708D01*
X135331818Y-80442785D01*
X135331814Y-80442780D01*
X135317921Y-80427350D01*
X135306968Y-80413268D01*
X135298748Y-80400965D01*
X135255008Y-80357225D01*
X135250539Y-80352516D01*
X135205155Y-80302112D01*
X135193812Y-80293871D01*
X135179021Y-80281238D01*
X135173319Y-80275536D01*
X135116292Y-80237431D01*
X135112300Y-80234649D01*
X135083949Y-80214051D01*
X135052014Y-80190849D01*
X135045376Y-80187893D01*
X135026927Y-80177719D01*
X135025835Y-80176989D01*
X135025830Y-80176986D01*
X134956277Y-80148177D01*
X134953294Y-80146895D01*
X134879090Y-80113856D01*
X134879081Y-80113853D01*
X134878569Y-80113745D01*
X134867910Y-80110438D01*
X134867778Y-80110874D01*
X134861951Y-80109106D01*
X134861950Y-80109106D01*
X134861947Y-80109105D01*
X134861946Y-80109105D01*
X134781552Y-80093113D01*
X134779999Y-80092794D01*
X134693930Y-80074500D01*
X134687975Y-80074500D01*
X134364192Y-80074500D01*
X134186808Y-80074500D01*
X134186803Y-80074500D01*
X134012841Y-80109103D01*
X134012829Y-80109106D01*
X133930892Y-80143045D01*
X133930893Y-80143046D01*
X133848956Y-80176985D01*
X133813762Y-80200501D01*
X133701463Y-80275535D01*
X131920260Y-82056738D01*
X131905468Y-82069372D01*
X131894136Y-82077605D01*
X131894126Y-82077614D01*
X131848751Y-82128007D01*
X131844286Y-82132712D01*
X131800539Y-82176460D01*
X131800532Y-82176468D01*
X131792308Y-82188777D01*
X131781361Y-82202852D01*
X131767468Y-82218282D01*
X131767467Y-82218283D01*
X131736907Y-82271213D01*
X131732626Y-82278097D01*
X131701987Y-82323954D01*
X131693742Y-82343857D01*
X131686575Y-82358390D01*
X131672820Y-82382216D01*
X131672818Y-82382221D01*
X131656010Y-82433949D01*
X131652642Y-82443080D01*
X131634105Y-82487833D01*
X131634103Y-82487841D01*
X131628588Y-82515567D01*
X131624902Y-82529693D01*
X131614326Y-82562243D01*
X131614325Y-82562246D01*
X131609341Y-82609660D01*
X131607639Y-82620884D01*
X131599500Y-82661807D01*
X131599500Y-82696806D01*
X131598821Y-82709766D01*
X131594540Y-82750499D01*
X127210868Y-82750499D01*
X127332951Y-82628416D01*
X127346814Y-82607669D01*
X127415084Y-82505495D01*
X127416374Y-82502382D01*
X127456211Y-82406206D01*
X127471658Y-82368913D01*
X127500500Y-82223918D01*
X127500500Y-80261230D01*
X127520185Y-80194191D01*
X127572989Y-80148436D01*
X127642147Y-80138492D01*
X127705703Y-80167517D01*
X127712181Y-80173549D01*
X128621584Y-81082952D01*
X128621590Y-81082957D01*
X128662339Y-81110183D01*
X128670810Y-81115843D01*
X128677028Y-81119997D01*
X128677031Y-81120000D01*
X128677032Y-81120000D01*
X128744505Y-81165084D01*
X128744507Y-81165085D01*
X128744511Y-81165087D01*
X128871845Y-81217830D01*
X128881087Y-81221658D01*
X128881091Y-81221658D01*
X128881092Y-81221659D01*
X129026079Y-81250500D01*
X129026082Y-81250500D01*
X129026083Y-81250500D01*
X129173917Y-81250500D01*
X130660663Y-81250500D01*
X130727702Y-81270185D01*
X130733548Y-81274182D01*
X130747265Y-81284148D01*
X130747270Y-81284151D01*
X130920192Y-81361142D01*
X130920197Y-81361144D01*
X131105354Y-81400500D01*
X131105355Y-81400500D01*
X131294644Y-81400500D01*
X131294646Y-81400500D01*
X131479803Y-81361144D01*
X131652730Y-81284151D01*
X131805871Y-81172888D01*
X131932533Y-81032216D01*
X132027179Y-80868284D01*
X132085674Y-80688256D01*
X132105460Y-80500000D01*
X132085674Y-80311744D01*
X132027179Y-80131716D01*
X131932533Y-79967784D01*
X131805871Y-79827112D01*
X131805870Y-79827111D01*
X131652734Y-79715851D01*
X131652729Y-79715848D01*
X131479807Y-79638857D01*
X131479802Y-79638855D01*
X131334001Y-79607865D01*
X131294646Y-79599500D01*
X131105354Y-79599500D01*
X131072897Y-79606398D01*
X130920197Y-79638855D01*
X130920192Y-79638857D01*
X130747270Y-79715848D01*
X130747265Y-79715851D01*
X130733548Y-79725818D01*
X130667742Y-79749298D01*
X130660663Y-79749500D01*
X129462230Y-79749500D01*
X129395191Y-79729815D01*
X129374549Y-79713181D01*
X129023549Y-79362181D01*
X128990064Y-79300858D01*
X128995048Y-79231166D01*
X129036920Y-79175233D01*
X129102384Y-79150816D01*
X129111230Y-79150500D01*
X136137770Y-79150500D01*
X136204809Y-79170185D01*
X136225451Y-79186819D01*
X140521586Y-83482954D01*
X140533702Y-83491049D01*
X140595270Y-83532186D01*
X140644505Y-83565084D01*
X140644506Y-83565084D01*
X140644507Y-83565085D01*
X140644509Y-83565086D01*
X140768381Y-83616395D01*
X140781087Y-83621658D01*
X140781091Y-83621658D01*
X140781092Y-83621659D01*
X140926079Y-83650500D01*
X140926082Y-83650500D01*
X146073920Y-83650500D01*
X146171462Y-83631096D01*
X146218913Y-83621658D01*
X146355495Y-83565084D01*
X146404729Y-83532186D01*
X146404734Y-83532183D01*
X146429071Y-83515921D01*
X146478416Y-83482952D01*
X148358526Y-81602839D01*
X148419847Y-81569356D01*
X148489538Y-81574340D01*
X148545472Y-81616211D01*
X148558587Y-81638118D01*
X148612464Y-81753658D01*
X148612468Y-81753666D01*
X148739170Y-81934615D01*
X148739175Y-81934621D01*
X148895378Y-82090824D01*
X148895384Y-82090829D01*
X149076333Y-82217531D01*
X149076335Y-82217532D01*
X149076338Y-82217534D01*
X149195748Y-82273215D01*
X149205189Y-82277618D01*
X149257628Y-82323790D01*
X149276780Y-82390984D01*
X149256564Y-82457865D01*
X149205189Y-82502382D01*
X149076340Y-82562465D01*
X149076338Y-82562466D01*
X148895377Y-82689175D01*
X148739175Y-82845377D01*
X148612466Y-83026338D01*
X148612465Y-83026340D01*
X148519107Y-83226548D01*
X148519104Y-83226554D01*
X148461930Y-83439929D01*
X148461929Y-83439937D01*
X148442677Y-83659997D01*
X148442677Y-83660002D01*
X148461929Y-83880062D01*
X148461930Y-83880070D01*
X148519104Y-84093445D01*
X148519105Y-84093447D01*
X148519106Y-84093450D01*
X148581697Y-84227677D01*
X148612466Y-84293662D01*
X148612468Y-84293666D01*
X148739170Y-84474615D01*
X148739175Y-84474621D01*
X148895378Y-84630824D01*
X148895384Y-84630829D01*
X149076333Y-84757531D01*
X149076335Y-84757532D01*
X149076338Y-84757534D01*
X149165550Y-84799134D01*
X149205189Y-84817618D01*
X149257628Y-84863790D01*
X149276780Y-84930984D01*
X149256564Y-84997865D01*
X149205189Y-85042382D01*
X149076340Y-85102465D01*
X149076338Y-85102466D01*
X148895377Y-85229175D01*
X148739175Y-85385377D01*
X148612466Y-85566338D01*
X148612465Y-85566340D01*
X148519107Y-85766548D01*
X148519104Y-85766554D01*
X148461930Y-85979929D01*
X148461929Y-85979937D01*
X148442677Y-86199997D01*
X148442677Y-86200002D01*
X148461929Y-86420062D01*
X148461930Y-86420070D01*
X148519104Y-86633445D01*
X148519105Y-86633447D01*
X148519106Y-86633450D01*
X148608808Y-86825818D01*
X148612466Y-86833662D01*
X148612468Y-86833666D01*
X148739170Y-87014615D01*
X148739175Y-87014621D01*
X148895378Y-87170824D01*
X148895384Y-87170829D01*
X149076333Y-87297531D01*
X149076335Y-87297532D01*
X149076338Y-87297534D01*
X149106812Y-87311744D01*
X149205189Y-87357618D01*
X149257628Y-87403790D01*
X149276780Y-87470984D01*
X149256564Y-87537865D01*
X149205189Y-87582382D01*
X149076340Y-87642465D01*
X149076338Y-87642466D01*
X148895377Y-87769175D01*
X148739175Y-87925377D01*
X148612466Y-88106338D01*
X148612465Y-88106340D01*
X148519107Y-88306548D01*
X148519104Y-88306554D01*
X148461930Y-88519929D01*
X148461929Y-88519937D01*
X148442677Y-88739997D01*
X148442677Y-88740002D01*
X148461929Y-88960062D01*
X148461930Y-88960070D01*
X148519104Y-89173445D01*
X148519105Y-89173447D01*
X148519106Y-89173450D01*
X148609725Y-89367784D01*
X148612466Y-89373662D01*
X148612468Y-89373666D01*
X148739170Y-89554615D01*
X148739175Y-89554621D01*
X148895378Y-89710824D01*
X148895384Y-89710829D01*
X149076333Y-89837531D01*
X149076335Y-89837532D01*
X149076338Y-89837534D01*
X149276550Y-89930894D01*
X149489932Y-89988070D01*
X149647123Y-90001822D01*
X149709998Y-90007323D01*
X149710000Y-90007323D01*
X149710002Y-90007323D01*
X149765017Y-90002509D01*
X149930068Y-89988070D01*
X150143450Y-89930894D01*
X150343662Y-89837534D01*
X150524620Y-89710826D01*
X150680826Y-89554620D01*
X150807534Y-89373662D01*
X150900894Y-89173450D01*
X150958070Y-88960068D01*
X150973025Y-88789132D01*
X150977323Y-88740002D01*
X150977323Y-88739997D01*
X150961199Y-88555703D01*
X150958070Y-88519932D01*
X150900894Y-88306550D01*
X150807534Y-88106339D01*
X150680826Y-87925380D01*
X150524620Y-87769174D01*
X150524616Y-87769171D01*
X150524615Y-87769170D01*
X150343666Y-87642468D01*
X150343658Y-87642464D01*
X150214811Y-87582382D01*
X150162371Y-87536210D01*
X150143219Y-87469017D01*
X150163435Y-87402135D01*
X150214811Y-87357618D01*
X150231148Y-87350000D01*
X150343662Y-87297534D01*
X150524620Y-87170826D01*
X150680826Y-87014620D01*
X150807534Y-86833662D01*
X150900894Y-86633450D01*
X150958070Y-86420068D01*
X150977323Y-86200000D01*
X150958070Y-85979932D01*
X150900894Y-85766550D01*
X150807534Y-85566339D01*
X150680826Y-85385380D01*
X150524620Y-85229174D01*
X150524616Y-85229171D01*
X150524615Y-85229170D01*
X150343666Y-85102468D01*
X150343658Y-85102464D01*
X150214811Y-85042382D01*
X150162371Y-84996210D01*
X150143219Y-84929017D01*
X150163435Y-84862135D01*
X150214811Y-84817618D01*
X150254450Y-84799134D01*
X150343662Y-84757534D01*
X150524620Y-84630826D01*
X150680826Y-84474620D01*
X150807534Y-84293662D01*
X150900894Y-84093450D01*
X150958070Y-83880068D01*
X150977323Y-83660000D01*
X150974937Y-83632731D01*
X150967505Y-83547781D01*
X150958070Y-83439932D01*
X150900894Y-83226550D01*
X150807534Y-83026339D01*
X150680826Y-82845380D01*
X150524620Y-82689174D01*
X150524616Y-82689171D01*
X150524615Y-82689170D01*
X150343666Y-82562468D01*
X150343658Y-82562464D01*
X150214811Y-82502382D01*
X150162371Y-82456210D01*
X150143219Y-82389017D01*
X150163435Y-82322135D01*
X150214811Y-82277618D01*
X150221017Y-82274724D01*
X150343662Y-82217534D01*
X150524620Y-82090826D01*
X150680826Y-81934620D01*
X150807534Y-81753662D01*
X150900894Y-81553450D01*
X150958070Y-81340068D01*
X150977323Y-81120000D01*
X150976959Y-81115843D01*
X150967144Y-81003655D01*
X150958070Y-80899932D01*
X150900894Y-80686550D01*
X150807534Y-80486339D01*
X150779023Y-80445621D01*
X150756697Y-80379417D01*
X150773707Y-80311650D01*
X150824655Y-80263837D01*
X150880599Y-80250500D01*
X162967770Y-80250500D01*
X163034809Y-80270185D01*
X163055451Y-80286819D01*
X166198358Y-83429726D01*
X166231843Y-83491049D01*
X166234205Y-83528213D01*
X166222677Y-83659997D01*
X166222677Y-83660002D01*
X166241929Y-83880062D01*
X166241930Y-83880070D01*
X166299104Y-84093445D01*
X166299105Y-84093447D01*
X166299106Y-84093450D01*
X166361697Y-84227677D01*
X166392466Y-84293662D01*
X166392468Y-84293666D01*
X166519170Y-84474615D01*
X166519175Y-84474621D01*
X166675378Y-84630824D01*
X166675384Y-84630829D01*
X166856333Y-84757531D01*
X166856335Y-84757532D01*
X166856338Y-84757534D01*
X166945550Y-84799134D01*
X166985781Y-84817894D01*
X167038220Y-84864066D01*
X167057372Y-84931260D01*
X167037156Y-84998141D01*
X166985781Y-85042658D01*
X166856590Y-85102901D01*
X166791811Y-85148258D01*
X167462553Y-85819000D01*
X167439840Y-85819000D01*
X167342939Y-85844964D01*
X167256060Y-85895124D01*
X167185124Y-85966060D01*
X167134964Y-86052939D01*
X167109000Y-86149840D01*
X167109000Y-86172552D01*
X166438258Y-85501811D01*
X166392901Y-85566590D01*
X166299579Y-85766720D01*
X166299575Y-85766729D01*
X166242426Y-85980013D01*
X166242424Y-85980023D01*
X166223179Y-86199999D01*
X166223179Y-86200000D01*
X166242424Y-86419976D01*
X166242426Y-86419986D01*
X166299575Y-86633270D01*
X166299580Y-86633284D01*
X166392898Y-86833405D01*
X166392901Y-86833411D01*
X166438258Y-86898187D01*
X166438259Y-86898188D01*
X167109000Y-86227447D01*
X167109000Y-86250160D01*
X167134964Y-86347061D01*
X167185124Y-86433940D01*
X167256060Y-86504876D01*
X167342939Y-86555036D01*
X167439840Y-86581000D01*
X167462553Y-86581000D01*
X166791810Y-87251740D01*
X166856589Y-87297098D01*
X166985781Y-87357342D01*
X167038220Y-87403514D01*
X167057372Y-87470708D01*
X167037156Y-87537589D01*
X166985781Y-87582106D01*
X166856340Y-87642465D01*
X166856338Y-87642466D01*
X166675377Y-87769175D01*
X166519175Y-87925377D01*
X166392466Y-88106338D01*
X166392465Y-88106340D01*
X166299107Y-88306548D01*
X166299104Y-88306554D01*
X166241930Y-88519929D01*
X166241929Y-88519937D01*
X166222677Y-88739997D01*
X166222677Y-88740002D01*
X166241929Y-88960062D01*
X166241930Y-88960070D01*
X166299104Y-89173445D01*
X166299105Y-89173447D01*
X166299106Y-89173450D01*
X166389725Y-89367784D01*
X166392466Y-89373662D01*
X166392468Y-89373666D01*
X166519170Y-89554615D01*
X166519175Y-89554621D01*
X166675378Y-89710824D01*
X166675384Y-89710829D01*
X166856333Y-89837531D01*
X166856335Y-89837532D01*
X166856338Y-89837534D01*
X166975748Y-89893215D01*
X166985189Y-89897618D01*
X167037628Y-89943790D01*
X167056780Y-90010984D01*
X167036564Y-90077865D01*
X166985189Y-90122382D01*
X166856340Y-90182465D01*
X166856338Y-90182466D01*
X166675377Y-90309175D01*
X166519173Y-90465379D01*
X166511300Y-90476624D01*
X166456723Y-90520249D01*
X166409726Y-90529500D01*
X165932561Y-90529500D01*
X165865522Y-90509815D01*
X165819767Y-90457011D01*
X165809823Y-90387853D01*
X165829963Y-90338236D01*
X165829284Y-90337844D01*
X165832110Y-90332948D01*
X165832249Y-90332607D01*
X165832525Y-90332224D01*
X165832533Y-90332216D01*
X165927179Y-90168284D01*
X165985674Y-89988256D01*
X166005460Y-89800000D01*
X165985674Y-89611744D01*
X165927179Y-89431716D01*
X165832533Y-89267784D01*
X165705871Y-89127112D01*
X165690369Y-89115849D01*
X165552734Y-89015851D01*
X165552729Y-89015848D01*
X165379807Y-88938857D01*
X165379802Y-88938855D01*
X165228120Y-88906615D01*
X165194646Y-88899500D01*
X165005354Y-88899500D01*
X164972897Y-88906398D01*
X164820197Y-88938855D01*
X164820192Y-88938857D01*
X164647270Y-89015848D01*
X164647265Y-89015851D01*
X164633548Y-89025818D01*
X164567742Y-89049298D01*
X164560663Y-89049500D01*
X162953958Y-89049500D01*
X162886919Y-89029815D01*
X162848420Y-88990598D01*
X162842712Y-88981344D01*
X162749049Y-88887681D01*
X162715564Y-88826358D01*
X162720548Y-88756666D01*
X162749049Y-88712319D01*
X162842712Y-88618656D01*
X162934814Y-88469334D01*
X162969885Y-88363495D01*
X163009658Y-88306051D01*
X163074174Y-88279228D01*
X163087591Y-88278500D01*
X164608221Y-88278500D01*
X164658657Y-88289221D01*
X164820192Y-88361142D01*
X164820197Y-88361144D01*
X165005354Y-88400500D01*
X165005355Y-88400500D01*
X165194644Y-88400500D01*
X165194646Y-88400500D01*
X165379803Y-88361144D01*
X165552730Y-88284151D01*
X165705871Y-88172888D01*
X165832533Y-88032216D01*
X165927179Y-87868284D01*
X165985674Y-87688256D01*
X166005460Y-87500000D01*
X165985674Y-87311744D01*
X165927179Y-87131716D01*
X165832533Y-86967784D01*
X165705871Y-86827112D01*
X165704090Y-86825818D01*
X165552734Y-86715851D01*
X165552729Y-86715848D01*
X165379807Y-86638857D01*
X165379802Y-86638855D01*
X165234001Y-86607865D01*
X165194646Y-86599500D01*
X165005354Y-86599500D01*
X164972897Y-86606398D01*
X164820197Y-86638855D01*
X164820192Y-86638857D01*
X164647270Y-86715848D01*
X164647265Y-86715851D01*
X164595009Y-86753818D01*
X164529203Y-86777298D01*
X164522124Y-86777500D01*
X162623231Y-86777500D01*
X162576308Y-86767097D01*
X162576189Y-86767458D01*
X162572664Y-86766290D01*
X162570828Y-86765883D01*
X162569334Y-86765186D01*
X162569331Y-86765185D01*
X162402797Y-86710001D01*
X162402795Y-86710000D01*
X162300010Y-86699500D01*
X161299998Y-86699500D01*
X161299980Y-86699501D01*
X161197203Y-86710000D01*
X161197200Y-86710001D01*
X161030668Y-86765185D01*
X161030663Y-86765187D01*
X160881342Y-86857289D01*
X160757289Y-86981342D01*
X160665187Y-87130663D01*
X160665185Y-87130668D01*
X160654179Y-87163883D01*
X160610001Y-87297203D01*
X160610001Y-87297204D01*
X160610000Y-87297204D01*
X160599500Y-87399983D01*
X160599500Y-88200001D01*
X160599501Y-88200019D01*
X160610000Y-88302796D01*
X160610001Y-88302799D01*
X160653036Y-88432667D01*
X160665186Y-88469334D01*
X160753022Y-88611740D01*
X160757289Y-88618657D01*
X160850951Y-88712319D01*
X160884436Y-88773642D01*
X160879452Y-88843334D01*
X160850951Y-88887681D01*
X160757289Y-88981342D01*
X160665187Y-89130663D01*
X160665185Y-89130668D01*
X160651010Y-89173445D01*
X160610001Y-89297203D01*
X160610001Y-89297204D01*
X160610000Y-89297204D01*
X160599500Y-89399983D01*
X160599500Y-90200001D01*
X160599501Y-90200019D01*
X160610000Y-90302796D01*
X160610001Y-90302799D01*
X160652886Y-90432216D01*
X160665186Y-90469334D01*
X160757288Y-90618656D01*
X160881344Y-90742712D01*
X160881346Y-90742713D01*
X160887008Y-90747190D01*
X160886084Y-90748358D01*
X160927308Y-90794189D01*
X160938531Y-90863151D01*
X160910688Y-90927233D01*
X160903168Y-90935462D01*
X160547229Y-91291402D01*
X160485906Y-91324887D01*
X160485330Y-91325011D01*
X160420196Y-91338856D01*
X160420192Y-91338857D01*
X160247270Y-91415848D01*
X160247265Y-91415851D01*
X160094129Y-91527111D01*
X159967466Y-91667785D01*
X159872821Y-91831715D01*
X159872818Y-91831722D01*
X159814327Y-92011740D01*
X159814326Y-92011744D01*
X159794540Y-92200000D01*
X159814326Y-92388256D01*
X159814327Y-92388259D01*
X159872818Y-92568277D01*
X159872821Y-92568284D01*
X159967467Y-92732216D01*
X160070488Y-92846632D01*
X160094129Y-92872888D01*
X160247265Y-92984148D01*
X160247270Y-92984151D01*
X160420192Y-93061142D01*
X160420197Y-93061144D01*
X160605354Y-93100500D01*
X160605355Y-93100500D01*
X160794644Y-93100500D01*
X160794646Y-93100500D01*
X160979803Y-93061144D01*
X161152730Y-92984151D01*
X161305871Y-92872888D01*
X161432533Y-92732216D01*
X161527179Y-92568284D01*
X161582522Y-92397955D01*
X161612769Y-92348597D01*
X161894548Y-92066819D01*
X161955871Y-92033334D01*
X161982229Y-92030500D01*
X166409726Y-92030500D01*
X166476765Y-92050185D01*
X166511300Y-92083376D01*
X166519171Y-92094617D01*
X166519173Y-92094619D01*
X166519174Y-92094620D01*
X166675380Y-92250826D01*
X166675383Y-92250828D01*
X166675384Y-92250829D01*
X166856333Y-92377531D01*
X166856335Y-92377532D01*
X166856338Y-92377534D01*
X167056550Y-92470894D01*
X167269932Y-92528070D01*
X167427123Y-92541822D01*
X167489998Y-92547323D01*
X167490000Y-92547323D01*
X167490001Y-92547323D01*
X167507521Y-92545790D01*
X167621784Y-92535793D01*
X167690283Y-92549559D01*
X167720272Y-92571640D01*
X171831580Y-96682948D01*
X171831584Y-96682951D01*
X171954498Y-96765080D01*
X171954511Y-96765087D01*
X172091082Y-96821656D01*
X172091087Y-96821658D01*
X172091091Y-96821658D01*
X172091092Y-96821659D01*
X172236079Y-96850500D01*
X172236082Y-96850500D01*
X181373920Y-96850500D01*
X181471462Y-96831096D01*
X181518913Y-96821658D01*
X181579372Y-96796614D01*
X181648840Y-96789146D01*
X181711319Y-96820421D01*
X181746972Y-96880510D01*
X181749191Y-96931237D01*
X181714525Y-97142685D01*
X181695153Y-97499997D01*
X181695153Y-97500002D01*
X181714526Y-97857314D01*
X181714527Y-97857331D01*
X181772415Y-98210431D01*
X181772421Y-98210457D01*
X181868147Y-98555232D01*
X181868149Y-98555239D01*
X182000597Y-98887659D01*
X182000606Y-98887677D01*
X182168218Y-99203827D01*
X182369024Y-99499994D01*
X182369028Y-99500000D01*
X182496441Y-99650002D01*
X182496442Y-99650002D01*
X183705747Y-98440697D01*
X183779588Y-98542330D01*
X183957670Y-98720412D01*
X184059300Y-98794251D01*
X182847257Y-100006294D01*
X182860495Y-100018836D01*
X183145367Y-100235388D01*
X183145370Y-100235390D01*
X183451990Y-100419876D01*
X183776739Y-100570122D01*
X183776744Y-100570123D01*
X184115855Y-100684383D01*
X184465339Y-100761311D01*
X184821075Y-100799999D01*
X184821085Y-100800000D01*
X185178915Y-100800000D01*
X185178924Y-100799999D01*
X185534660Y-100761311D01*
X185884144Y-100684383D01*
X186223255Y-100570123D01*
X186223260Y-100570122D01*
X186548009Y-100419876D01*
X186854629Y-100235390D01*
X186854632Y-100235388D01*
X187139509Y-100018831D01*
X187152742Y-100006295D01*
X187152742Y-100006294D01*
X185940699Y-98794251D01*
X186042330Y-98720412D01*
X186220412Y-98542330D01*
X186294251Y-98440698D01*
X187503556Y-99650002D01*
X187630972Y-99499998D01*
X187630975Y-99499994D01*
X187831781Y-99203827D01*
X187999393Y-98887677D01*
X187999402Y-98887659D01*
X188131850Y-98555239D01*
X188131852Y-98555232D01*
X188227578Y-98210457D01*
X188227584Y-98210431D01*
X188285472Y-97857331D01*
X188285473Y-97857314D01*
X188304847Y-97500002D01*
X188304847Y-97499997D01*
X188285473Y-97142685D01*
X188285472Y-97142668D01*
X188227584Y-96789568D01*
X188227578Y-96789542D01*
X188131852Y-96444767D01*
X188131850Y-96444760D01*
X187999402Y-96112340D01*
X187999393Y-96112322D01*
X187831781Y-95796172D01*
X187630975Y-95500005D01*
X187630964Y-95499991D01*
X187503556Y-95349996D01*
X186294251Y-96559301D01*
X186220412Y-96457670D01*
X186042330Y-96279588D01*
X185940698Y-96205748D01*
X187152742Y-94993704D01*
X187139504Y-94981163D01*
X186854632Y-94764611D01*
X186854629Y-94764609D01*
X186548009Y-94580123D01*
X186223260Y-94429877D01*
X186223255Y-94429876D01*
X185884144Y-94315616D01*
X185534660Y-94238688D01*
X185178924Y-94200000D01*
X184821075Y-94200000D01*
X184543186Y-94230222D01*
X184474412Y-94217901D01*
X184423216Y-94170353D01*
X184405854Y-94102675D01*
X184427837Y-94036354D01*
X184442093Y-94019274D01*
X185774549Y-92686819D01*
X185835872Y-92653334D01*
X185862230Y-92650500D01*
X186560663Y-92650500D01*
X186627702Y-92670185D01*
X186633548Y-92674182D01*
X186647265Y-92684148D01*
X186647270Y-92684151D01*
X186820192Y-92761142D01*
X186820197Y-92761144D01*
X187005354Y-92800500D01*
X187005355Y-92800500D01*
X187194644Y-92800500D01*
X187194646Y-92800500D01*
X187379803Y-92761144D01*
X187552730Y-92684151D01*
X187705871Y-92572888D01*
X187832533Y-92432216D01*
X187927179Y-92268284D01*
X187985674Y-92088256D01*
X188005460Y-91900000D01*
X187985674Y-91711744D01*
X187927179Y-91531716D01*
X187832533Y-91367784D01*
X187705871Y-91227112D01*
X187638745Y-91178342D01*
X187552734Y-91115851D01*
X187552729Y-91115848D01*
X187379807Y-91038857D01*
X187379802Y-91038855D01*
X187234001Y-91007865D01*
X187194646Y-90999500D01*
X187005354Y-90999500D01*
X186972897Y-91006398D01*
X186820197Y-91038855D01*
X186820192Y-91038857D01*
X186647270Y-91115848D01*
X186647265Y-91115851D01*
X186633548Y-91125818D01*
X186567742Y-91149298D01*
X186560663Y-91149500D01*
X185426080Y-91149500D01*
X185281092Y-91178340D01*
X185281086Y-91178342D01*
X185144508Y-91234914D01*
X185144496Y-91234921D01*
X185095269Y-91267813D01*
X185021588Y-91317044D01*
X185021580Y-91317050D01*
X184812181Y-91526450D01*
X184750858Y-91559935D01*
X184681166Y-91554951D01*
X184625233Y-91513079D01*
X184600816Y-91447615D01*
X184600500Y-91438769D01*
X184600500Y-65876079D01*
X184571659Y-65731092D01*
X184571658Y-65731091D01*
X184571658Y-65731087D01*
X184515084Y-65594505D01*
X184461939Y-65514967D01*
X184461939Y-65514966D01*
X184432950Y-65471581D01*
X173461371Y-54500002D01*
X181695153Y-54500002D01*
X181714526Y-54857314D01*
X181714527Y-54857331D01*
X181772415Y-55210431D01*
X181772421Y-55210457D01*
X181868147Y-55555232D01*
X181868149Y-55555239D01*
X182000597Y-55887659D01*
X182000606Y-55887677D01*
X182168218Y-56203827D01*
X182369024Y-56499994D01*
X182369035Y-56500008D01*
X182496441Y-56650002D01*
X182496442Y-56650002D01*
X183705747Y-55440697D01*
X183779588Y-55542330D01*
X183957670Y-55720412D01*
X184059300Y-55794251D01*
X182847257Y-57006294D01*
X182860495Y-57018836D01*
X183145367Y-57235388D01*
X183145370Y-57235390D01*
X183451990Y-57419876D01*
X183776739Y-57570122D01*
X183776744Y-57570123D01*
X184115855Y-57684383D01*
X184465339Y-57761311D01*
X184821075Y-57799999D01*
X184821085Y-57800000D01*
X185178915Y-57800000D01*
X185178924Y-57799999D01*
X185534660Y-57761311D01*
X185884144Y-57684383D01*
X186223255Y-57570123D01*
X186223260Y-57570122D01*
X186548009Y-57419876D01*
X186854629Y-57235390D01*
X186854632Y-57235388D01*
X187139509Y-57018831D01*
X187152742Y-57006295D01*
X187152742Y-57006294D01*
X185940699Y-55794251D01*
X186042330Y-55720412D01*
X186220412Y-55542330D01*
X186294251Y-55440698D01*
X187503556Y-56650002D01*
X187630972Y-56499998D01*
X187630975Y-56499994D01*
X187831781Y-56203827D01*
X187999393Y-55887677D01*
X187999402Y-55887659D01*
X188131850Y-55555239D01*
X188131852Y-55555232D01*
X188227578Y-55210457D01*
X188227584Y-55210431D01*
X188285472Y-54857331D01*
X188285473Y-54857314D01*
X188304847Y-54500002D01*
X188304847Y-54499997D01*
X188285473Y-54142685D01*
X188285472Y-54142668D01*
X188227584Y-53789568D01*
X188227578Y-53789542D01*
X188131852Y-53444767D01*
X188131850Y-53444760D01*
X187999402Y-53112340D01*
X187999393Y-53112322D01*
X187831781Y-52796172D01*
X187630975Y-52500005D01*
X187630964Y-52499991D01*
X187503556Y-52349996D01*
X186294251Y-53559301D01*
X186220412Y-53457670D01*
X186042330Y-53279588D01*
X185940698Y-53205748D01*
X187152742Y-51993704D01*
X187139504Y-51981163D01*
X186854632Y-51764611D01*
X186854629Y-51764609D01*
X186548009Y-51580123D01*
X186223260Y-51429877D01*
X186223255Y-51429876D01*
X185884144Y-51315616D01*
X185534660Y-51238688D01*
X185178924Y-51200000D01*
X184821075Y-51200000D01*
X184465339Y-51238688D01*
X184115855Y-51315616D01*
X183776744Y-51429876D01*
X183776739Y-51429877D01*
X183451990Y-51580123D01*
X183145370Y-51764609D01*
X183145367Y-51764611D01*
X182860486Y-51981170D01*
X182860485Y-51981171D01*
X182847257Y-51993702D01*
X182847256Y-51993703D01*
X184059301Y-53205748D01*
X183957670Y-53279588D01*
X183779588Y-53457670D01*
X183705748Y-53559301D01*
X182496442Y-52349995D01*
X182496441Y-52349996D01*
X182369033Y-52499992D01*
X182168218Y-52796172D01*
X182000606Y-53112322D01*
X182000597Y-53112340D01*
X181868149Y-53444760D01*
X181868147Y-53444767D01*
X181772421Y-53789542D01*
X181772415Y-53789568D01*
X181714527Y-54142668D01*
X181714526Y-54142685D01*
X181695153Y-54499997D01*
X181695153Y-54500002D01*
X173461371Y-54500002D01*
X169578421Y-50617052D01*
X169578414Y-50617046D01*
X169504729Y-50567812D01*
X169504729Y-50567813D01*
X169455491Y-50534913D01*
X169318917Y-50478343D01*
X169318907Y-50478340D01*
X169173920Y-50449500D01*
X169173918Y-50449500D01*
X158239337Y-50449500D01*
X158172298Y-50429815D01*
X158166452Y-50425818D01*
X158152734Y-50415851D01*
X158152729Y-50415848D01*
X157979807Y-50338857D01*
X157979802Y-50338855D01*
X157834001Y-50307865D01*
X157794646Y-50299500D01*
X157605354Y-50299500D01*
X157572897Y-50306398D01*
X157420197Y-50338855D01*
X157420192Y-50338857D01*
X157247270Y-50415848D01*
X157247265Y-50415851D01*
X157094129Y-50527111D01*
X156967466Y-50667785D01*
X156872821Y-50831715D01*
X156872818Y-50831722D01*
X156814327Y-51011740D01*
X156814326Y-51011744D01*
X156794540Y-51200000D01*
X156814326Y-51388256D01*
X156814327Y-51388259D01*
X156872818Y-51568277D01*
X156872821Y-51568284D01*
X156967467Y-51732216D01*
X157063487Y-51838857D01*
X157094129Y-51872888D01*
X157247265Y-51984148D01*
X157247270Y-51984151D01*
X157420192Y-52061142D01*
X157420197Y-52061144D01*
X157605354Y-52100500D01*
X157605355Y-52100500D01*
X157794644Y-52100500D01*
X157794646Y-52100500D01*
X157979803Y-52061144D01*
X158152730Y-51984151D01*
X158156843Y-51981163D01*
X158166452Y-51974182D01*
X158232258Y-51950702D01*
X158239337Y-51950500D01*
X168737770Y-51950500D01*
X168804809Y-51970185D01*
X168825451Y-51986819D01*
X182826451Y-65987819D01*
X182859936Y-66049142D01*
X182854952Y-66118834D01*
X182813080Y-66174767D01*
X182747616Y-66199184D01*
X182738770Y-66199500D01*
X182605354Y-66199500D01*
X182578613Y-66205184D01*
X182420197Y-66238855D01*
X182420192Y-66238857D01*
X182247270Y-66315848D01*
X182247265Y-66315851D01*
X182094129Y-66427111D01*
X181967466Y-66567785D01*
X181872821Y-66731715D01*
X181872818Y-66731722D01*
X181814327Y-66911740D01*
X181814326Y-66911744D01*
X181794540Y-67100000D01*
X181814326Y-67288256D01*
X181814327Y-67288259D01*
X181872818Y-67468277D01*
X181872821Y-67468284D01*
X181932887Y-67572321D01*
X181949500Y-67634321D01*
X181949500Y-68488770D01*
X181929815Y-68555809D01*
X181877011Y-68601564D01*
X181807853Y-68611508D01*
X181744297Y-68582483D01*
X181737819Y-68576451D01*
X168771638Y-55610270D01*
X168771359Y-55609990D01*
X168720245Y-55558550D01*
X168719399Y-55557855D01*
X168719094Y-55557603D01*
X168718445Y-55557067D01*
X168666217Y-55522171D01*
X168657969Y-55516660D01*
X168597615Y-55476053D01*
X168597611Y-55476051D01*
X168597572Y-55476025D01*
X168596898Y-55475665D01*
X168596482Y-55475442D01*
X168595548Y-55474938D01*
X168528788Y-55447285D01*
X168528427Y-55447134D01*
X168461181Y-55419030D01*
X168460229Y-55418741D01*
X168459892Y-55418638D01*
X168458952Y-55418349D01*
X168387863Y-55404208D01*
X168387479Y-55404131D01*
X168316259Y-55389729D01*
X168315135Y-55389619D01*
X168314749Y-55389581D01*
X168313953Y-55389500D01*
X168313917Y-55389500D01*
X168241156Y-55389500D01*
X168240760Y-55389499D01*
X156241313Y-55351222D01*
X156174337Y-55331324D01*
X156168825Y-55327542D01*
X156152733Y-55315851D01*
X156152729Y-55315848D01*
X155979807Y-55238857D01*
X155979802Y-55238855D01*
X155828397Y-55206674D01*
X155794646Y-55199500D01*
X155605354Y-55199500D01*
X155572897Y-55206398D01*
X155420197Y-55238855D01*
X155420192Y-55238857D01*
X155247270Y-55315848D01*
X155247265Y-55315851D01*
X155094129Y-55427111D01*
X155094128Y-55427112D01*
X155037184Y-55490355D01*
X154977698Y-55527003D01*
X154907841Y-55525672D01*
X154849793Y-55486785D01*
X154843460Y-55478505D01*
X154738496Y-55328600D01*
X154694044Y-55284148D01*
X154616567Y-55206671D01*
X154583084Y-55145351D01*
X154588068Y-55075659D01*
X154629939Y-55019725D01*
X154660915Y-55002810D01*
X154792331Y-54953796D01*
X154907546Y-54867546D01*
X154993796Y-54752331D01*
X155044091Y-54617483D01*
X155050500Y-54557873D01*
X155050499Y-53845983D01*
X155070183Y-53778946D01*
X155122987Y-53733191D01*
X155192146Y-53723247D01*
X155255702Y-53752272D01*
X155281885Y-53783984D01*
X155367467Y-53932216D01*
X155399493Y-53967784D01*
X155494129Y-54072888D01*
X155647265Y-54184148D01*
X155647270Y-54184151D01*
X155820192Y-54261142D01*
X155820197Y-54261144D01*
X156005354Y-54300500D01*
X156005355Y-54300500D01*
X156194644Y-54300500D01*
X156194646Y-54300500D01*
X156379803Y-54261144D01*
X156552730Y-54184151D01*
X156705871Y-54072888D01*
X156832533Y-53932216D01*
X156927179Y-53768284D01*
X156985674Y-53588256D01*
X157005460Y-53400000D01*
X156985674Y-53211744D01*
X156927179Y-53031716D01*
X156832533Y-52867784D01*
X156705871Y-52727112D01*
X156685813Y-52712539D01*
X156552734Y-52615851D01*
X156552729Y-52615848D01*
X156379807Y-52538857D01*
X156379802Y-52538855D01*
X156238474Y-52508815D01*
X156176992Y-52475622D01*
X156176574Y-52475206D01*
X155418421Y-51717052D01*
X155418414Y-51717046D01*
X155344729Y-51667812D01*
X155344729Y-51667813D01*
X155295491Y-51634913D01*
X155158917Y-51578343D01*
X155158907Y-51578340D01*
X155013920Y-51549500D01*
X155013918Y-51549500D01*
X152446082Y-51549500D01*
X152446080Y-51549500D01*
X152301092Y-51578340D01*
X152301082Y-51578343D01*
X152164511Y-51634912D01*
X152164498Y-51634919D01*
X152041584Y-51717048D01*
X152041580Y-51717051D01*
X151471501Y-52287130D01*
X151410178Y-52320615D01*
X151373013Y-52322977D01*
X151160002Y-52304341D01*
X151159999Y-52304341D01*
X150924596Y-52324936D01*
X150924586Y-52324938D01*
X150696344Y-52386094D01*
X150696335Y-52386098D01*
X150482171Y-52485964D01*
X150482169Y-52485965D01*
X150288597Y-52621505D01*
X150121504Y-52788598D01*
X150115885Y-52796624D01*
X150061308Y-52840249D01*
X150014311Y-52849500D01*
X147927463Y-52849500D01*
X147860424Y-52829815D01*
X147814669Y-52777011D01*
X147804142Y-52712539D01*
X147805460Y-52700000D01*
X147785674Y-52511744D01*
X147727179Y-52331716D01*
X147632533Y-52167784D01*
X147505871Y-52027112D01*
X147505870Y-52027111D01*
X147352734Y-51915851D01*
X147352729Y-51915848D01*
X147179807Y-51838857D01*
X147179802Y-51838855D01*
X147034001Y-51807865D01*
X146994646Y-51799500D01*
X146805354Y-51799500D01*
X146772897Y-51806398D01*
X146620197Y-51838855D01*
X146620192Y-51838857D01*
X146447270Y-51915848D01*
X146447265Y-51915851D01*
X146364729Y-51975818D01*
X146298923Y-51999298D01*
X146291844Y-51999500D01*
X130773994Y-51999500D01*
X130745160Y-52005234D01*
X130745161Y-52005235D01*
X130629011Y-52028339D01*
X130629007Y-52028340D01*
X130549814Y-52061144D01*
X130492427Y-52084914D01*
X130492419Y-52084918D01*
X130410290Y-52139795D01*
X130369503Y-52167047D01*
X130369499Y-52167050D01*
X116917050Y-65619498D01*
X116917044Y-65619506D01*
X116867812Y-65693186D01*
X116867813Y-65693187D01*
X116834921Y-65742414D01*
X116834914Y-65742426D01*
X116778342Y-65879004D01*
X116778340Y-65879010D01*
X116749500Y-66023997D01*
X116749500Y-66024000D01*
X116749500Y-69073916D01*
X116749500Y-69073918D01*
X116749499Y-69073918D01*
X116778340Y-69218905D01*
X116778343Y-69218915D01*
X116834914Y-69355490D01*
X116834915Y-69355492D01*
X116834916Y-69355493D01*
X116856809Y-69388259D01*
X116867812Y-69404725D01*
X116867813Y-69404728D01*
X116917046Y-69478412D01*
X116917052Y-69478419D01*
X118237230Y-70798595D01*
X118267480Y-70847958D01*
X118322820Y-71018277D01*
X118322823Y-71018284D01*
X118417469Y-71182216D01*
X118544131Y-71322888D01*
X118697267Y-71434148D01*
X118697272Y-71434151D01*
X118870194Y-71511142D01*
X118870199Y-71511144D01*
X119055356Y-71550500D01*
X119055357Y-71550500D01*
X119244646Y-71550500D01*
X119244648Y-71550500D01*
X119429805Y-71511144D01*
X119602732Y-71434151D01*
X119702616Y-71361581D01*
X119768421Y-71338102D01*
X119836475Y-71353927D01*
X119885170Y-71404033D01*
X119899500Y-71461900D01*
X119899500Y-72221836D01*
X119899500Y-72221838D01*
X119899499Y-72221838D01*
X119928340Y-72366825D01*
X119928343Y-72366835D01*
X119984914Y-72503410D01*
X120017812Y-72552645D01*
X120017813Y-72552648D01*
X120067046Y-72626332D01*
X120067052Y-72626339D01*
X121621452Y-74180737D01*
X122139130Y-74698415D01*
X122139131Y-74698416D01*
X122202945Y-74762230D01*
X122243667Y-74802952D01*
X122366580Y-74885080D01*
X122366593Y-74885087D01*
X122503164Y-74941656D01*
X122503169Y-74941658D01*
X122503173Y-74941658D01*
X122503174Y-74941659D01*
X122648161Y-74970500D01*
X122648164Y-74970500D01*
X122838285Y-74970500D01*
X122905324Y-74990185D01*
X122951079Y-75042989D01*
X122961023Y-75112147D01*
X122956216Y-75132818D01*
X122917082Y-75253260D01*
X122914326Y-75261741D01*
X122907256Y-75329011D01*
X122894540Y-75449999D01*
X122894540Y-75450884D01*
X122894395Y-75451376D01*
X122893861Y-75456460D01*
X122892931Y-75456362D01*
X122874855Y-75517923D01*
X122822051Y-75563678D01*
X122796323Y-75572174D01*
X122720194Y-75588356D01*
X122720192Y-75588357D01*
X122547270Y-75665348D01*
X122547265Y-75665351D01*
X122394129Y-75776611D01*
X122267466Y-75917285D01*
X122172821Y-76081215D01*
X122172818Y-76081222D01*
X122143278Y-76172138D01*
X122114326Y-76261244D01*
X122094540Y-76449500D01*
X122114326Y-76637756D01*
X122114327Y-76637759D01*
X122172818Y-76817777D01*
X122172821Y-76817784D01*
X122267467Y-76981716D01*
X122389319Y-77117046D01*
X122394129Y-77122388D01*
X122543480Y-77230898D01*
X122547270Y-77233651D01*
X122547274Y-77233652D01*
X122548488Y-77234354D01*
X122549054Y-77234948D01*
X122552527Y-77237471D01*
X122552065Y-77238106D01*
X122596704Y-77284920D01*
X122609928Y-77353527D01*
X122609810Y-77354702D01*
X122594540Y-77499999D01*
X122594540Y-77500000D01*
X122614326Y-77688256D01*
X122614327Y-77688259D01*
X122672818Y-77868277D01*
X122672821Y-77868284D01*
X122717885Y-77946338D01*
X122732887Y-77972321D01*
X122749500Y-78034321D01*
X122749500Y-79837769D01*
X122729815Y-79904808D01*
X122713181Y-79925450D01*
X120847228Y-81791402D01*
X120785905Y-81824887D01*
X120785329Y-81825011D01*
X120720196Y-81838856D01*
X120720192Y-81838857D01*
X120547270Y-81915848D01*
X120547268Y-81915850D01*
X120394129Y-82027111D01*
X120267466Y-82167785D01*
X120172821Y-82331715D01*
X120172818Y-82331722D01*
X120115848Y-82507060D01*
X120114326Y-82511744D01*
X120094540Y-82700000D01*
X120114326Y-82888256D01*
X120114327Y-82888259D01*
X120172818Y-83068277D01*
X120172821Y-83068284D01*
X120267466Y-83232215D01*
X120350308Y-83324221D01*
X120380538Y-83387213D01*
X120371912Y-83456548D01*
X120345839Y-83494874D01*
X106957047Y-96883666D01*
X106957043Y-96883671D01*
X106918301Y-96941656D01*
X106918300Y-96941658D01*
X106874914Y-97006589D01*
X106818343Y-97143164D01*
X106818340Y-97143174D01*
X106789500Y-97288161D01*
X106789500Y-98812298D01*
X106769815Y-98879337D01*
X106736625Y-98913872D01*
X106668595Y-98961507D01*
X106501505Y-99128597D01*
X106371575Y-99314158D01*
X106316998Y-99357783D01*
X106247500Y-99364977D01*
X106185145Y-99333454D01*
X106168425Y-99314158D01*
X106038494Y-99128597D01*
X105871402Y-98961506D01*
X105871395Y-98961501D01*
X105677834Y-98825967D01*
X105677830Y-98825965D01*
X105648521Y-98812298D01*
X105463663Y-98726097D01*
X105463659Y-98726096D01*
X105463655Y-98726094D01*
X105235413Y-98664938D01*
X105235403Y-98664936D01*
X105000001Y-98644341D01*
X104999999Y-98644341D01*
X104764596Y-98664936D01*
X104764586Y-98664938D01*
X104536344Y-98726094D01*
X104536335Y-98726098D01*
X104322171Y-98825964D01*
X104322169Y-98825965D01*
X104128600Y-98961503D01*
X104006673Y-99083430D01*
X103945350Y-99116914D01*
X103875658Y-99111930D01*
X103819725Y-99070058D01*
X103802810Y-99039081D01*
X103753797Y-98907671D01*
X103753793Y-98907664D01*
X103667547Y-98792455D01*
X103667544Y-98792452D01*
X103552335Y-98706206D01*
X103552328Y-98706202D01*
X103417482Y-98655908D01*
X103417483Y-98655908D01*
X103357883Y-98649501D01*
X103357881Y-98649500D01*
X103357873Y-98649500D01*
X103357864Y-98649500D01*
X101562129Y-98649500D01*
X101562123Y-98649501D01*
X101502516Y-98655908D01*
X101367671Y-98706202D01*
X101367664Y-98706206D01*
X101252455Y-98792452D01*
X101252452Y-98792455D01*
X101166206Y-98907664D01*
X101166202Y-98907671D01*
X101115908Y-99042517D01*
X101109501Y-99102116D01*
X101109500Y-99102135D01*
X101109500Y-100897870D01*
X91330167Y-100897870D01*
X91315692Y-100883395D01*
X91308383Y-100875420D01*
X91305006Y-100871396D01*
X91034821Y-100549401D01*
X91028237Y-100540820D01*
X90974212Y-100463664D01*
X90784132Y-100192203D01*
X90778323Y-100183083D01*
X90710823Y-100066170D01*
X90565538Y-99814528D01*
X90560545Y-99804937D01*
X90541729Y-99764586D01*
X90380683Y-99419221D01*
X90376555Y-99409255D01*
X90230992Y-99009322D01*
X90227747Y-98999033D01*
X90117590Y-98587921D01*
X90115256Y-98577393D01*
X90041354Y-98158270D01*
X90039943Y-98147549D01*
X90034121Y-98081004D01*
X90002792Y-97722915D01*
X90002328Y-97713471D01*
X90001972Y-97680872D01*
X90000007Y-97500641D01*
X90000004Y-97500002D01*
X91695153Y-97500002D01*
X91714526Y-97857314D01*
X91714527Y-97857331D01*
X91772415Y-98210431D01*
X91772421Y-98210457D01*
X91868147Y-98555232D01*
X91868149Y-98555239D01*
X92000597Y-98887659D01*
X92000606Y-98887677D01*
X92168218Y-99203827D01*
X92369024Y-99499994D01*
X92369028Y-99500000D01*
X92496441Y-99650002D01*
X92496442Y-99650002D01*
X93705747Y-98440697D01*
X93779588Y-98542330D01*
X93957670Y-98720412D01*
X94059300Y-98794251D01*
X92847257Y-100006294D01*
X92860495Y-100018836D01*
X93145367Y-100235388D01*
X93145370Y-100235390D01*
X93451990Y-100419876D01*
X93776739Y-100570122D01*
X93776744Y-100570123D01*
X94115855Y-100684383D01*
X94465339Y-100761311D01*
X94821075Y-100799999D01*
X94821085Y-100800000D01*
X95178915Y-100800000D01*
X95178924Y-100799999D01*
X95534660Y-100761311D01*
X95884144Y-100684383D01*
X96223255Y-100570123D01*
X96223260Y-100570122D01*
X96548009Y-100419876D01*
X96854629Y-100235390D01*
X96854632Y-100235388D01*
X97139509Y-100018831D01*
X97152742Y-100006295D01*
X97152742Y-100006294D01*
X95940699Y-98794251D01*
X96042330Y-98720412D01*
X96220412Y-98542330D01*
X96294251Y-98440698D01*
X97503556Y-99650002D01*
X97630972Y-99499998D01*
X97630975Y-99499994D01*
X97831781Y-99203827D01*
X97999393Y-98887677D01*
X97999402Y-98887659D01*
X98131850Y-98555239D01*
X98131852Y-98555232D01*
X98227578Y-98210457D01*
X98227584Y-98210431D01*
X98285472Y-97857331D01*
X98285473Y-97857314D01*
X98304847Y-97500002D01*
X98304847Y-97499997D01*
X98285473Y-97142685D01*
X98285472Y-97142668D01*
X98227584Y-96789568D01*
X98227578Y-96789542D01*
X98131852Y-96444767D01*
X98131850Y-96444760D01*
X97999402Y-96112340D01*
X97999393Y-96112322D01*
X97831781Y-95796172D01*
X97630975Y-95500005D01*
X97630964Y-95499991D01*
X97503556Y-95349996D01*
X96294251Y-96559301D01*
X96220412Y-96457670D01*
X96042330Y-96279588D01*
X95940698Y-96205748D01*
X97152742Y-94993704D01*
X97139504Y-94981163D01*
X96854632Y-94764611D01*
X96854629Y-94764609D01*
X96548009Y-94580123D01*
X96223260Y-94429877D01*
X96223255Y-94429876D01*
X95884144Y-94315616D01*
X95534660Y-94238688D01*
X95178924Y-94200000D01*
X94821075Y-94200000D01*
X94465339Y-94238688D01*
X94115855Y-94315616D01*
X93776744Y-94429876D01*
X93776739Y-94429877D01*
X93451990Y-94580123D01*
X93145370Y-94764609D01*
X93145367Y-94764611D01*
X92860486Y-94981170D01*
X92860485Y-94981171D01*
X92847257Y-94993702D01*
X92847256Y-94993703D01*
X94059301Y-96205748D01*
X93957670Y-96279588D01*
X93779588Y-96457670D01*
X93705748Y-96559301D01*
X92496442Y-95349995D01*
X92496441Y-95349996D01*
X92369033Y-95499992D01*
X92168218Y-95796172D01*
X92000606Y-96112322D01*
X92000597Y-96112340D01*
X91868149Y-96444760D01*
X91868147Y-96444767D01*
X91772421Y-96789542D01*
X91772415Y-96789568D01*
X91714527Y-97142668D01*
X91714526Y-97142685D01*
X91695153Y-97499997D01*
X91695153Y-97500002D01*
X90000004Y-97500002D01*
X90000000Y-97499289D01*
X90000000Y-86240000D01*
X91144341Y-86240000D01*
X91164936Y-86475403D01*
X91164938Y-86475413D01*
X91226094Y-86703655D01*
X91226096Y-86703659D01*
X91226097Y-86703663D01*
X91286717Y-86833662D01*
X91325965Y-86917830D01*
X91325967Y-86917834D01*
X91461501Y-87111395D01*
X91461506Y-87111402D01*
X91628597Y-87278493D01*
X91628603Y-87278498D01*
X91655167Y-87297098D01*
X91807144Y-87403514D01*
X91814594Y-87408730D01*
X91858219Y-87463307D01*
X91865413Y-87532805D01*
X91833890Y-87595160D01*
X91814595Y-87611880D01*
X91628922Y-87741890D01*
X91628920Y-87741891D01*
X91461891Y-87908920D01*
X91461886Y-87908926D01*
X91326400Y-88102420D01*
X91326399Y-88102422D01*
X91226570Y-88316507D01*
X91226567Y-88316513D01*
X91169364Y-88529999D01*
X91169364Y-88530000D01*
X92066988Y-88530000D01*
X92034075Y-88587007D01*
X92000000Y-88714174D01*
X92000000Y-88845826D01*
X92034075Y-88972993D01*
X92066988Y-89030000D01*
X91169364Y-89030000D01*
X91226567Y-89243486D01*
X91226570Y-89243492D01*
X91326399Y-89457578D01*
X91461894Y-89651082D01*
X91628917Y-89818105D01*
X91815031Y-89948425D01*
X91858656Y-90003003D01*
X91865848Y-90072501D01*
X91834326Y-90134856D01*
X91815031Y-90151575D01*
X91628922Y-90281890D01*
X91628920Y-90281891D01*
X91461891Y-90448920D01*
X91461886Y-90448926D01*
X91326400Y-90642420D01*
X91326399Y-90642422D01*
X91226570Y-90856507D01*
X91226567Y-90856513D01*
X91169364Y-91069999D01*
X91169364Y-91070000D01*
X92066988Y-91070000D01*
X92034075Y-91127007D01*
X92000000Y-91254174D01*
X92000000Y-91385826D01*
X92034075Y-91512993D01*
X92066988Y-91570000D01*
X91169364Y-91570000D01*
X91226567Y-91783486D01*
X91226570Y-91783492D01*
X91326399Y-91997578D01*
X91461894Y-92191082D01*
X91628917Y-92358105D01*
X91822421Y-92493600D01*
X92036507Y-92593429D01*
X92036516Y-92593433D01*
X92250000Y-92650634D01*
X92250000Y-91753012D01*
X92307007Y-91785925D01*
X92434174Y-91820000D01*
X92565826Y-91820000D01*
X92692993Y-91785925D01*
X92750000Y-91753012D01*
X92750000Y-92650633D01*
X92963483Y-92593433D01*
X92963492Y-92593429D01*
X93177578Y-92493600D01*
X93371082Y-92358105D01*
X93538105Y-92191082D01*
X93673600Y-91997578D01*
X93773429Y-91783492D01*
X93773432Y-91783486D01*
X93830636Y-91570000D01*
X92933012Y-91570000D01*
X92965925Y-91512993D01*
X93000000Y-91385826D01*
X93000000Y-91254174D01*
X92965925Y-91127007D01*
X92933012Y-91070000D01*
X93830636Y-91070000D01*
X93830635Y-91069999D01*
X93773432Y-90856513D01*
X93773429Y-90856507D01*
X93673600Y-90642422D01*
X93673599Y-90642420D01*
X93538113Y-90448926D01*
X93538108Y-90448920D01*
X93371082Y-90281894D01*
X93184968Y-90151575D01*
X93141344Y-90096998D01*
X93134151Y-90027499D01*
X93165673Y-89965145D01*
X93184968Y-89948425D01*
X93371082Y-89818105D01*
X93538105Y-89651082D01*
X93673600Y-89457578D01*
X93773429Y-89243492D01*
X93773432Y-89243486D01*
X93830636Y-89030000D01*
X92933012Y-89030000D01*
X92965925Y-88972993D01*
X93000000Y-88845826D01*
X93000000Y-88714174D01*
X92965925Y-88587007D01*
X92933012Y-88530000D01*
X93830636Y-88530000D01*
X93830635Y-88529999D01*
X93773432Y-88316513D01*
X93773429Y-88316507D01*
X93673600Y-88102422D01*
X93673599Y-88102420D01*
X93538113Y-87908926D01*
X93538108Y-87908920D01*
X93371078Y-87741890D01*
X93185405Y-87611879D01*
X93141780Y-87557302D01*
X93134588Y-87487804D01*
X93166110Y-87425449D01*
X93185406Y-87408730D01*
X93192461Y-87403790D01*
X93371401Y-87278495D01*
X93538495Y-87111401D01*
X93674035Y-86917830D01*
X93773903Y-86703663D01*
X93835063Y-86475408D01*
X93855659Y-86240000D01*
X93835063Y-86004592D01*
X93773903Y-85776337D01*
X93674035Y-85562171D01*
X93673314Y-85561142D01*
X93538496Y-85368600D01*
X93481636Y-85311740D01*
X93416567Y-85246671D01*
X93383084Y-85185351D01*
X93388068Y-85115659D01*
X93429939Y-85059725D01*
X93460915Y-85042810D01*
X93592331Y-84993796D01*
X93707546Y-84907546D01*
X93793796Y-84792331D01*
X93844091Y-84657483D01*
X93850500Y-84597873D01*
X93850499Y-82802128D01*
X93844091Y-82742517D01*
X93842726Y-82738856D01*
X93793797Y-82607670D01*
X93793793Y-82607664D01*
X93707547Y-82492455D01*
X93707544Y-82492452D01*
X93592335Y-82406206D01*
X93592328Y-82406202D01*
X93457482Y-82355908D01*
X93457483Y-82355908D01*
X93397883Y-82349501D01*
X93397881Y-82349500D01*
X93397873Y-82349500D01*
X93397864Y-82349500D01*
X91602129Y-82349500D01*
X91602123Y-82349501D01*
X91542516Y-82355908D01*
X91407671Y-82406202D01*
X91407664Y-82406206D01*
X91292455Y-82492452D01*
X91292452Y-82492455D01*
X91206206Y-82607664D01*
X91206203Y-82607670D01*
X91155908Y-82742517D01*
X91150671Y-82791231D01*
X91149501Y-82802123D01*
X91149500Y-82802135D01*
X91149500Y-84597870D01*
X91149501Y-84597876D01*
X91155908Y-84657483D01*
X91206202Y-84792328D01*
X91206206Y-84792335D01*
X91292452Y-84907544D01*
X91292455Y-84907547D01*
X91407664Y-84993793D01*
X91407671Y-84993797D01*
X91539081Y-85042810D01*
X91595015Y-85084681D01*
X91619432Y-85150145D01*
X91604580Y-85218418D01*
X91583430Y-85246673D01*
X91461503Y-85368600D01*
X91325965Y-85562169D01*
X91325964Y-85562171D01*
X91251629Y-85721584D01*
X91226098Y-85776336D01*
X91226094Y-85776344D01*
X91164938Y-86004586D01*
X91164936Y-86004596D01*
X91144341Y-86239999D01*
X91144341Y-86240000D01*
X90000000Y-86240000D01*
X90000000Y-77500004D01*
X93694451Y-77500004D01*
X93714616Y-77769101D01*
X93774664Y-78032188D01*
X93774666Y-78032195D01*
X93871756Y-78279575D01*
X93873257Y-78283398D01*
X94008185Y-78517102D01*
X94089708Y-78619328D01*
X94176442Y-78728089D01*
X94330897Y-78871401D01*
X94374259Y-78911635D01*
X94597226Y-79063651D01*
X94840359Y-79180738D01*
X95098228Y-79260280D01*
X95098229Y-79260280D01*
X95098232Y-79260281D01*
X95365063Y-79300499D01*
X95365068Y-79300499D01*
X95365071Y-79300500D01*
X95365072Y-79300500D01*
X95634928Y-79300500D01*
X95634929Y-79300500D01*
X95901772Y-79260280D01*
X96057467Y-79212253D01*
X96127328Y-79211304D01*
X96181696Y-79243064D01*
X106987228Y-90048595D01*
X107017478Y-90097958D01*
X107072818Y-90268277D01*
X107072821Y-90268284D01*
X107167467Y-90432216D01*
X107255062Y-90529500D01*
X107294129Y-90572888D01*
X107447265Y-90684148D01*
X107447270Y-90684151D01*
X107620192Y-90761142D01*
X107620197Y-90761144D01*
X107805354Y-90800500D01*
X107805355Y-90800500D01*
X107994644Y-90800500D01*
X107994646Y-90800500D01*
X108179803Y-90761144D01*
X108352730Y-90684151D01*
X108505871Y-90572888D01*
X108632533Y-90432216D01*
X108727179Y-90268284D01*
X108785674Y-90088256D01*
X108805460Y-89900000D01*
X108785674Y-89711744D01*
X108727179Y-89531716D01*
X108632533Y-89367784D01*
X108505871Y-89227112D01*
X108505870Y-89227111D01*
X108352734Y-89115851D01*
X108352729Y-89115848D01*
X108179807Y-89038857D01*
X108179802Y-89038855D01*
X108114669Y-89025011D01*
X108053187Y-88991818D01*
X108052769Y-88991402D01*
X97245602Y-78184234D01*
X97212117Y-78122911D01*
X97217101Y-78053219D01*
X97217832Y-78051306D01*
X97225334Y-78032195D01*
X97285383Y-77769103D01*
X97296777Y-77617052D01*
X97305549Y-77500004D01*
X97305549Y-77499995D01*
X97285383Y-77230898D01*
X97278331Y-77200000D01*
X97225334Y-76967805D01*
X97126743Y-76716602D01*
X96991815Y-76482898D01*
X96823561Y-76271915D01*
X96823560Y-76271914D01*
X96823557Y-76271910D01*
X96625741Y-76088365D01*
X96515051Y-76012898D01*
X96402775Y-75936349D01*
X96402769Y-75936346D01*
X96402768Y-75936345D01*
X96402767Y-75936344D01*
X96159643Y-75819263D01*
X96159645Y-75819263D01*
X95901773Y-75739720D01*
X95901767Y-75739718D01*
X95634936Y-75699500D01*
X95634929Y-75699500D01*
X95365071Y-75699500D01*
X95365063Y-75699500D01*
X95098232Y-75739718D01*
X95098226Y-75739720D01*
X94840358Y-75819262D01*
X94597230Y-75936346D01*
X94374258Y-76088365D01*
X94176442Y-76271910D01*
X94008185Y-76482898D01*
X93873258Y-76716599D01*
X93873256Y-76716603D01*
X93774666Y-76967804D01*
X93774664Y-76967811D01*
X93714616Y-77230898D01*
X93694451Y-77499995D01*
X93694451Y-77500004D01*
X90000000Y-77500004D01*
X90000000Y-72500004D01*
X93694451Y-72500004D01*
X93714616Y-72769101D01*
X93732542Y-72847638D01*
X93774666Y-73032195D01*
X93873257Y-73283398D01*
X94008185Y-73517102D01*
X94060699Y-73582952D01*
X94176442Y-73728089D01*
X94363183Y-73901358D01*
X94374259Y-73911635D01*
X94597226Y-74063651D01*
X94840359Y-74180738D01*
X95098228Y-74260280D01*
X95098233Y-74260280D01*
X95098234Y-74260281D01*
X95176432Y-74272067D01*
X95239789Y-74301522D01*
X95245633Y-74307001D01*
X108535358Y-87596725D01*
X108565607Y-87646085D01*
X108572818Y-87668276D01*
X108572821Y-87668284D01*
X108667467Y-87832216D01*
X108789977Y-87968277D01*
X108794129Y-87972888D01*
X108947265Y-88084148D01*
X108947270Y-88084151D01*
X109120192Y-88161142D01*
X109120197Y-88161144D01*
X109305354Y-88200500D01*
X109305355Y-88200500D01*
X109494644Y-88200500D01*
X109494646Y-88200500D01*
X109679803Y-88161144D01*
X109852730Y-88084151D01*
X110005871Y-87972888D01*
X110132533Y-87832216D01*
X110227179Y-87668284D01*
X110285674Y-87488256D01*
X110305460Y-87300000D01*
X110285674Y-87111744D01*
X110227179Y-86931716D01*
X110132533Y-86767784D01*
X110005871Y-86627112D01*
X110005870Y-86627111D01*
X109852734Y-86515851D01*
X109852729Y-86515848D01*
X109679807Y-86438857D01*
X109679802Y-86438855D01*
X109528693Y-86406736D01*
X109494646Y-86399500D01*
X109494645Y-86399500D01*
X109488289Y-86398149D01*
X109488887Y-86395331D01*
X109435893Y-86373489D01*
X109425850Y-86364483D01*
X96886785Y-73825417D01*
X96853300Y-73764094D01*
X96858284Y-73694402D01*
X96877516Y-73660426D01*
X96991815Y-73517102D01*
X97126743Y-73283398D01*
X97225334Y-73032195D01*
X97285383Y-72769103D01*
X97292105Y-72679402D01*
X97305549Y-72500004D01*
X97305549Y-72499995D01*
X97295608Y-72367339D01*
X97310227Y-72299016D01*
X97359465Y-72249443D01*
X97427687Y-72234360D01*
X97493234Y-72258554D01*
X97506942Y-72270392D01*
X110588230Y-85351679D01*
X110618480Y-85401042D01*
X110672818Y-85568277D01*
X110672821Y-85568284D01*
X110767467Y-85732216D01*
X110868986Y-85844964D01*
X110894129Y-85872888D01*
X111047265Y-85984148D01*
X111047270Y-85984151D01*
X111220192Y-86061142D01*
X111220197Y-86061144D01*
X111405354Y-86100500D01*
X111405355Y-86100500D01*
X111594644Y-86100500D01*
X111594646Y-86100500D01*
X111779803Y-86061144D01*
X111952730Y-85984151D01*
X112105871Y-85872888D01*
X112232533Y-85732216D01*
X112327179Y-85568284D01*
X112385674Y-85388256D01*
X112405460Y-85200000D01*
X112385674Y-85011744D01*
X112327179Y-84831716D01*
X112251133Y-84700000D01*
X114594540Y-84700000D01*
X114614326Y-84888256D01*
X114614327Y-84888259D01*
X114672818Y-85068277D01*
X114672821Y-85068284D01*
X114767467Y-85232216D01*
X114830336Y-85302039D01*
X114894129Y-85372888D01*
X115047265Y-85484148D01*
X115047270Y-85484151D01*
X115220192Y-85561142D01*
X115220197Y-85561144D01*
X115405354Y-85600500D01*
X115405355Y-85600500D01*
X115594644Y-85600500D01*
X115594646Y-85600500D01*
X115779803Y-85561144D01*
X115952730Y-85484151D01*
X116105871Y-85372888D01*
X116232533Y-85232216D01*
X116327179Y-85068284D01*
X116385674Y-84888256D01*
X116405460Y-84700000D01*
X116385674Y-84511744D01*
X116327179Y-84331716D01*
X116327178Y-84331714D01*
X116267113Y-84227677D01*
X116250500Y-84165677D01*
X116250500Y-83162228D01*
X116270185Y-83095189D01*
X116286814Y-83074552D01*
X120129368Y-79231997D01*
X120190689Y-79198514D01*
X120260381Y-79203498D01*
X120316314Y-79245370D01*
X120324429Y-79257672D01*
X120358681Y-79316998D01*
X120367467Y-79332216D01*
X120494129Y-79472888D01*
X120647265Y-79584148D01*
X120647270Y-79584151D01*
X120820192Y-79661142D01*
X120820197Y-79661144D01*
X121005354Y-79700500D01*
X121005355Y-79700500D01*
X121194644Y-79700500D01*
X121194646Y-79700500D01*
X121379803Y-79661144D01*
X121552730Y-79584151D01*
X121705871Y-79472888D01*
X121832533Y-79332216D01*
X121927179Y-79168284D01*
X121985674Y-78988256D01*
X122005460Y-78800000D01*
X121985674Y-78611744D01*
X121927179Y-78431716D01*
X121832533Y-78267784D01*
X121705871Y-78127112D01*
X121700089Y-78122911D01*
X121552734Y-78015851D01*
X121552729Y-78015848D01*
X121379807Y-77938857D01*
X121379802Y-77938855D01*
X121314669Y-77925011D01*
X121253187Y-77891818D01*
X121252919Y-77891552D01*
X120978416Y-77617048D01*
X120978415Y-77617047D01*
X120978414Y-77617046D01*
X120904729Y-77567812D01*
X120904729Y-77567813D01*
X120855491Y-77534913D01*
X120718917Y-77478343D01*
X120718907Y-77478340D01*
X120573920Y-77449500D01*
X120573918Y-77449500D01*
X120173917Y-77449500D01*
X120026082Y-77449500D01*
X120026080Y-77449500D01*
X119881092Y-77478340D01*
X119881082Y-77478343D01*
X119744511Y-77534912D01*
X119744498Y-77534919D01*
X119621584Y-77617048D01*
X119621580Y-77617051D01*
X114917045Y-82321586D01*
X114898395Y-82349501D01*
X114884379Y-82370478D01*
X114869546Y-82392677D01*
X114834914Y-82444507D01*
X114778343Y-82581082D01*
X114778340Y-82581092D01*
X114749500Y-82726079D01*
X114749500Y-84165677D01*
X114732887Y-84227677D01*
X114672821Y-84331714D01*
X114615349Y-84508596D01*
X114614326Y-84511744D01*
X114594540Y-84700000D01*
X112251133Y-84700000D01*
X112232533Y-84667784D01*
X112105871Y-84527112D01*
X112105870Y-84527111D01*
X111952734Y-84415851D01*
X111952729Y-84415848D01*
X111779807Y-84338857D01*
X111779802Y-84338855D01*
X111712025Y-84324449D01*
X111650543Y-84291256D01*
X111650125Y-84290840D01*
X104459288Y-77100002D01*
X109744723Y-77100002D01*
X109763793Y-77317975D01*
X109763793Y-77317979D01*
X109820422Y-77529322D01*
X109820424Y-77529326D01*
X109820425Y-77529330D01*
X109838370Y-77567813D01*
X109912897Y-77727638D01*
X109912898Y-77727639D01*
X110038402Y-77906877D01*
X110193123Y-78061598D01*
X110372361Y-78187102D01*
X110570670Y-78279575D01*
X110570676Y-78279576D01*
X110570677Y-78279577D01*
X110584945Y-78283400D01*
X110782023Y-78336207D01*
X110964926Y-78352208D01*
X110999998Y-78355277D01*
X111000000Y-78355277D01*
X111000002Y-78355277D01*
X111028254Y-78352805D01*
X111217977Y-78336207D01*
X111429330Y-78279575D01*
X111627639Y-78187102D01*
X111806877Y-78061598D01*
X111961598Y-77906877D01*
X112087102Y-77727639D01*
X112179575Y-77529330D01*
X112236207Y-77317977D01*
X112255277Y-77100000D01*
X112236207Y-76882023D01*
X112191883Y-76716603D01*
X112179577Y-76670677D01*
X112179576Y-76670676D01*
X112179575Y-76670670D01*
X112087102Y-76472362D01*
X112087100Y-76472359D01*
X112087099Y-76472357D01*
X111961599Y-76293124D01*
X111901936Y-76233461D01*
X111806877Y-76138402D01*
X111627639Y-76012898D01*
X111627640Y-76012898D01*
X111627638Y-76012897D01*
X111528484Y-75966661D01*
X111429330Y-75920425D01*
X111429326Y-75920424D01*
X111429322Y-75920422D01*
X111217977Y-75863793D01*
X111000002Y-75844723D01*
X110999998Y-75844723D01*
X110854682Y-75857436D01*
X110782023Y-75863793D01*
X110782020Y-75863793D01*
X110570677Y-75920422D01*
X110570668Y-75920426D01*
X110372361Y-76012898D01*
X110372357Y-76012900D01*
X110193121Y-76138402D01*
X110038402Y-76293121D01*
X109912900Y-76472357D01*
X109912898Y-76472361D01*
X109820426Y-76670668D01*
X109820422Y-76670677D01*
X109763793Y-76882020D01*
X109763793Y-76882024D01*
X109744723Y-77099997D01*
X109744723Y-77100002D01*
X104459288Y-77100002D01*
X99579288Y-72220002D01*
X109744723Y-72220002D01*
X109763793Y-72437975D01*
X109763793Y-72437979D01*
X109820422Y-72649322D01*
X109820424Y-72649326D01*
X109820425Y-72649330D01*
X109836865Y-72684586D01*
X109912897Y-72847638D01*
X109912898Y-72847639D01*
X110038402Y-73026877D01*
X110193123Y-73181598D01*
X110372361Y-73307102D01*
X110570670Y-73399575D01*
X110782023Y-73456207D01*
X110964926Y-73472208D01*
X110999998Y-73475277D01*
X111000000Y-73475277D01*
X111000002Y-73475277D01*
X111028254Y-73472805D01*
X111217977Y-73456207D01*
X111429330Y-73399575D01*
X111627639Y-73307102D01*
X111806877Y-73181598D01*
X111961598Y-73026877D01*
X112087102Y-72847639D01*
X112179575Y-72649330D01*
X112236207Y-72437977D01*
X112255116Y-72221838D01*
X112255277Y-72220002D01*
X112255277Y-72219997D01*
X112250128Y-72161142D01*
X112236207Y-72002023D01*
X112179575Y-71790670D01*
X112087102Y-71592362D01*
X112087100Y-71592359D01*
X112087099Y-71592357D01*
X111961599Y-71413124D01*
X111885957Y-71337482D01*
X111848475Y-71300000D01*
X114494540Y-71300000D01*
X114514326Y-71488256D01*
X114514327Y-71488259D01*
X114572818Y-71668277D01*
X114572821Y-71668284D01*
X114667467Y-71832216D01*
X114727076Y-71898418D01*
X114794129Y-71972888D01*
X114947265Y-72084148D01*
X114947270Y-72084151D01*
X115120192Y-72161142D01*
X115120197Y-72161144D01*
X115305354Y-72200500D01*
X115305355Y-72200500D01*
X115494644Y-72200500D01*
X115494646Y-72200500D01*
X115679803Y-72161144D01*
X115852730Y-72084151D01*
X116005871Y-71972888D01*
X116132533Y-71832216D01*
X116227179Y-71668284D01*
X116285674Y-71488256D01*
X116305460Y-71300000D01*
X116285674Y-71111744D01*
X116227179Y-70931716D01*
X116178822Y-70847958D01*
X116167113Y-70827677D01*
X116150500Y-70765677D01*
X116150500Y-67134321D01*
X116167113Y-67072321D01*
X116227179Y-66968284D01*
X116285674Y-66788256D01*
X116305460Y-66600000D01*
X116285674Y-66411744D01*
X116227179Y-66231716D01*
X116132533Y-66067784D01*
X116005871Y-65927112D01*
X116005870Y-65927111D01*
X115852734Y-65815851D01*
X115852729Y-65815848D01*
X115679807Y-65738857D01*
X115679802Y-65738855D01*
X115534001Y-65707865D01*
X115494646Y-65699500D01*
X115305354Y-65699500D01*
X115272897Y-65706398D01*
X115120197Y-65738855D01*
X115120192Y-65738857D01*
X114947270Y-65815848D01*
X114947265Y-65815851D01*
X114794129Y-65927111D01*
X114667466Y-66067785D01*
X114572821Y-66231715D01*
X114572818Y-66231722D01*
X114514327Y-66411740D01*
X114514326Y-66411744D01*
X114494540Y-66600000D01*
X114514326Y-66788256D01*
X114514327Y-66788259D01*
X114572818Y-66968277D01*
X114572821Y-66968284D01*
X114632887Y-67072321D01*
X114649500Y-67134321D01*
X114649500Y-70765677D01*
X114632887Y-70827677D01*
X114572821Y-70931714D01*
X114521922Y-71088365D01*
X114514326Y-71111744D01*
X114494540Y-71300000D01*
X111848475Y-71300000D01*
X111806877Y-71258402D01*
X111627639Y-71132898D01*
X111627640Y-71132898D01*
X111627638Y-71132897D01*
X111528484Y-71086661D01*
X111429330Y-71040425D01*
X111429326Y-71040424D01*
X111429322Y-71040422D01*
X111217977Y-70983793D01*
X111000002Y-70964723D01*
X110999998Y-70964723D01*
X110854682Y-70977436D01*
X110782023Y-70983793D01*
X110782020Y-70983793D01*
X110570677Y-71040422D01*
X110570668Y-71040426D01*
X110372361Y-71132898D01*
X110372357Y-71132900D01*
X110193121Y-71258402D01*
X110038402Y-71413121D01*
X109912900Y-71592357D01*
X109912898Y-71592361D01*
X109820426Y-71790668D01*
X109820422Y-71790677D01*
X109763793Y-72002020D01*
X109763793Y-72002024D01*
X109744723Y-72219997D01*
X109744723Y-72220002D01*
X99579288Y-72220002D01*
X96520590Y-69161304D01*
X96487105Y-69099981D01*
X96492089Y-69030289D01*
X96533961Y-68974356D01*
X96538420Y-68971169D01*
X96559186Y-68957011D01*
X96625741Y-68911635D01*
X96823561Y-68728085D01*
X96991815Y-68517102D01*
X97126743Y-68283398D01*
X97225334Y-68032195D01*
X97285383Y-67769103D01*
X97297973Y-67601096D01*
X97305549Y-67500004D01*
X97305549Y-67499995D01*
X97285383Y-67230898D01*
X97225334Y-66967804D01*
X97163927Y-66811345D01*
X97126743Y-66716602D01*
X96991815Y-66482898D01*
X96823561Y-66271915D01*
X96823560Y-66271914D01*
X96823557Y-66271910D01*
X96625741Y-66088365D01*
X96595554Y-66067784D01*
X96402775Y-65936349D01*
X96402769Y-65936346D01*
X96402768Y-65936345D01*
X96402767Y-65936344D01*
X96159643Y-65819263D01*
X96159645Y-65819263D01*
X95901773Y-65739720D01*
X95901767Y-65739718D01*
X95634936Y-65699500D01*
X95634929Y-65699500D01*
X95365071Y-65699500D01*
X95365063Y-65699500D01*
X95098232Y-65739718D01*
X95098226Y-65739720D01*
X94840358Y-65819262D01*
X94597230Y-65936346D01*
X94374258Y-66088365D01*
X94176442Y-66271910D01*
X94008185Y-66482898D01*
X93873258Y-66716599D01*
X93873256Y-66716603D01*
X93774666Y-66967804D01*
X93714616Y-67230898D01*
X93694451Y-67499995D01*
X93694451Y-67500004D01*
X93714616Y-67769101D01*
X93774664Y-68032188D01*
X93774666Y-68032195D01*
X93873256Y-68283396D01*
X93873258Y-68283400D01*
X93897831Y-68325961D01*
X94008185Y-68517102D01*
X94104067Y-68637334D01*
X94176442Y-68728089D01*
X94348628Y-68887853D01*
X94374259Y-68911635D01*
X94597226Y-69063651D01*
X94597231Y-69063653D01*
X94597232Y-69063654D01*
X94597233Y-69063655D01*
X94679301Y-69103176D01*
X94731161Y-69149998D01*
X94749500Y-69214896D01*
X94749500Y-69276000D01*
X94749500Y-69276002D01*
X94749499Y-69276002D01*
X94778340Y-69420989D01*
X94778343Y-69420999D01*
X94834913Y-69557572D01*
X94834914Y-69557573D01*
X94834916Y-69557577D01*
X94850625Y-69581087D01*
X94911584Y-69672321D01*
X94917051Y-69680502D01*
X94917052Y-69680503D01*
X95724369Y-70487819D01*
X95757854Y-70549142D01*
X95752870Y-70618833D01*
X95710998Y-70674767D01*
X95645534Y-70699184D01*
X95636688Y-70699500D01*
X95365063Y-70699500D01*
X95098232Y-70739718D01*
X95098226Y-70739720D01*
X94840358Y-70819262D01*
X94597230Y-70936346D01*
X94374258Y-71088365D01*
X94176442Y-71271910D01*
X94008185Y-71482898D01*
X93873258Y-71716599D01*
X93873256Y-71716603D01*
X93774666Y-71967804D01*
X93774664Y-71967811D01*
X93714616Y-72230898D01*
X93694451Y-72499995D01*
X93694451Y-72500004D01*
X90000000Y-72500004D01*
X90000000Y-63847870D01*
X93699500Y-63847870D01*
X93699501Y-63847876D01*
X93705908Y-63907483D01*
X93756202Y-64042328D01*
X93756206Y-64042335D01*
X93842452Y-64157544D01*
X93842455Y-64157547D01*
X93957664Y-64243793D01*
X93957671Y-64243797D01*
X94092517Y-64294091D01*
X94092516Y-64294091D01*
X94099444Y-64294835D01*
X94152127Y-64300500D01*
X96847872Y-64300499D01*
X96907483Y-64294091D01*
X97042331Y-64243796D01*
X97157546Y-64157546D01*
X97243796Y-64042331D01*
X97294091Y-63907483D01*
X97300500Y-63847873D01*
X97300499Y-62500000D01*
X106594540Y-62500000D01*
X106614326Y-62688256D01*
X106614327Y-62688259D01*
X106672818Y-62868277D01*
X106672821Y-62868284D01*
X106767467Y-63032216D01*
X106848001Y-63121658D01*
X106894129Y-63172888D01*
X107047265Y-63284148D01*
X107047270Y-63284151D01*
X107220192Y-63361142D01*
X107220197Y-63361144D01*
X107405354Y-63400500D01*
X107405355Y-63400500D01*
X107594644Y-63400500D01*
X107594646Y-63400500D01*
X107779803Y-63361144D01*
X107952730Y-63284151D01*
X108104090Y-63174182D01*
X108169896Y-63150702D01*
X108176975Y-63150500D01*
X113173920Y-63150500D01*
X113271462Y-63131096D01*
X113318913Y-63121658D01*
X113455495Y-63065084D01*
X113516178Y-63024537D01*
X113578416Y-62982952D01*
X121152770Y-55408595D01*
X121214091Y-55375112D01*
X121214427Y-55375039D01*
X121279803Y-55361144D01*
X121452730Y-55284151D01*
X121605871Y-55172888D01*
X121732533Y-55032216D01*
X121827179Y-54868284D01*
X121885674Y-54688256D01*
X121905460Y-54500000D01*
X121885674Y-54311744D01*
X121827179Y-54131716D01*
X121732533Y-53967784D01*
X121605871Y-53827112D01*
X121605870Y-53827111D01*
X121452734Y-53715851D01*
X121452729Y-53715848D01*
X121279807Y-53638857D01*
X121279802Y-53638855D01*
X121134001Y-53607865D01*
X121094646Y-53599500D01*
X120905354Y-53599500D01*
X120872897Y-53606398D01*
X120720197Y-53638855D01*
X120720192Y-53638857D01*
X120547270Y-53715848D01*
X120547265Y-53715851D01*
X120394129Y-53827111D01*
X120267466Y-53967785D01*
X120172821Y-54131715D01*
X120172819Y-54131719D01*
X120117478Y-54302041D01*
X120087228Y-54351403D01*
X112825451Y-61613181D01*
X112764128Y-61646666D01*
X112737770Y-61649500D01*
X107830067Y-61649500D01*
X107786209Y-61640178D01*
X107785986Y-61640865D01*
X107779801Y-61638855D01*
X107644624Y-61610123D01*
X107594646Y-61599500D01*
X107405354Y-61599500D01*
X107372897Y-61606398D01*
X107220197Y-61638855D01*
X107220192Y-61638857D01*
X107047270Y-61715848D01*
X107047265Y-61715851D01*
X106894129Y-61827111D01*
X106767466Y-61967785D01*
X106672821Y-62131715D01*
X106672818Y-62131722D01*
X106616126Y-62306204D01*
X106614326Y-62311744D01*
X106594540Y-62500000D01*
X97300499Y-62500000D01*
X97300499Y-61152128D01*
X97294091Y-61092517D01*
X97252951Y-60982216D01*
X97243797Y-60957671D01*
X97243793Y-60957664D01*
X97157547Y-60842455D01*
X97157544Y-60842452D01*
X97042335Y-60756206D01*
X97042328Y-60756202D01*
X96907482Y-60705908D01*
X96907483Y-60705908D01*
X96847883Y-60699501D01*
X96847881Y-60699500D01*
X96847873Y-60699500D01*
X96847864Y-60699500D01*
X94152129Y-60699500D01*
X94152123Y-60699501D01*
X94092516Y-60705908D01*
X93957671Y-60756202D01*
X93957664Y-60756206D01*
X93842455Y-60842452D01*
X93842452Y-60842455D01*
X93756206Y-60957664D01*
X93756202Y-60957671D01*
X93705908Y-61092517D01*
X93699501Y-61152116D01*
X93699501Y-61152123D01*
X93699500Y-61152135D01*
X93699500Y-63847870D01*
X90000000Y-63847870D01*
X90000000Y-55000710D01*
X90000007Y-54999358D01*
X90000504Y-54953793D01*
X90002328Y-54786517D01*
X90002793Y-54777073D01*
X90004958Y-54752335D01*
X90027034Y-54500002D01*
X91695153Y-54500002D01*
X91714526Y-54857314D01*
X91714527Y-54857331D01*
X91772415Y-55210431D01*
X91772421Y-55210457D01*
X91868147Y-55555232D01*
X91868149Y-55555239D01*
X92000597Y-55887659D01*
X92000606Y-55887677D01*
X92168218Y-56203827D01*
X92369024Y-56499994D01*
X92369035Y-56500008D01*
X92496441Y-56650002D01*
X92496442Y-56650002D01*
X93705747Y-55440697D01*
X93779588Y-55542330D01*
X93957670Y-55720412D01*
X94059300Y-55794251D01*
X92847257Y-57006294D01*
X92860495Y-57018836D01*
X93145367Y-57235388D01*
X93145370Y-57235390D01*
X93451990Y-57419876D01*
X93776739Y-57570122D01*
X93776744Y-57570123D01*
X94115855Y-57684383D01*
X94465339Y-57761311D01*
X94821075Y-57799999D01*
X94821085Y-57800000D01*
X95178915Y-57800000D01*
X95178924Y-57799999D01*
X95534660Y-57761311D01*
X95884144Y-57684383D01*
X96223255Y-57570123D01*
X96223260Y-57570122D01*
X96548009Y-57419876D01*
X96854629Y-57235390D01*
X96854632Y-57235388D01*
X97139509Y-57018831D01*
X97152742Y-57006295D01*
X97152742Y-57006294D01*
X95940699Y-55794251D01*
X96042330Y-55720412D01*
X96220412Y-55542330D01*
X96294251Y-55440698D01*
X97503556Y-56650002D01*
X97630972Y-56499998D01*
X97630975Y-56499994D01*
X97831781Y-56203827D01*
X97999393Y-55887677D01*
X97999402Y-55887659D01*
X98131850Y-55555239D01*
X98131852Y-55555232D01*
X98227578Y-55210457D01*
X98227584Y-55210431D01*
X98285472Y-54857331D01*
X98285473Y-54857314D01*
X98304847Y-54500002D01*
X98304847Y-54499997D01*
X98285473Y-54142685D01*
X98285472Y-54142668D01*
X98227584Y-53789568D01*
X98227578Y-53789542D01*
X98131852Y-53444767D01*
X98131850Y-53444760D01*
X97999402Y-53112340D01*
X97999393Y-53112322D01*
X97831781Y-52796172D01*
X97630975Y-52500005D01*
X97630964Y-52499991D01*
X97503556Y-52349996D01*
X96294251Y-53559301D01*
X96220412Y-53457670D01*
X96042330Y-53279588D01*
X95940698Y-53205748D01*
X97152742Y-51993704D01*
X97139504Y-51981163D01*
X96854632Y-51764611D01*
X96854629Y-51764609D01*
X96548009Y-51580123D01*
X96223260Y-51429877D01*
X96223255Y-51429876D01*
X95884144Y-51315616D01*
X95534660Y-51238688D01*
X95178924Y-51200000D01*
X94821075Y-51200000D01*
X94465339Y-51238688D01*
X94115855Y-51315616D01*
X93776744Y-51429876D01*
X93776739Y-51429877D01*
X93451990Y-51580123D01*
X93145370Y-51764609D01*
X93145367Y-51764611D01*
X92860486Y-51981170D01*
X92860485Y-51981171D01*
X92847257Y-51993702D01*
X92847256Y-51993703D01*
X94059301Y-53205748D01*
X93957670Y-53279588D01*
X93779588Y-53457670D01*
X93705748Y-53559301D01*
X92496442Y-52349995D01*
X92496441Y-52349996D01*
X92369033Y-52499992D01*
X92168218Y-52796172D01*
X92000606Y-53112322D01*
X92000597Y-53112340D01*
X91868149Y-53444760D01*
X91868147Y-53444767D01*
X91772421Y-53789542D01*
X91772415Y-53789568D01*
X91714527Y-54142668D01*
X91714526Y-54142685D01*
X91695153Y-54499997D01*
X91695153Y-54500002D01*
X90027034Y-54500002D01*
X90039943Y-54352444D01*
X90041355Y-54341725D01*
X90046642Y-54311740D01*
X90115257Y-53922602D01*
X90117589Y-53912083D01*
X90227749Y-53500959D01*
X90230989Y-53490683D01*
X90376558Y-53090736D01*
X90380679Y-53080786D01*
X90560552Y-52695047D01*
X90565532Y-52685480D01*
X90778332Y-52316900D01*
X90784125Y-52307806D01*
X91028246Y-51959165D01*
X91034812Y-51950609D01*
X91308394Y-51624566D01*
X91315681Y-51616615D01*
X91616615Y-51315681D01*
X91624566Y-51308394D01*
X91950609Y-51034812D01*
X91959165Y-51028246D01*
X92307806Y-50784125D01*
X92316900Y-50778332D01*
X92685480Y-50565532D01*
X92695047Y-50560552D01*
X93080786Y-50380679D01*
X93090736Y-50376558D01*
X93490683Y-50230989D01*
X93500959Y-50227749D01*
X93912083Y-50117589D01*
X93922602Y-50115257D01*
X94341732Y-50041353D01*
X94352444Y-50039943D01*
X94777085Y-50002792D01*
X94786517Y-50002328D01*
X94999358Y-50000006D01*
X95000710Y-50000000D01*
X184999290Y-50000000D01*
X185000641Y-50000006D01*
G37*
%TD.AperFunction*%
%TD*%
M02*
