%TF.GenerationSoftware,KiCad,Pcbnew,8.0.0*%
%TF.CreationDate,2024-03-12T01:14:05-04:00*%
%TF.ProjectId,ORA_ControlBoard-main_Rev2,4f52415f-436f-46e7-9472-6f6c426f6172,rev?*%
%TF.SameCoordinates,Original*%
%TF.FileFunction,Paste,Top*%
%TF.FilePolarity,Positive*%
%FSLAX46Y46*%
G04 Gerber Fmt 4.6, Leading zero omitted, Abs format (unit mm)*
G04 Created by KiCad (PCBNEW 8.0.0) date 2024-03-12 01:14:05*
%MOMM*%
%LPD*%
G01*
G04 APERTURE LIST*
G04 Aperture macros list*
%AMRoundRect*
0 Rectangle with rounded corners*
0 $1 Rounding radius*
0 $2 $3 $4 $5 $6 $7 $8 $9 X,Y pos of 4 corners*
0 Add a 4 corners polygon primitive as box body*
4,1,4,$2,$3,$4,$5,$6,$7,$8,$9,$2,$3,0*
0 Add four circle primitives for the rounded corners*
1,1,$1+$1,$2,$3*
1,1,$1+$1,$4,$5*
1,1,$1+$1,$6,$7*
1,1,$1+$1,$8,$9*
0 Add four rect primitives between the rounded corners*
20,1,$1+$1,$2,$3,$4,$5,0*
20,1,$1+$1,$4,$5,$6,$7,0*
20,1,$1+$1,$6,$7,$8,$9,0*
20,1,$1+$1,$8,$9,$2,$3,0*%
G04 Aperture macros list end*
%ADD10R,0.550000X1.500000*%
%ADD11R,1.500000X0.550000*%
%ADD12R,1.700000X1.000000*%
%ADD13RoundRect,0.250000X-0.475000X0.337500X-0.475000X-0.337500X0.475000X-0.337500X0.475000X0.337500X0*%
%ADD14R,1.750000X0.450000*%
%ADD15RoundRect,0.250000X-0.450000X0.350000X-0.450000X-0.350000X0.450000X-0.350000X0.450000X0.350000X0*%
%ADD16R,2.000000X1.500000*%
%ADD17R,2.000000X3.800000*%
%ADD18RoundRect,0.250000X0.475000X-0.337500X0.475000X0.337500X-0.475000X0.337500X-0.475000X-0.337500X0*%
%ADD19RoundRect,0.250000X0.337500X0.475000X-0.337500X0.475000X-0.337500X-0.475000X0.337500X-0.475000X0*%
%ADD20RoundRect,0.250000X-0.350000X-0.450000X0.350000X-0.450000X0.350000X0.450000X-0.350000X0.450000X0*%
%ADD21R,0.400000X1.350000*%
%ADD22R,2.100000X1.600000*%
%ADD23R,1.800000X1.900000*%
%ADD24R,1.900000X1.900000*%
%ADD25R,1.701800X0.660400*%
%ADD26R,1.092200X2.794000*%
%ADD27RoundRect,0.250000X0.350000X0.450000X-0.350000X0.450000X-0.350000X-0.450000X0.350000X-0.450000X0*%
%ADD28RoundRect,0.112500X-0.187500X-0.112500X0.187500X-0.112500X0.187500X0.112500X-0.187500X0.112500X0*%
%ADD29RoundRect,0.250000X-1.450000X0.400000X-1.450000X-0.400000X1.450000X-0.400000X1.450000X0.400000X0*%
%ADD30RoundRect,0.250000X0.450000X-0.350000X0.450000X0.350000X-0.450000X0.350000X-0.450000X-0.350000X0*%
%ADD31R,2.794000X1.219200*%
%ADD32RoundRect,0.250000X-0.337500X-0.475000X0.337500X-0.475000X0.337500X0.475000X-0.337500X0.475000X0*%
%ADD33RoundRect,0.250000X-0.450000X0.325000X-0.450000X-0.325000X0.450000X-0.325000X0.450000X0.325000X0*%
%ADD34RoundRect,0.112500X-0.112500X0.187500X-0.112500X-0.187500X0.112500X-0.187500X0.112500X0.187500X0*%
G04 APERTURE END LIST*
D10*
%TO.C,U1*%
X127500000Y-69100000D03*
X126700000Y-69100000D03*
X125900000Y-69100000D03*
X125100000Y-69100000D03*
X124300000Y-69100000D03*
X123500000Y-69100000D03*
X122700000Y-69100000D03*
X121900000Y-69100000D03*
X121100000Y-69100000D03*
X120300000Y-69100000D03*
X119500000Y-69100000D03*
D11*
X117800000Y-70800000D03*
X117800000Y-71600000D03*
X117800000Y-72400000D03*
X117800000Y-73200000D03*
X117800000Y-74000000D03*
X117800000Y-74800000D03*
X117800000Y-75600000D03*
X117800000Y-76400000D03*
X117800000Y-77200000D03*
X117800000Y-78000000D03*
X117800000Y-78800000D03*
D10*
X119500000Y-80500000D03*
X120300000Y-80500000D03*
X121100000Y-80500000D03*
X121900000Y-80500000D03*
X122700000Y-80500000D03*
X123500000Y-80500000D03*
X124300000Y-80500000D03*
X125100000Y-80500000D03*
X125900000Y-80500000D03*
X126700000Y-80500000D03*
X127500000Y-80500000D03*
D11*
X129200000Y-78800000D03*
X129200000Y-78000000D03*
X129200000Y-77200000D03*
X129200000Y-76400000D03*
X129200000Y-75600000D03*
X129200000Y-74800000D03*
X129200000Y-74000000D03*
X129200000Y-73200000D03*
X129200000Y-72400000D03*
X129200000Y-71600000D03*
X129200000Y-70800000D03*
%TD*%
D12*
%TO.C,SW1*%
X100700000Y-53600000D03*
X107000000Y-53600000D03*
X100700000Y-57400000D03*
X107000000Y-57400000D03*
%TD*%
D13*
%TO.C,C7*%
X137000000Y-57925000D03*
X137000000Y-60000000D03*
%TD*%
%TO.C,C10*%
X107000000Y-75925000D03*
X107000000Y-78000000D03*
%TD*%
D14*
%TO.C,U2*%
X172400000Y-85500000D03*
X172400000Y-86150000D03*
X172400000Y-86800000D03*
X172400000Y-87450000D03*
X172400000Y-88100000D03*
X172400000Y-88750000D03*
X172400000Y-89400000D03*
X172400000Y-90050000D03*
X172400000Y-90700000D03*
X172400000Y-91350000D03*
X172400000Y-92000000D03*
X172400000Y-92650000D03*
X172400000Y-93300000D03*
X172400000Y-93950000D03*
X179600000Y-93950000D03*
X179600000Y-93300000D03*
X179600000Y-92650000D03*
X179600000Y-92000000D03*
X179600000Y-91350000D03*
X179600000Y-90700000D03*
X179600000Y-90050000D03*
X179600000Y-89400000D03*
X179600000Y-88750000D03*
X179600000Y-88100000D03*
X179600000Y-87450000D03*
X179600000Y-86800000D03*
X179600000Y-86150000D03*
X179600000Y-85500000D03*
%TD*%
D13*
%TO.C,C1*%
X177070000Y-71562500D03*
X177070000Y-73637500D03*
%TD*%
%TO.C,C9*%
X107000000Y-71962500D03*
X107000000Y-74037500D03*
%TD*%
D15*
%TO.C,R16*%
X145952500Y-94800000D03*
X145952500Y-96800000D03*
%TD*%
%TO.C,R11*%
X115125000Y-73400000D03*
X115125000Y-75400000D03*
%TD*%
D16*
%TO.C,U5*%
X125500000Y-61500000D03*
X125500000Y-59200000D03*
D17*
X119200000Y-59200000D03*
D16*
X125500000Y-56900000D03*
%TD*%
D18*
%TO.C,C8*%
X187900000Y-90237500D03*
X187900000Y-88162500D03*
%TD*%
D15*
%TO.C,R9*%
X121025000Y-87000000D03*
X121025000Y-89000000D03*
%TD*%
D19*
%TO.C,C4*%
X124000000Y-66750000D03*
X121925000Y-66750000D03*
%TD*%
D20*
%TO.C,R8*%
X132500000Y-83000000D03*
X134500000Y-83000000D03*
%TD*%
D15*
%TO.C,R18*%
X135000000Y-98900000D03*
X135000000Y-100900000D03*
%TD*%
D21*
%TO.C,J3*%
X138800000Y-54125000D03*
X138150000Y-54125000D03*
X137500000Y-54125000D03*
X136850000Y-54125000D03*
X136200000Y-54125000D03*
D22*
X140600000Y-54000000D03*
X134400000Y-54000000D03*
D23*
X141300000Y-51450000D03*
D24*
X138700000Y-51450000D03*
X136300000Y-51450000D03*
D23*
X133700000Y-51450000D03*
%TD*%
D20*
%TO.C,R1*%
X174570000Y-82100000D03*
X176570000Y-82100000D03*
%TD*%
%TO.C,R22*%
X118000000Y-93970000D03*
X120000000Y-93970000D03*
%TD*%
D18*
%TO.C,C2*%
X174070000Y-73637500D03*
X174070000Y-71562500D03*
%TD*%
D25*
%TO.C,J5*%
X185424300Y-80875000D03*
X185424300Y-79625000D03*
X185424300Y-78375000D03*
X185424300Y-77125000D03*
D26*
X188624301Y-82724999D03*
X188624301Y-75275001D03*
%TD*%
D13*
%TO.C,C14*%
X125600000Y-52450000D03*
X125600000Y-54525000D03*
%TD*%
D15*
%TO.C,R15*%
X146007500Y-98800000D03*
X146007500Y-100800000D03*
%TD*%
%TO.C,R17*%
X135000000Y-94900000D03*
X135000000Y-96900000D03*
%TD*%
D27*
%TO.C,R5*%
X129300000Y-64975000D03*
X127300000Y-64975000D03*
%TD*%
D20*
%TO.C,R19*%
X129000000Y-93720000D03*
X131000000Y-93720000D03*
%TD*%
D28*
%TO.C,D4*%
X164350000Y-67900000D03*
X166450000Y-67900000D03*
%TD*%
D29*
%TO.C,F1*%
X140500000Y-57900000D03*
X140500000Y-62350000D03*
%TD*%
D20*
%TO.C,R14*%
X139952500Y-93710000D03*
X141952500Y-93710000D03*
%TD*%
D30*
%TO.C,R3*%
X119100000Y-67100000D03*
X119100000Y-65100000D03*
%TD*%
D15*
%TO.C,R21*%
X124000000Y-98970000D03*
X124000000Y-100970000D03*
%TD*%
D19*
%TO.C,C5*%
X121025000Y-82750000D03*
X118950000Y-82750000D03*
%TD*%
D13*
%TO.C,C11*%
X123350000Y-52375000D03*
X123350000Y-54450000D03*
%TD*%
D31*
%TO.C,C13*%
X115209800Y-55500000D03*
X110790200Y-55500000D03*
%TD*%
D32*
%TO.C,C15*%
X131162500Y-70500000D03*
X133237500Y-70500000D03*
%TD*%
D18*
%TO.C,C17*%
X185500000Y-90237500D03*
X185500000Y-88162500D03*
%TD*%
%TO.C,C6*%
X131200000Y-80475000D03*
X131200000Y-78400000D03*
%TD*%
D33*
%TO.C,D2*%
X118700000Y-86975000D03*
X118700000Y-89025000D03*
%TD*%
D19*
%TO.C,C12*%
X129887500Y-59200000D03*
X127812500Y-59200000D03*
%TD*%
%TO.C,C3*%
X133237500Y-72600000D03*
X131162500Y-72600000D03*
%TD*%
D27*
%TO.C,R2*%
X185300000Y-92600000D03*
X183300000Y-92600000D03*
%TD*%
D25*
%TO.C,J1*%
X185399999Y-66875000D03*
X185399999Y-65625000D03*
X185399999Y-64375000D03*
X185399999Y-63125000D03*
D26*
X188600000Y-68724999D03*
X188600000Y-61275001D03*
%TD*%
D15*
%TO.C,R20*%
X124000000Y-94970000D03*
X124000000Y-96970000D03*
%TD*%
D18*
%TO.C,C16*%
X183000000Y-90237500D03*
X183000000Y-88162500D03*
%TD*%
D34*
%TO.C,D1*%
X116900000Y-65075000D03*
X116900000Y-67175000D03*
%TD*%
D20*
%TO.C,R6*%
X127300000Y-66975000D03*
X129300000Y-66975000D03*
%TD*%
D15*
%TO.C,R4*%
X127500000Y-82500000D03*
X127500000Y-84500000D03*
%TD*%
D20*
%TO.C,R10*%
X132500000Y-85500000D03*
X134500000Y-85500000D03*
%TD*%
M02*
