M48
; DRILL file {KiCad 8.0.0} date 2024-03-12T01:14:01-0400
; FORMAT={-:-/ absolute / inch / decimal}
; #@! TF.CreationDate,2024-03-12T01:14:01-04:00
; #@! TF.GenerationSoftware,Kicad,Pcbnew,8.0.0
; #@! TF.FileFunction,Plated,1,2,PTH
FMAT,2
INCH
; #@! TA.AperFunction,Plated,PTH,ViaDrill
T1C0.0157
; #@! TA.AperFunction,Plated,PTH,ComponentDrill
T2C0.0295
; #@! TA.AperFunction,Plated,PTH,ComponentDrill
T3C0.0300
; #@! TA.AperFunction,Plated,PTH,ComponentDrill
T4C0.0315
; #@! TA.AperFunction,Plated,PTH,ComponentDrill
T5C0.0394
; #@! TA.AperFunction,Plated,PTH,ComponentDrill
T6C0.0433
; #@! TA.AperFunction,Plated,PTH,ComponentDrill
T7C0.0512
; #@! TA.AperFunction,Plated,PTH,ComponentDrill
T8C0.1260
%
G90
G05
T1
X3.7126Y-3.4953
X3.7126Y-3.5945
X4.2323Y-2.4606
X4.248Y-3.5394
X4.2795Y-2.8307
X4.2874Y-3.0709
X4.3071Y-3.437
X4.3898Y-3.3543
X4.5433Y-2.622
X4.5433Y-2.8071
X4.5472Y-3.3346
X4.6688Y-2.6889
X4.685Y-3.2087
X4.6909Y-2.7815
X4.6929Y-2.8819
X4.7362Y-2.6417
X4.7638Y-2.1457
X4.7638Y-3.2559
X4.7677Y-3.1024
X4.7835Y-2.815
X4.8425Y-2.811
X4.8425Y-3.0098
X4.8425Y-3.4488
X4.8622Y-3.0512
X4.874Y-2.9705
X4.8819Y-2.5787
X4.8819Y-3.6811
X4.9252Y-3.1181
X4.9409Y-2.4961
X4.9567Y-3.2185
X4.9882Y-3.122
X5.0177Y-2.3799
X5.0295Y-3.5453
X5.0394Y-2.2362
X5.0433Y-3.4961
X5.0748Y-3.3268
X5.1137Y-2.3307
X5.1654Y-3.1693
X5.2165Y-3.2579
X5.2165Y-3.3543
X5.252Y-3.7323
X5.2559Y-3.1457
X5.2992Y-3.188
X5.3071Y-2.7756
X5.3957Y-2.5197
X5.4134Y-2.6457
X5.4193Y-3.439
X5.437Y-2.5394
X5.4921Y-2.3819
X5.5Y-2.8661
X5.5236Y-3.1457
X5.5315Y-2.5157
X5.5354Y-2.6378
X5.5984Y-2.5827
X5.7835Y-2.0748
X5.8898Y-2.374
X5.9094Y-2.5394
X5.9094Y-2.7244
X6.0197Y-3.0394
X6.1299Y-2.2087
X6.1457Y-2.1024
X6.2087Y-2.0157
X6.3268Y-3.6299
X6.5Y-3.4449
X6.5Y-3.5354
X6.5039Y-3.3898
X6.5118Y-2.7126
X6.7126Y-3.3661
X6.7165Y-3.5315
X6.8504Y-2.7638
X6.874Y-3.2913
X6.8992Y-3.4461
X6.937Y-3.435
X6.9528Y-3.2913
X6.9685Y-3.6417
X6.9713Y-2.765
X7.0Y-3.6969
X7.0177Y-3.4173
X7.0945Y-3.3228
X7.1457Y-3.3346
X7.1457Y-3.6772
X7.1929Y-2.6417
X7.1929Y-2.9882
X7.2047Y-3.4252
X7.2165Y-2.4843
X7.2992Y-2.9764
X7.3031Y-3.4252
X7.3661Y-3.6181
X7.3976Y-3.4252
T2
X4.7244Y-3.8083
X4.7244Y-3.8583
X4.7244Y-3.9083
X5.1575Y-3.8083
X5.1575Y-3.8583
X5.1575Y-3.9083
X5.5887Y-3.8075
X5.5887Y-3.8575
X5.5887Y-3.9075
T3
X5.8941Y-3.1937
X5.8941Y-3.2937
X5.8941Y-3.3937
X5.8941Y-3.4937
X6.5941Y-3.0937
X6.5941Y-3.1937
X6.5941Y-3.2937
X6.5941Y-3.3937
X6.5941Y-3.4937
X6.5941Y-3.5937
T4
X4.3701Y-2.8433
X4.3701Y-3.0354
X6.8157Y-3.0551
X7.0079Y-3.0551
T5
X3.6417Y-3.2953
X3.6417Y-3.3953
X3.6417Y-3.4953
X3.6417Y-3.5953
X4.0339Y-3.937
X4.1339Y-3.937
X4.2339Y-3.937
X4.3339Y-3.937
X4.4339Y-3.937
X5.6693Y-2.7709
X5.6693Y-2.8709
X5.6693Y-2.9709
X5.6693Y-3.0709
X5.6693Y-3.1709
X5.9512Y-2.1126
X5.9512Y-2.2126
X5.9512Y-2.3126
X6.0512Y-2.1126
X6.0512Y-2.2126
X6.0512Y-2.3126
T6
X5.7843Y-2.5591
X6.1843Y-2.5591
T7
X3.7598Y-2.4606
X3.7598Y-2.6575
X3.7598Y-2.8543
X3.7598Y-3.0512
T8
X3.7402Y-2.1457
X3.7402Y-3.8386
X7.2835Y-2.1457
X7.2835Y-3.8386
T5
G00X6.3701Y-2.3819
M15
G01X6.3701Y-2.4606
M16
G05
G00X6.5945Y-2.3031
M15
G01X6.5157Y-2.3031
M16
G05
G00X6.5945Y-2.5394
M15
G01X6.5157Y-2.5394
M16
G05
M30
