%TF.GenerationSoftware,KiCad,Pcbnew,8.0.0*%
%TF.CreationDate,2024-03-12T01:14:06-04:00*%
%TF.ProjectId,ORA_ControlBoard-main_Rev2,4f52415f-436f-46e7-9472-6f6c426f6172,rev?*%
%TF.SameCoordinates,Original*%
%TF.FileFunction,Soldermask,Bot*%
%TF.FilePolarity,Negative*%
%FSLAX46Y46*%
G04 Gerber Fmt 4.6, Leading zero omitted, Abs format (unit mm)*
G04 Created by KiCad (PCBNEW 8.0.0) date 2024-03-12 01:14:06*
%MOMM*%
%LPD*%
G01*
G04 APERTURE LIST*
G04 Aperture macros list*
%AMRoundRect*
0 Rectangle with rounded corners*
0 $1 Rounding radius*
0 $2 $3 $4 $5 $6 $7 $8 $9 X,Y pos of 4 corners*
0 Add a 4 corners polygon primitive as box body*
4,1,4,$2,$3,$4,$5,$6,$7,$8,$9,$2,$3,0*
0 Add four circle primitives for the rounded corners*
1,1,$1+$1,$2,$3*
1,1,$1+$1,$4,$5*
1,1,$1+$1,$6,$7*
1,1,$1+$1,$8,$9*
0 Add four rect primitives between the rounded corners*
20,1,$1+$1,$2,$3,$4,$5,0*
20,1,$1+$1,$4,$5,$6,$7,0*
20,1,$1+$1,$6,$7,$8,$9,0*
20,1,$1+$1,$8,$9,$2,$3,0*%
G04 Aperture macros list end*
%ADD10R,1.500000X1.050000*%
%ADD11O,1.500000X1.050000*%
%ADD12C,5.600000*%
%ADD13C,1.500000*%
%ADD14C,1.524000*%
%ADD15R,1.700000X1.700000*%
%ADD16O,1.700000X1.700000*%
%ADD17R,3.500000X3.500000*%
%ADD18RoundRect,0.750000X-1.000000X0.750000X-1.000000X-0.750000X1.000000X-0.750000X1.000000X0.750000X0*%
%ADD19RoundRect,0.875000X-0.875000X0.875000X-0.875000X-0.875000X0.875000X-0.875000X0.875000X0.875000X0*%
%ADD20R,2.200000X2.200000*%
%ADD21O,2.200000X2.200000*%
%ADD22R,2.600000X2.600000*%
%ADD23C,2.600000*%
%ADD24RoundRect,0.250000X-0.450000X0.350000X-0.450000X-0.350000X0.450000X-0.350000X0.450000X0.350000X0*%
G04 APERTURE END LIST*
D10*
%TO.C,Q3*%
X131000000Y-96730000D03*
D11*
X131000000Y-98000000D03*
X131000000Y-99270000D03*
%TD*%
D12*
%TO.C,H1*%
X185000000Y-97500000D03*
%TD*%
D13*
%TO.C,Y1*%
X173120000Y-77600000D03*
X178000000Y-77600000D03*
%TD*%
D12*
%TO.C,H3*%
X95000000Y-54500000D03*
%TD*%
D10*
%TO.C,Q5*%
X120000000Y-96730000D03*
D11*
X120000000Y-98000000D03*
X120000000Y-99270000D03*
%TD*%
D12*
%TO.C,H2*%
X95000000Y-97500000D03*
%TD*%
D13*
%TO.C,Y2*%
X111000000Y-77100000D03*
X111000000Y-72220000D03*
%TD*%
D14*
%TO.C,U6*%
X149710000Y-88740000D03*
X149710000Y-86200000D03*
X149710000Y-83660000D03*
X149710000Y-81120000D03*
X167490000Y-78580000D03*
X167490000Y-81120000D03*
X167490000Y-83660000D03*
X167490000Y-86200000D03*
X167490000Y-88740000D03*
X167490000Y-91280000D03*
%TD*%
D15*
%TO.C,J2*%
X92500000Y-83700000D03*
D16*
X92500000Y-86240000D03*
X92500000Y-88780000D03*
X92500000Y-91320000D03*
%TD*%
D17*
%TO.C,J4*%
X166500000Y-64500000D03*
D18*
X166500000Y-58500000D03*
D19*
X161800000Y-61500000D03*
%TD*%
D10*
%TO.C,Q1*%
X141952500Y-96710000D03*
D11*
X141952500Y-97980000D03*
X141952500Y-99250000D03*
%TD*%
D12*
%TO.C,H4*%
X185000000Y-54500000D03*
%TD*%
D15*
%TO.C,J8*%
X144000000Y-70380000D03*
D16*
X144000000Y-72920000D03*
X144000000Y-75460000D03*
X144000000Y-78000000D03*
X144000000Y-80540000D03*
%TD*%
D20*
%TO.C,D3*%
X146920000Y-65000000D03*
D21*
X157080000Y-65000000D03*
%TD*%
D22*
%TO.C,J9*%
X95500000Y-62500000D03*
D23*
X95500000Y-67500000D03*
X95500000Y-72500000D03*
X95500000Y-77500000D03*
%TD*%
D15*
%TO.C,J7*%
X102460000Y-100000000D03*
D16*
X105000000Y-100000000D03*
X107540000Y-100000000D03*
X110080000Y-100000000D03*
X112620000Y-100000000D03*
%TD*%
D24*
%TO.C,TR1*%
X161800000Y-87800000D03*
X161800000Y-89800000D03*
%TD*%
D15*
%TO.C,J6*%
X153700000Y-53660000D03*
D16*
X151160000Y-53660000D03*
X153700000Y-56200000D03*
X151160000Y-56200000D03*
X153700000Y-58740000D03*
X151160000Y-58740000D03*
%TD*%
M02*
