M48
; DRILL file {KiCad 7.0.8} date Mon Nov 20 10:49:15 2023
; FORMAT={-:-/ absolute / inch / decimal}
; #@! TF.CreationDate,2023-11-20T10:49:15-05:00
; #@! TF.GenerationSoftware,Kicad,Pcbnew,7.0.8
; #@! TF.FileFunction,Plated,1,2,PTH
FMAT,2
INCH
; #@! TA.AperFunction,Plated,PTH,ComponentDrill
T1C0.0295
; #@! TA.AperFunction,Plated,PTH,ComponentDrill
T2C0.0315
; #@! TA.AperFunction,Plated,PTH,ComponentDrill
T3C0.0433
; #@! TA.AperFunction,Plated,PTH,ComponentDrill
T4C0.1260
%
G90
G05
T1
X5.2543Y-3.1693
X5.2551Y-3.8287
X5.2551Y-4.5122
X5.3043Y-3.1693
X5.3051Y-3.8287
X5.3051Y-4.5122
X5.3543Y-3.1693
X5.3551Y-3.8287
X5.3551Y-4.5122
T2
X5.5965Y-2.9724
X5.5965Y-3.1791
X5.5965Y-3.3858
X5.5965Y-3.6122
X5.5965Y-3.8287
X5.5965Y-4.0354
X5.5965Y-4.3012
X5.5965Y-4.5079
X5.5965Y-4.7244
X6.0965Y-2.9724
X6.0965Y-3.1791
X6.0965Y-3.3858
X6.0965Y-3.6122
X6.0965Y-3.8287
X6.0965Y-4.0354
X6.0965Y-4.3012
X6.0965Y-4.5079
X6.0965Y-4.7244
T3
X4.3012Y-3.7055
X4.3012Y-3.8055
X4.3012Y-3.9055
X4.3012Y-4.0055
X4.7031Y-4.51
X4.7035Y-3.1693
X4.7035Y-3.8287
X4.8031Y-4.51
X4.8035Y-3.1693
X4.8035Y-3.8287
X4.9031Y-4.51
X4.9035Y-3.1693
X4.9035Y-3.8287
X6.3878Y-3.7059
X6.3878Y-3.8059
X6.3878Y-3.9059
X6.3878Y-4.0059
X6.3878Y-4.4087
X6.3878Y-4.5087
T4
X4.3406Y-2.8445
X4.3406Y-4.8524
X6.3484Y-2.8445
X6.3484Y-4.8524
T0
M30
