%TF.GenerationSoftware,KiCad,Pcbnew,7.0.8*%
%TF.CreationDate,2023-11-20T10:49:13-05:00*%
%TF.ProjectId,StackLight,53746163-6b4c-4696-9768-742e6b696361,rev?*%
%TF.SameCoordinates,Original*%
%TF.FileFunction,Soldermask,Top*%
%TF.FilePolarity,Negative*%
%FSLAX46Y46*%
G04 Gerber Fmt 4.6, Leading zero omitted, Abs format (unit mm)*
G04 Created by KiCad (PCBNEW 7.0.8) date 2023-11-20 10:49:13*
%MOMM*%
%LPD*%
G01*
G04 APERTURE LIST*
%ADD10R,1.905000X2.000000*%
%ADD11O,1.905000X2.000000*%
%ADD12C,3.600000*%
%ADD13C,5.600000*%
%ADD14C,1.600000*%
%ADD15O,1.600000X1.600000*%
%ADD16R,1.050000X1.500000*%
%ADD17O,1.050000X1.500000*%
%ADD18R,2.100000X2.100000*%
%ADD19C,2.100000*%
G04 APERTURE END LIST*
D10*
%TO.C,Q4*%
X124550000Y-97250000D03*
D11*
X122010000Y-97250000D03*
X119470000Y-97250000D03*
%TD*%
D12*
%TO.C,H2*%
X161250000Y-72250000D03*
D13*
X161250000Y-72250000D03*
%TD*%
D14*
%TO.C,R5*%
X154850000Y-97250000D03*
D15*
X142150000Y-97250000D03*
%TD*%
D16*
%TO.C,Q1*%
X133480000Y-114610000D03*
D17*
X134750000Y-114610000D03*
X136020000Y-114610000D03*
%TD*%
D14*
%TO.C,R3*%
X154850000Y-109250000D03*
D15*
X142150000Y-109250000D03*
%TD*%
D10*
%TO.C,Q6*%
X124550000Y-80500000D03*
D11*
X122010000Y-80500000D03*
X119470000Y-80500000D03*
%TD*%
D12*
%TO.C,H3*%
X110250000Y-123250000D03*
D13*
X110250000Y-123250000D03*
%TD*%
D12*
%TO.C,H1*%
X110250000Y-72250000D03*
D13*
X110250000Y-72250000D03*
%TD*%
D18*
%TO.C,J3*%
X162250000Y-111980000D03*
D19*
X162250000Y-114520000D03*
%TD*%
D14*
%TO.C,R8*%
X154850000Y-80750000D03*
D15*
X142150000Y-80750000D03*
%TD*%
D16*
%TO.C,Q3*%
X133480000Y-97250000D03*
D17*
X134750000Y-97250000D03*
X136020000Y-97250000D03*
%TD*%
D14*
%TO.C,R6*%
X154850000Y-91750000D03*
D15*
X142150000Y-91750000D03*
%TD*%
D16*
%TO.C,Q5*%
X133460000Y-80500000D03*
D17*
X134730000Y-80500000D03*
X136000000Y-80500000D03*
%TD*%
D14*
%TO.C,R9*%
X154850000Y-75500000D03*
D15*
X142150000Y-75500000D03*
%TD*%
D18*
%TO.C,J2*%
X109250000Y-101740000D03*
D19*
X109250000Y-99200000D03*
X109250000Y-96660000D03*
X109250000Y-94120000D03*
%TD*%
D14*
%TO.C,R7*%
X154850000Y-86000000D03*
D15*
X142150000Y-86000000D03*
%TD*%
D10*
%TO.C,Q2*%
X124540000Y-114555000D03*
D11*
X122000000Y-114555000D03*
X119460000Y-114555000D03*
%TD*%
D18*
%TO.C,J1*%
X162250000Y-94130000D03*
D19*
X162250000Y-96670000D03*
X162250000Y-99210000D03*
X162250000Y-101750000D03*
%TD*%
D14*
%TO.C,R2*%
X154850000Y-114500000D03*
D15*
X142150000Y-114500000D03*
%TD*%
D12*
%TO.C,H4*%
X161250000Y-123250000D03*
D13*
X161250000Y-123250000D03*
%TD*%
D14*
%TO.C,R1*%
X154850000Y-120000000D03*
D15*
X142150000Y-120000000D03*
%TD*%
D14*
%TO.C,R4*%
X154850000Y-102500000D03*
D15*
X142150000Y-102500000D03*
%TD*%
M02*
