%TF.GenerationSoftware,KiCad,Pcbnew,7.0.8*%
%TF.CreationDate,2023-11-20T10:49:13-05:00*%
%TF.ProjectId,StackLight,53746163-6b4c-4696-9768-742e6b696361,rev?*%
%TF.SameCoordinates,Original*%
%TF.FileFunction,Copper,L1,Top*%
%TF.FilePolarity,Positive*%
%FSLAX46Y46*%
G04 Gerber Fmt 4.6, Leading zero omitted, Abs format (unit mm)*
G04 Created by KiCad (PCBNEW 7.0.8) date 2023-11-20 10:49:13*
%MOMM*%
%LPD*%
G01*
G04 APERTURE LIST*
%TA.AperFunction,ComponentPad*%
%ADD10R,1.905000X2.000000*%
%TD*%
%TA.AperFunction,ComponentPad*%
%ADD11O,1.905000X2.000000*%
%TD*%
%TA.AperFunction,ComponentPad*%
%ADD12C,3.600000*%
%TD*%
%TA.AperFunction,ConnectorPad*%
%ADD13C,5.600000*%
%TD*%
%TA.AperFunction,ComponentPad*%
%ADD14C,1.600000*%
%TD*%
%TA.AperFunction,ComponentPad*%
%ADD15O,1.600000X1.600000*%
%TD*%
%TA.AperFunction,ComponentPad*%
%ADD16R,1.050000X1.500000*%
%TD*%
%TA.AperFunction,ComponentPad*%
%ADD17O,1.050000X1.500000*%
%TD*%
%TA.AperFunction,ComponentPad*%
%ADD18R,2.100000X2.100000*%
%TD*%
%TA.AperFunction,ComponentPad*%
%ADD19C,2.100000*%
%TD*%
%TA.AperFunction,Conductor*%
%ADD20C,0.250000*%
%TD*%
G04 APERTURE END LIST*
D10*
%TO.P,Q4,1,G*%
%TO.N,Net-(Q3-D)*%
X124550000Y-97250000D03*
D11*
%TO.P,Q4,2,D*%
%TO.N,LED_2*%
X122010000Y-97250000D03*
%TO.P,Q4,3,S*%
%TO.N,+12V*%
X119470000Y-97250000D03*
%TD*%
D12*
%TO.P,H2,1,1*%
%TO.N,LED_GND*%
X161250000Y-72250000D03*
D13*
X161250000Y-72250000D03*
%TD*%
D14*
%TO.P,R5,1*%
%TO.N,ARD_2*%
X154850000Y-97250000D03*
D15*
%TO.P,R5,2*%
%TO.N,Net-(Q3-G)*%
X142150000Y-97250000D03*
%TD*%
D16*
%TO.P,Q1,1,D*%
%TO.N,Net-(Q1-D)*%
X133480000Y-114610000D03*
D17*
%TO.P,Q1,2,G*%
%TO.N,Net-(Q1-G)*%
X134750000Y-114610000D03*
%TO.P,Q1,3,S*%
%TO.N,LED_GND*%
X136020000Y-114610000D03*
%TD*%
D14*
%TO.P,R3,1*%
%TO.N,LED_GND*%
X154850000Y-109250000D03*
D15*
%TO.P,R3,2*%
%TO.N,Net-(Q1-G)*%
X142150000Y-109250000D03*
%TD*%
D10*
%TO.P,Q6,1,G*%
%TO.N,Net-(Q5-D)*%
X124550000Y-80500000D03*
D11*
%TO.P,Q6,2,D*%
%TO.N,LED_3*%
X122010000Y-80500000D03*
%TO.P,Q6,3,S*%
%TO.N,+12V*%
X119470000Y-80500000D03*
%TD*%
D12*
%TO.P,H3,1,1*%
%TO.N,LED_GND*%
X110250000Y-123250000D03*
D13*
X110250000Y-123250000D03*
%TD*%
D12*
%TO.P,H1,1,1*%
%TO.N,LED_GND*%
X110250000Y-72250000D03*
D13*
X110250000Y-72250000D03*
%TD*%
D18*
%TO.P,J3,1,Pin_1*%
%TO.N,+12V*%
X162250000Y-111980000D03*
D19*
%TO.P,J3,2,Pin_2*%
%TO.N,LED_GND*%
X162250000Y-114520000D03*
%TD*%
D14*
%TO.P,R8,1*%
%TO.N,ARD_3*%
X154850000Y-80750000D03*
D15*
%TO.P,R8,2*%
%TO.N,Net-(Q5-G)*%
X142150000Y-80750000D03*
%TD*%
D16*
%TO.P,Q3,1,D*%
%TO.N,Net-(Q3-D)*%
X133480000Y-97250000D03*
D17*
%TO.P,Q3,2,G*%
%TO.N,Net-(Q3-G)*%
X134750000Y-97250000D03*
%TO.P,Q3,3,S*%
%TO.N,LED_GND*%
X136020000Y-97250000D03*
%TD*%
D14*
%TO.P,R6,1*%
%TO.N,+12V*%
X154850000Y-91750000D03*
D15*
%TO.P,R6,2*%
%TO.N,Net-(Q3-D)*%
X142150000Y-91750000D03*
%TD*%
D16*
%TO.P,Q5,1,D*%
%TO.N,Net-(Q5-D)*%
X133460000Y-80500000D03*
D17*
%TO.P,Q5,2,G*%
%TO.N,Net-(Q5-G)*%
X134730000Y-80500000D03*
%TO.P,Q5,3,S*%
%TO.N,LED_GND*%
X136000000Y-80500000D03*
%TD*%
D14*
%TO.P,R9,1*%
%TO.N,+12V*%
X154850000Y-75500000D03*
D15*
%TO.P,R9,2*%
%TO.N,Net-(Q5-D)*%
X142150000Y-75500000D03*
%TD*%
D18*
%TO.P,J2,1,Pin_1*%
%TO.N,LED_1*%
X109250000Y-101740000D03*
D19*
%TO.P,J2,2,Pin_2*%
%TO.N,LED_2*%
X109250000Y-99200000D03*
%TO.P,J2,3,Pin_3*%
%TO.N,LED_3*%
X109250000Y-96660000D03*
%TO.P,J2,4,Pin_4*%
%TO.N,LED_GND*%
X109250000Y-94120000D03*
%TD*%
D14*
%TO.P,R7,1*%
%TO.N,LED_GND*%
X154850000Y-86000000D03*
D15*
%TO.P,R7,2*%
%TO.N,Net-(Q5-G)*%
X142150000Y-86000000D03*
%TD*%
D10*
%TO.P,Q2,1,G*%
%TO.N,Net-(Q1-D)*%
X124540000Y-114555000D03*
D11*
%TO.P,Q2,2,D*%
%TO.N,LED_1*%
X122000000Y-114555000D03*
%TO.P,Q2,3,S*%
%TO.N,+12V*%
X119460000Y-114555000D03*
%TD*%
D18*
%TO.P,J1,1,Pin_1*%
%TO.N,ARD_1*%
X162250000Y-94130000D03*
D19*
%TO.P,J1,2,Pin_2*%
%TO.N,ARD_2*%
X162250000Y-96670000D03*
%TO.P,J1,3,Pin_3*%
%TO.N,ARD_3*%
X162250000Y-99210000D03*
%TO.P,J1,4,Pin_4*%
%TO.N,LED_GND*%
X162250000Y-101750000D03*
%TD*%
D14*
%TO.P,R2,1*%
%TO.N,ARD_1*%
X154850000Y-114500000D03*
D15*
%TO.P,R2,2*%
%TO.N,Net-(Q1-G)*%
X142150000Y-114500000D03*
%TD*%
D12*
%TO.P,H4,1,1*%
%TO.N,LED_GND*%
X161250000Y-123250000D03*
D13*
X161250000Y-123250000D03*
%TD*%
D14*
%TO.P,R1,1*%
%TO.N,+12V*%
X154850000Y-120000000D03*
D15*
%TO.P,R1,2*%
%TO.N,Net-(Q1-D)*%
X142150000Y-120000000D03*
%TD*%
D14*
%TO.P,R4,1*%
%TO.N,LED_GND*%
X154850000Y-102500000D03*
D15*
%TO.P,R4,2*%
%TO.N,Net-(Q3-G)*%
X142150000Y-102500000D03*
%TD*%
D20*
%TO.N,Net-(Q1-D)*%
X124540000Y-114555000D02*
X133425000Y-114555000D01*
%TO.N,Net-(Q1-G)*%
X139523000Y-116000000D02*
X135500000Y-116000000D01*
X141023000Y-114500000D02*
X139523000Y-116000000D01*
X135500000Y-116000000D02*
X134750000Y-115250000D01*
X134750000Y-115250000D02*
X134750000Y-114610000D01*
X142150000Y-114500000D02*
X141023000Y-114500000D01*
%TO.N,+12V*%
X155750000Y-75500000D02*
X154850000Y-75500000D01*
X154850000Y-91750000D02*
X157500000Y-89100000D01*
X157500000Y-77250000D02*
X155750000Y-75500000D01*
X157500000Y-89100000D02*
X157500000Y-77250000D01*
%TO.N,LED_1*%
X109250000Y-101805000D02*
X110305000Y-101805000D01*
X122000000Y-113500000D02*
X122000000Y-114555000D01*
X110305000Y-101805000D02*
X122000000Y-113500000D01*
%TO.N,Net-(Q3-D)*%
X137883000Y-91750000D02*
X133460000Y-96173100D01*
X124500000Y-97250000D02*
X133480000Y-97250000D01*
X133460000Y-96173100D02*
X133460000Y-96711500D01*
X142150000Y-91750000D02*
X137883000Y-91750000D01*
%TO.N,Net-(Q3-G)*%
X139523000Y-95750000D02*
X135250000Y-95750000D01*
X142150000Y-97250000D02*
X141023000Y-97250000D01*
X141023000Y-97250000D02*
X139523000Y-95750000D01*
X134730000Y-96270000D02*
X134730000Y-97250000D01*
X135250000Y-95750000D02*
X134730000Y-96270000D01*
%TO.N,LED_2*%
X109250000Y-99200000D02*
X121350000Y-99200000D01*
X122010000Y-98540000D02*
X122010000Y-97250000D01*
X121350000Y-99200000D02*
X122010000Y-98540000D01*
%TO.N,Net-(Q5-D)*%
X133460000Y-79540000D02*
X137500000Y-75500000D01*
X124500000Y-80500000D02*
X133460000Y-80500000D01*
X133460000Y-80500000D02*
X133460000Y-79540000D01*
X137500000Y-75500000D02*
X142400000Y-75500000D01*
%TO.N,Net-(Q5-G)*%
X135076900Y-81576900D02*
X134730000Y-81230000D01*
X134730000Y-81230000D02*
X134730000Y-80500000D01*
X141272900Y-80750000D02*
X140446000Y-81576900D01*
X140446000Y-81576900D02*
X135076900Y-81576900D01*
X142150000Y-80750000D02*
X141272900Y-80750000D01*
%TO.N,LED_3*%
X122010000Y-83900000D02*
X122010000Y-80550000D01*
X109250000Y-96660000D02*
X122010000Y-83900000D01*
%TO.N,ARD_2*%
X155350000Y-96750000D02*
X154850000Y-97250000D01*
X162170000Y-96750000D02*
X155350000Y-96750000D01*
%TD*%
M02*
