%TF.GenerationSoftware,KiCad,Pcbnew,7.0.8*%
%TF.CreationDate,2023-11-11T13:48:34-05:00*%
%TF.ProjectId,StackLight,53746163-6b4c-4696-9768-742e6b696361,rev?*%
%TF.SameCoordinates,Original*%
%TF.FileFunction,Drillmap*%
%TF.FilePolarity,Positive*%
%FSLAX45Y45*%
G04 Gerber Fmt 4.5, Leading zero omitted, Abs format (unit mm)*
G04 Created by KiCad (PCBNEW 7.0.8) date 2023-11-11 13:48:34*
%MOMM*%
%LPD*%
G01*
G04 APERTURE LIST*
%ADD10C,0.200000*%
%ADD11C,0.075000*%
%ADD12C,0.080000*%
%ADD13C,0.110000*%
%ADD14C,0.320000*%
G04 APERTURE END LIST*
D10*
X15950000Y-12775000D02*
X11200000Y-12775000D01*
X16575000Y-7400000D02*
X16575000Y-12150000D01*
X11200000Y-6775000D02*
X15950000Y-6775000D01*
X10575000Y-12150000D02*
X10575000Y-7400000D01*
X10575000Y-12150000D02*
G75*
G03*
X11200000Y-12775000I625000J0D01*
G01*
X15950000Y-12775000D02*
G75*
G03*
X16575000Y-12150000I0J625000D01*
G01*
X16575000Y-7400000D02*
G75*
G03*
X15950000Y-6775000I-625000J0D01*
G01*
X11200000Y-6775000D02*
G75*
G03*
X10575000Y-7400000I0J-625000D01*
G01*
D11*
X13308500Y-8012500D02*
X13383500Y-8087500D01*
X13383500Y-8012500D02*
X13308500Y-8087500D01*
X13308500Y-9687500D02*
X13383500Y-9762500D01*
X13383500Y-9687500D02*
X13308500Y-9762500D01*
X13310500Y-11412500D02*
X13385500Y-11487500D01*
X13385500Y-11412500D02*
X13310500Y-11487500D01*
X13435500Y-8012500D02*
X13510500Y-8087500D01*
X13510500Y-8012500D02*
X13435500Y-8087500D01*
X13435500Y-9687500D02*
X13510500Y-9762500D01*
X13510500Y-9687500D02*
X13435500Y-9762500D01*
X13437500Y-11412500D02*
X13512500Y-11487500D01*
X13512500Y-11412500D02*
X13437500Y-11487500D01*
X13562500Y-8012500D02*
X13637500Y-8087500D01*
X13637500Y-8012500D02*
X13562500Y-8087500D01*
X13562500Y-9687500D02*
X13637500Y-9762500D01*
X13637500Y-9687500D02*
X13562500Y-9762500D01*
X13564500Y-11412500D02*
X13639500Y-11487500D01*
X13639500Y-11412500D02*
X13564500Y-11487500D01*
D12*
X14255000Y-8600000D02*
G75*
G03*
X14255000Y-8600000I-40000J0D01*
G01*
X14255000Y-9175000D02*
G75*
G03*
X14255000Y-9175000I-40000J0D01*
G01*
X14255000Y-9725000D02*
G75*
G03*
X14255000Y-9725000I-40000J0D01*
G01*
X14255000Y-10250000D02*
G75*
G03*
X14255000Y-10250000I-40000J0D01*
G01*
X14255000Y-10925000D02*
G75*
G03*
X14255000Y-10925000I-40000J0D01*
G01*
X14255000Y-11450000D02*
G75*
G03*
X14255000Y-11450000I-40000J0D01*
G01*
X14255000Y-12000000D02*
G75*
G03*
X14255000Y-12000000I-40000J0D01*
G01*
X14280000Y-7550000D02*
G75*
G03*
X14280000Y-7550000I-40000J0D01*
G01*
X14280000Y-8075000D02*
G75*
G03*
X14280000Y-8075000I-40000J0D01*
G01*
X15525000Y-8600000D02*
G75*
G03*
X15525000Y-8600000I-40000J0D01*
G01*
X15525000Y-9175000D02*
G75*
G03*
X15525000Y-9175000I-40000J0D01*
G01*
X15525000Y-9725000D02*
G75*
G03*
X15525000Y-9725000I-40000J0D01*
G01*
X15525000Y-10250000D02*
G75*
G03*
X15525000Y-10250000I-40000J0D01*
G01*
X15525000Y-10925000D02*
G75*
G03*
X15525000Y-10925000I-40000J0D01*
G01*
X15525000Y-11450000D02*
G75*
G03*
X15525000Y-11450000I-40000J0D01*
G01*
X15525000Y-12000000D02*
G75*
G03*
X15525000Y-12000000I-40000J0D01*
G01*
X15550000Y-7550000D02*
G75*
G03*
X15550000Y-7550000I-40000J0D01*
G01*
X15550000Y-8075000D02*
G75*
G03*
X15550000Y-8075000I-40000J0D01*
G01*
D13*
X10925000Y-9357000D02*
X10925000Y-9467000D01*
X10870000Y-9412000D02*
X10980000Y-9412000D01*
X10925000Y-9611000D02*
X10925000Y-9721000D01*
X10870000Y-9666000D02*
X10980000Y-9666000D01*
X10925000Y-9865000D02*
X10925000Y-9975000D01*
X10870000Y-9920000D02*
X10980000Y-9920000D01*
X10925000Y-10119000D02*
X10925000Y-10229000D01*
X10870000Y-10174000D02*
X10980000Y-10174000D01*
X11942000Y-7995000D02*
X11942000Y-8105000D01*
X11887000Y-8050000D02*
X11997000Y-8050000D01*
X11942000Y-9670000D02*
X11942000Y-9780000D01*
X11887000Y-9725000D02*
X11997000Y-9725000D01*
X11946000Y-11400500D02*
X11946000Y-11510500D01*
X11891000Y-11455500D02*
X12001000Y-11455500D01*
X12196000Y-7995000D02*
X12196000Y-8105000D01*
X12141000Y-8050000D02*
X12251000Y-8050000D01*
X12196000Y-9670000D02*
X12196000Y-9780000D01*
X12141000Y-9725000D02*
X12251000Y-9725000D01*
X12200000Y-11400500D02*
X12200000Y-11510500D01*
X12145000Y-11455500D02*
X12255000Y-11455500D01*
X12450000Y-7995000D02*
X12450000Y-8105000D01*
X12395000Y-8050000D02*
X12505000Y-8050000D01*
X12450000Y-9670000D02*
X12450000Y-9780000D01*
X12395000Y-9725000D02*
X12505000Y-9725000D01*
X12454000Y-11400500D02*
X12454000Y-11510500D01*
X12399000Y-11455500D02*
X12509000Y-11455500D01*
X16225000Y-9358000D02*
X16225000Y-9468000D01*
X16170000Y-9413000D02*
X16280000Y-9413000D01*
X16225000Y-9612000D02*
X16225000Y-9722000D01*
X16170000Y-9667000D02*
X16280000Y-9667000D01*
X16225000Y-9866000D02*
X16225000Y-9976000D01*
X16170000Y-9921000D02*
X16280000Y-9921000D01*
X16225000Y-10120000D02*
X16225000Y-10230000D01*
X16170000Y-10175000D02*
X16280000Y-10175000D01*
X16225000Y-11143000D02*
X16225000Y-11253000D01*
X16170000Y-11198000D02*
X16280000Y-11198000D01*
X16225000Y-11397000D02*
X16225000Y-11507000D01*
X16170000Y-11452000D02*
X16280000Y-11452000D01*
D14*
X11138138Y-7338138D02*
X11138138Y-7111862D01*
X10911862Y-7111862D01*
X10911862Y-7338138D01*
X11138138Y-7338138D01*
X11138138Y-12438138D02*
X11138138Y-12211862D01*
X10911862Y-12211862D01*
X10911862Y-12438138D01*
X11138138Y-12438138D01*
X16238138Y-7338138D02*
X16238138Y-7111862D01*
X16011862Y-7111862D01*
X16011862Y-7338138D01*
X16238138Y-7338138D01*
X16238138Y-12438138D02*
X16238138Y-12211862D01*
X16011862Y-12211862D01*
X16011862Y-12438138D01*
X16238138Y-12438138D01*
D10*
X10825777Y-13096484D02*
X10825777Y-12896484D01*
X10825777Y-12896484D02*
X10873396Y-12896484D01*
X10873396Y-12896484D02*
X10901967Y-12906008D01*
X10901967Y-12906008D02*
X10921015Y-12925055D01*
X10921015Y-12925055D02*
X10930539Y-12944103D01*
X10930539Y-12944103D02*
X10940063Y-12982198D01*
X10940063Y-12982198D02*
X10940063Y-13010769D01*
X10940063Y-13010769D02*
X10930539Y-13048865D01*
X10930539Y-13048865D02*
X10921015Y-13067912D01*
X10921015Y-13067912D02*
X10901967Y-13086960D01*
X10901967Y-13086960D02*
X10873396Y-13096484D01*
X10873396Y-13096484D02*
X10825777Y-13096484D01*
X11025777Y-13096484D02*
X11025777Y-12963150D01*
X11025777Y-13001246D02*
X11035301Y-12982198D01*
X11035301Y-12982198D02*
X11044824Y-12972674D01*
X11044824Y-12972674D02*
X11063872Y-12963150D01*
X11063872Y-12963150D02*
X11082920Y-12963150D01*
X11149586Y-13096484D02*
X11149586Y-12963150D01*
X11149586Y-12896484D02*
X11140063Y-12906008D01*
X11140063Y-12906008D02*
X11149586Y-12915531D01*
X11149586Y-12915531D02*
X11159110Y-12906008D01*
X11159110Y-12906008D02*
X11149586Y-12896484D01*
X11149586Y-12896484D02*
X11149586Y-12915531D01*
X11273396Y-13096484D02*
X11254348Y-13086960D01*
X11254348Y-13086960D02*
X11244824Y-13067912D01*
X11244824Y-13067912D02*
X11244824Y-12896484D01*
X11378158Y-13096484D02*
X11359110Y-13086960D01*
X11359110Y-13086960D02*
X11349586Y-13067912D01*
X11349586Y-13067912D02*
X11349586Y-12896484D01*
X11606729Y-13096484D02*
X11606729Y-12896484D01*
X11606729Y-12896484D02*
X11673396Y-13039341D01*
X11673396Y-13039341D02*
X11740062Y-12896484D01*
X11740062Y-12896484D02*
X11740062Y-13096484D01*
X11921015Y-13096484D02*
X11921015Y-12991722D01*
X11921015Y-12991722D02*
X11911491Y-12972674D01*
X11911491Y-12972674D02*
X11892443Y-12963150D01*
X11892443Y-12963150D02*
X11854348Y-12963150D01*
X11854348Y-12963150D02*
X11835301Y-12972674D01*
X11921015Y-13086960D02*
X11901967Y-13096484D01*
X11901967Y-13096484D02*
X11854348Y-13096484D01*
X11854348Y-13096484D02*
X11835301Y-13086960D01*
X11835301Y-13086960D02*
X11825777Y-13067912D01*
X11825777Y-13067912D02*
X11825777Y-13048865D01*
X11825777Y-13048865D02*
X11835301Y-13029817D01*
X11835301Y-13029817D02*
X11854348Y-13020293D01*
X11854348Y-13020293D02*
X11901967Y-13020293D01*
X11901967Y-13020293D02*
X11921015Y-13010769D01*
X12016253Y-12963150D02*
X12016253Y-13163150D01*
X12016253Y-12972674D02*
X12035301Y-12963150D01*
X12035301Y-12963150D02*
X12073396Y-12963150D01*
X12073396Y-12963150D02*
X12092443Y-12972674D01*
X12092443Y-12972674D02*
X12101967Y-12982198D01*
X12101967Y-12982198D02*
X12111491Y-13001246D01*
X12111491Y-13001246D02*
X12111491Y-13058388D01*
X12111491Y-13058388D02*
X12101967Y-13077436D01*
X12101967Y-13077436D02*
X12092443Y-13086960D01*
X12092443Y-13086960D02*
X12073396Y-13096484D01*
X12073396Y-13096484D02*
X12035301Y-13096484D01*
X12035301Y-13096484D02*
X12016253Y-13086960D01*
X12197205Y-13077436D02*
X12206729Y-13086960D01*
X12206729Y-13086960D02*
X12197205Y-13096484D01*
X12197205Y-13096484D02*
X12187682Y-13086960D01*
X12187682Y-13086960D02*
X12197205Y-13077436D01*
X12197205Y-13077436D02*
X12197205Y-13096484D01*
X12197205Y-12972674D02*
X12206729Y-12982198D01*
X12206729Y-12982198D02*
X12197205Y-12991722D01*
X12197205Y-12991722D02*
X12187682Y-12982198D01*
X12187682Y-12982198D02*
X12197205Y-12972674D01*
X12197205Y-12972674D02*
X12197205Y-12991722D01*
D11*
X10490000Y-13387500D02*
X10565000Y-13462500D01*
X10565000Y-13387500D02*
X10490000Y-13462500D01*
D10*
X10863872Y-13316484D02*
X10882920Y-13316484D01*
X10882920Y-13316484D02*
X10901967Y-13326008D01*
X10901967Y-13326008D02*
X10911491Y-13335531D01*
X10911491Y-13335531D02*
X10921015Y-13354579D01*
X10921015Y-13354579D02*
X10930539Y-13392674D01*
X10930539Y-13392674D02*
X10930539Y-13440293D01*
X10930539Y-13440293D02*
X10921015Y-13478388D01*
X10921015Y-13478388D02*
X10911491Y-13497436D01*
X10911491Y-13497436D02*
X10901967Y-13506960D01*
X10901967Y-13506960D02*
X10882920Y-13516484D01*
X10882920Y-13516484D02*
X10863872Y-13516484D01*
X10863872Y-13516484D02*
X10844824Y-13506960D01*
X10844824Y-13506960D02*
X10835301Y-13497436D01*
X10835301Y-13497436D02*
X10825777Y-13478388D01*
X10825777Y-13478388D02*
X10816253Y-13440293D01*
X10816253Y-13440293D02*
X10816253Y-13392674D01*
X10816253Y-13392674D02*
X10825777Y-13354579D01*
X10825777Y-13354579D02*
X10835301Y-13335531D01*
X10835301Y-13335531D02*
X10844824Y-13326008D01*
X10844824Y-13326008D02*
X10863872Y-13316484D01*
X11016253Y-13497436D02*
X11025777Y-13506960D01*
X11025777Y-13506960D02*
X11016253Y-13516484D01*
X11016253Y-13516484D02*
X11006729Y-13506960D01*
X11006729Y-13506960D02*
X11016253Y-13497436D01*
X11016253Y-13497436D02*
X11016253Y-13516484D01*
X11092444Y-13316484D02*
X11225777Y-13316484D01*
X11225777Y-13316484D02*
X11140063Y-13516484D01*
X11397205Y-13316484D02*
X11301967Y-13316484D01*
X11301967Y-13316484D02*
X11292443Y-13411722D01*
X11292443Y-13411722D02*
X11301967Y-13402198D01*
X11301967Y-13402198D02*
X11321015Y-13392674D01*
X11321015Y-13392674D02*
X11368634Y-13392674D01*
X11368634Y-13392674D02*
X11387682Y-13402198D01*
X11387682Y-13402198D02*
X11397205Y-13411722D01*
X11397205Y-13411722D02*
X11406729Y-13430769D01*
X11406729Y-13430769D02*
X11406729Y-13478388D01*
X11406729Y-13478388D02*
X11397205Y-13497436D01*
X11397205Y-13497436D02*
X11387682Y-13506960D01*
X11387682Y-13506960D02*
X11368634Y-13516484D01*
X11368634Y-13516484D02*
X11321015Y-13516484D01*
X11321015Y-13516484D02*
X11301967Y-13506960D01*
X11301967Y-13506960D02*
X11292443Y-13497436D01*
X11530539Y-13316484D02*
X11549586Y-13316484D01*
X11549586Y-13316484D02*
X11568634Y-13326008D01*
X11568634Y-13326008D02*
X11578158Y-13335531D01*
X11578158Y-13335531D02*
X11587682Y-13354579D01*
X11587682Y-13354579D02*
X11597205Y-13392674D01*
X11597205Y-13392674D02*
X11597205Y-13440293D01*
X11597205Y-13440293D02*
X11587682Y-13478388D01*
X11587682Y-13478388D02*
X11578158Y-13497436D01*
X11578158Y-13497436D02*
X11568634Y-13506960D01*
X11568634Y-13506960D02*
X11549586Y-13516484D01*
X11549586Y-13516484D02*
X11530539Y-13516484D01*
X11530539Y-13516484D02*
X11511491Y-13506960D01*
X11511491Y-13506960D02*
X11501967Y-13497436D01*
X11501967Y-13497436D02*
X11492443Y-13478388D01*
X11492443Y-13478388D02*
X11482920Y-13440293D01*
X11482920Y-13440293D02*
X11482920Y-13392674D01*
X11482920Y-13392674D02*
X11492443Y-13354579D01*
X11492443Y-13354579D02*
X11501967Y-13335531D01*
X11501967Y-13335531D02*
X11511491Y-13326008D01*
X11511491Y-13326008D02*
X11530539Y-13316484D01*
X11682920Y-13516484D02*
X11682920Y-13383150D01*
X11682920Y-13402198D02*
X11692443Y-13392674D01*
X11692443Y-13392674D02*
X11711491Y-13383150D01*
X11711491Y-13383150D02*
X11740063Y-13383150D01*
X11740063Y-13383150D02*
X11759110Y-13392674D01*
X11759110Y-13392674D02*
X11768634Y-13411722D01*
X11768634Y-13411722D02*
X11768634Y-13516484D01*
X11768634Y-13411722D02*
X11778158Y-13392674D01*
X11778158Y-13392674D02*
X11797205Y-13383150D01*
X11797205Y-13383150D02*
X11825777Y-13383150D01*
X11825777Y-13383150D02*
X11844824Y-13392674D01*
X11844824Y-13392674D02*
X11854348Y-13411722D01*
X11854348Y-13411722D02*
X11854348Y-13516484D01*
X11949586Y-13516484D02*
X11949586Y-13383150D01*
X11949586Y-13402198D02*
X11959110Y-13392674D01*
X11959110Y-13392674D02*
X11978158Y-13383150D01*
X11978158Y-13383150D02*
X12006729Y-13383150D01*
X12006729Y-13383150D02*
X12025777Y-13392674D01*
X12025777Y-13392674D02*
X12035301Y-13411722D01*
X12035301Y-13411722D02*
X12035301Y-13516484D01*
X12035301Y-13411722D02*
X12044824Y-13392674D01*
X12044824Y-13392674D02*
X12063872Y-13383150D01*
X12063872Y-13383150D02*
X12092443Y-13383150D01*
X12092443Y-13383150D02*
X12111491Y-13392674D01*
X12111491Y-13392674D02*
X12121015Y-13411722D01*
X12121015Y-13411722D02*
X12121015Y-13516484D01*
X12511491Y-13306960D02*
X12340063Y-13564103D01*
X12768634Y-13316484D02*
X12787682Y-13316484D01*
X12787682Y-13316484D02*
X12806729Y-13326008D01*
X12806729Y-13326008D02*
X12816253Y-13335531D01*
X12816253Y-13335531D02*
X12825777Y-13354579D01*
X12825777Y-13354579D02*
X12835301Y-13392674D01*
X12835301Y-13392674D02*
X12835301Y-13440293D01*
X12835301Y-13440293D02*
X12825777Y-13478388D01*
X12825777Y-13478388D02*
X12816253Y-13497436D01*
X12816253Y-13497436D02*
X12806729Y-13506960D01*
X12806729Y-13506960D02*
X12787682Y-13516484D01*
X12787682Y-13516484D02*
X12768634Y-13516484D01*
X12768634Y-13516484D02*
X12749586Y-13506960D01*
X12749586Y-13506960D02*
X12740063Y-13497436D01*
X12740063Y-13497436D02*
X12730539Y-13478388D01*
X12730539Y-13478388D02*
X12721015Y-13440293D01*
X12721015Y-13440293D02*
X12721015Y-13392674D01*
X12721015Y-13392674D02*
X12730539Y-13354579D01*
X12730539Y-13354579D02*
X12740063Y-13335531D01*
X12740063Y-13335531D02*
X12749586Y-13326008D01*
X12749586Y-13326008D02*
X12768634Y-13316484D01*
X12921015Y-13497436D02*
X12930539Y-13506960D01*
X12930539Y-13506960D02*
X12921015Y-13516484D01*
X12921015Y-13516484D02*
X12911491Y-13506960D01*
X12911491Y-13506960D02*
X12921015Y-13497436D01*
X12921015Y-13497436D02*
X12921015Y-13516484D01*
X13054348Y-13316484D02*
X13073396Y-13316484D01*
X13073396Y-13316484D02*
X13092444Y-13326008D01*
X13092444Y-13326008D02*
X13101967Y-13335531D01*
X13101967Y-13335531D02*
X13111491Y-13354579D01*
X13111491Y-13354579D02*
X13121015Y-13392674D01*
X13121015Y-13392674D02*
X13121015Y-13440293D01*
X13121015Y-13440293D02*
X13111491Y-13478388D01*
X13111491Y-13478388D02*
X13101967Y-13497436D01*
X13101967Y-13497436D02*
X13092444Y-13506960D01*
X13092444Y-13506960D02*
X13073396Y-13516484D01*
X13073396Y-13516484D02*
X13054348Y-13516484D01*
X13054348Y-13516484D02*
X13035301Y-13506960D01*
X13035301Y-13506960D02*
X13025777Y-13497436D01*
X13025777Y-13497436D02*
X13016253Y-13478388D01*
X13016253Y-13478388D02*
X13006729Y-13440293D01*
X13006729Y-13440293D02*
X13006729Y-13392674D01*
X13006729Y-13392674D02*
X13016253Y-13354579D01*
X13016253Y-13354579D02*
X13025777Y-13335531D01*
X13025777Y-13335531D02*
X13035301Y-13326008D01*
X13035301Y-13326008D02*
X13054348Y-13316484D01*
X13197206Y-13335531D02*
X13206729Y-13326008D01*
X13206729Y-13326008D02*
X13225777Y-13316484D01*
X13225777Y-13316484D02*
X13273396Y-13316484D01*
X13273396Y-13316484D02*
X13292444Y-13326008D01*
X13292444Y-13326008D02*
X13301967Y-13335531D01*
X13301967Y-13335531D02*
X13311491Y-13354579D01*
X13311491Y-13354579D02*
X13311491Y-13373627D01*
X13311491Y-13373627D02*
X13301967Y-13402198D01*
X13301967Y-13402198D02*
X13187682Y-13516484D01*
X13187682Y-13516484D02*
X13311491Y-13516484D01*
X13406729Y-13516484D02*
X13444825Y-13516484D01*
X13444825Y-13516484D02*
X13463872Y-13506960D01*
X13463872Y-13506960D02*
X13473396Y-13497436D01*
X13473396Y-13497436D02*
X13492444Y-13468865D01*
X13492444Y-13468865D02*
X13501967Y-13430769D01*
X13501967Y-13430769D02*
X13501967Y-13354579D01*
X13501967Y-13354579D02*
X13492444Y-13335531D01*
X13492444Y-13335531D02*
X13482920Y-13326008D01*
X13482920Y-13326008D02*
X13463872Y-13316484D01*
X13463872Y-13316484D02*
X13425777Y-13316484D01*
X13425777Y-13316484D02*
X13406729Y-13326008D01*
X13406729Y-13326008D02*
X13397206Y-13335531D01*
X13397206Y-13335531D02*
X13387682Y-13354579D01*
X13387682Y-13354579D02*
X13387682Y-13402198D01*
X13387682Y-13402198D02*
X13397206Y-13421246D01*
X13397206Y-13421246D02*
X13406729Y-13430769D01*
X13406729Y-13430769D02*
X13425777Y-13440293D01*
X13425777Y-13440293D02*
X13463872Y-13440293D01*
X13463872Y-13440293D02*
X13482920Y-13430769D01*
X13482920Y-13430769D02*
X13492444Y-13421246D01*
X13492444Y-13421246D02*
X13501967Y-13402198D01*
X13682920Y-13316484D02*
X13587682Y-13316484D01*
X13587682Y-13316484D02*
X13578158Y-13411722D01*
X13578158Y-13411722D02*
X13587682Y-13402198D01*
X13587682Y-13402198D02*
X13606729Y-13392674D01*
X13606729Y-13392674D02*
X13654348Y-13392674D01*
X13654348Y-13392674D02*
X13673396Y-13402198D01*
X13673396Y-13402198D02*
X13682920Y-13411722D01*
X13682920Y-13411722D02*
X13692444Y-13430769D01*
X13692444Y-13430769D02*
X13692444Y-13478388D01*
X13692444Y-13478388D02*
X13682920Y-13497436D01*
X13682920Y-13497436D02*
X13673396Y-13506960D01*
X13673396Y-13506960D02*
X13654348Y-13516484D01*
X13654348Y-13516484D02*
X13606729Y-13516484D01*
X13606729Y-13516484D02*
X13587682Y-13506960D01*
X13587682Y-13506960D02*
X13578158Y-13497436D01*
X13768634Y-13316484D02*
X13768634Y-13354579D01*
X13844825Y-13316484D02*
X13844825Y-13354579D01*
X14140063Y-13592674D02*
X14130539Y-13583150D01*
X14130539Y-13583150D02*
X14111491Y-13554579D01*
X14111491Y-13554579D02*
X14101968Y-13535531D01*
X14101968Y-13535531D02*
X14092444Y-13506960D01*
X14092444Y-13506960D02*
X14082920Y-13459341D01*
X14082920Y-13459341D02*
X14082920Y-13421246D01*
X14082920Y-13421246D02*
X14092444Y-13373627D01*
X14092444Y-13373627D02*
X14101968Y-13345055D01*
X14101968Y-13345055D02*
X14111491Y-13326008D01*
X14111491Y-13326008D02*
X14130539Y-13297436D01*
X14130539Y-13297436D02*
X14140063Y-13287912D01*
X14225777Y-13516484D02*
X14263872Y-13516484D01*
X14263872Y-13516484D02*
X14282920Y-13506960D01*
X14282920Y-13506960D02*
X14292444Y-13497436D01*
X14292444Y-13497436D02*
X14311491Y-13468865D01*
X14311491Y-13468865D02*
X14321015Y-13430769D01*
X14321015Y-13430769D02*
X14321015Y-13354579D01*
X14321015Y-13354579D02*
X14311491Y-13335531D01*
X14311491Y-13335531D02*
X14301968Y-13326008D01*
X14301968Y-13326008D02*
X14282920Y-13316484D01*
X14282920Y-13316484D02*
X14244825Y-13316484D01*
X14244825Y-13316484D02*
X14225777Y-13326008D01*
X14225777Y-13326008D02*
X14216253Y-13335531D01*
X14216253Y-13335531D02*
X14206729Y-13354579D01*
X14206729Y-13354579D02*
X14206729Y-13402198D01*
X14206729Y-13402198D02*
X14216253Y-13421246D01*
X14216253Y-13421246D02*
X14225777Y-13430769D01*
X14225777Y-13430769D02*
X14244825Y-13440293D01*
X14244825Y-13440293D02*
X14282920Y-13440293D01*
X14282920Y-13440293D02*
X14301968Y-13430769D01*
X14301968Y-13430769D02*
X14311491Y-13421246D01*
X14311491Y-13421246D02*
X14321015Y-13402198D01*
X14559110Y-13516484D02*
X14559110Y-13316484D01*
X14644825Y-13516484D02*
X14644825Y-13411722D01*
X14644825Y-13411722D02*
X14635301Y-13392674D01*
X14635301Y-13392674D02*
X14616253Y-13383150D01*
X14616253Y-13383150D02*
X14587682Y-13383150D01*
X14587682Y-13383150D02*
X14568634Y-13392674D01*
X14568634Y-13392674D02*
X14559110Y-13402198D01*
X14768634Y-13516484D02*
X14749587Y-13506960D01*
X14749587Y-13506960D02*
X14740063Y-13497436D01*
X14740063Y-13497436D02*
X14730539Y-13478388D01*
X14730539Y-13478388D02*
X14730539Y-13421246D01*
X14730539Y-13421246D02*
X14740063Y-13402198D01*
X14740063Y-13402198D02*
X14749587Y-13392674D01*
X14749587Y-13392674D02*
X14768634Y-13383150D01*
X14768634Y-13383150D02*
X14797206Y-13383150D01*
X14797206Y-13383150D02*
X14816253Y-13392674D01*
X14816253Y-13392674D02*
X14825777Y-13402198D01*
X14825777Y-13402198D02*
X14835301Y-13421246D01*
X14835301Y-13421246D02*
X14835301Y-13478388D01*
X14835301Y-13478388D02*
X14825777Y-13497436D01*
X14825777Y-13497436D02*
X14816253Y-13506960D01*
X14816253Y-13506960D02*
X14797206Y-13516484D01*
X14797206Y-13516484D02*
X14768634Y-13516484D01*
X14949587Y-13516484D02*
X14930539Y-13506960D01*
X14930539Y-13506960D02*
X14921015Y-13487912D01*
X14921015Y-13487912D02*
X14921015Y-13316484D01*
X15101968Y-13506960D02*
X15082920Y-13516484D01*
X15082920Y-13516484D02*
X15044825Y-13516484D01*
X15044825Y-13516484D02*
X15025777Y-13506960D01*
X15025777Y-13506960D02*
X15016253Y-13487912D01*
X15016253Y-13487912D02*
X15016253Y-13411722D01*
X15016253Y-13411722D02*
X15025777Y-13392674D01*
X15025777Y-13392674D02*
X15044825Y-13383150D01*
X15044825Y-13383150D02*
X15082920Y-13383150D01*
X15082920Y-13383150D02*
X15101968Y-13392674D01*
X15101968Y-13392674D02*
X15111491Y-13411722D01*
X15111491Y-13411722D02*
X15111491Y-13430769D01*
X15111491Y-13430769D02*
X15016253Y-13449817D01*
X15187682Y-13506960D02*
X15206730Y-13516484D01*
X15206730Y-13516484D02*
X15244825Y-13516484D01*
X15244825Y-13516484D02*
X15263872Y-13506960D01*
X15263872Y-13506960D02*
X15273396Y-13487912D01*
X15273396Y-13487912D02*
X15273396Y-13478388D01*
X15273396Y-13478388D02*
X15263872Y-13459341D01*
X15263872Y-13459341D02*
X15244825Y-13449817D01*
X15244825Y-13449817D02*
X15216253Y-13449817D01*
X15216253Y-13449817D02*
X15197206Y-13440293D01*
X15197206Y-13440293D02*
X15187682Y-13421246D01*
X15187682Y-13421246D02*
X15187682Y-13411722D01*
X15187682Y-13411722D02*
X15197206Y-13392674D01*
X15197206Y-13392674D02*
X15216253Y-13383150D01*
X15216253Y-13383150D02*
X15244825Y-13383150D01*
X15244825Y-13383150D02*
X15263872Y-13392674D01*
X15340063Y-13592674D02*
X15349587Y-13583150D01*
X15349587Y-13583150D02*
X15368634Y-13554579D01*
X15368634Y-13554579D02*
X15378158Y-13535531D01*
X15378158Y-13535531D02*
X15387682Y-13506960D01*
X15387682Y-13506960D02*
X15397206Y-13459341D01*
X15397206Y-13459341D02*
X15397206Y-13421246D01*
X15397206Y-13421246D02*
X15387682Y-13373627D01*
X15387682Y-13373627D02*
X15378158Y-13345055D01*
X15378158Y-13345055D02*
X15368634Y-13326008D01*
X15368634Y-13326008D02*
X15349587Y-13297436D01*
X15349587Y-13297436D02*
X15340063Y-13287912D01*
D12*
X10565000Y-13689000D02*
G75*
G03*
X10565000Y-13689000I-40000J0D01*
G01*
D10*
X10863872Y-13580484D02*
X10882920Y-13580484D01*
X10882920Y-13580484D02*
X10901967Y-13590008D01*
X10901967Y-13590008D02*
X10911491Y-13599531D01*
X10911491Y-13599531D02*
X10921015Y-13618579D01*
X10921015Y-13618579D02*
X10930539Y-13656674D01*
X10930539Y-13656674D02*
X10930539Y-13704293D01*
X10930539Y-13704293D02*
X10921015Y-13742388D01*
X10921015Y-13742388D02*
X10911491Y-13761436D01*
X10911491Y-13761436D02*
X10901967Y-13770960D01*
X10901967Y-13770960D02*
X10882920Y-13780484D01*
X10882920Y-13780484D02*
X10863872Y-13780484D01*
X10863872Y-13780484D02*
X10844824Y-13770960D01*
X10844824Y-13770960D02*
X10835301Y-13761436D01*
X10835301Y-13761436D02*
X10825777Y-13742388D01*
X10825777Y-13742388D02*
X10816253Y-13704293D01*
X10816253Y-13704293D02*
X10816253Y-13656674D01*
X10816253Y-13656674D02*
X10825777Y-13618579D01*
X10825777Y-13618579D02*
X10835301Y-13599531D01*
X10835301Y-13599531D02*
X10844824Y-13590008D01*
X10844824Y-13590008D02*
X10863872Y-13580484D01*
X11016253Y-13761436D02*
X11025777Y-13770960D01*
X11025777Y-13770960D02*
X11016253Y-13780484D01*
X11016253Y-13780484D02*
X11006729Y-13770960D01*
X11006729Y-13770960D02*
X11016253Y-13761436D01*
X11016253Y-13761436D02*
X11016253Y-13780484D01*
X11140063Y-13666198D02*
X11121015Y-13656674D01*
X11121015Y-13656674D02*
X11111491Y-13647150D01*
X11111491Y-13647150D02*
X11101967Y-13628103D01*
X11101967Y-13628103D02*
X11101967Y-13618579D01*
X11101967Y-13618579D02*
X11111491Y-13599531D01*
X11111491Y-13599531D02*
X11121015Y-13590008D01*
X11121015Y-13590008D02*
X11140063Y-13580484D01*
X11140063Y-13580484D02*
X11178158Y-13580484D01*
X11178158Y-13580484D02*
X11197205Y-13590008D01*
X11197205Y-13590008D02*
X11206729Y-13599531D01*
X11206729Y-13599531D02*
X11216253Y-13618579D01*
X11216253Y-13618579D02*
X11216253Y-13628103D01*
X11216253Y-13628103D02*
X11206729Y-13647150D01*
X11206729Y-13647150D02*
X11197205Y-13656674D01*
X11197205Y-13656674D02*
X11178158Y-13666198D01*
X11178158Y-13666198D02*
X11140063Y-13666198D01*
X11140063Y-13666198D02*
X11121015Y-13675722D01*
X11121015Y-13675722D02*
X11111491Y-13685246D01*
X11111491Y-13685246D02*
X11101967Y-13704293D01*
X11101967Y-13704293D02*
X11101967Y-13742388D01*
X11101967Y-13742388D02*
X11111491Y-13761436D01*
X11111491Y-13761436D02*
X11121015Y-13770960D01*
X11121015Y-13770960D02*
X11140063Y-13780484D01*
X11140063Y-13780484D02*
X11178158Y-13780484D01*
X11178158Y-13780484D02*
X11197205Y-13770960D01*
X11197205Y-13770960D02*
X11206729Y-13761436D01*
X11206729Y-13761436D02*
X11216253Y-13742388D01*
X11216253Y-13742388D02*
X11216253Y-13704293D01*
X11216253Y-13704293D02*
X11206729Y-13685246D01*
X11206729Y-13685246D02*
X11197205Y-13675722D01*
X11197205Y-13675722D02*
X11178158Y-13666198D01*
X11340062Y-13580484D02*
X11359110Y-13580484D01*
X11359110Y-13580484D02*
X11378158Y-13590008D01*
X11378158Y-13590008D02*
X11387682Y-13599531D01*
X11387682Y-13599531D02*
X11397205Y-13618579D01*
X11397205Y-13618579D02*
X11406729Y-13656674D01*
X11406729Y-13656674D02*
X11406729Y-13704293D01*
X11406729Y-13704293D02*
X11397205Y-13742388D01*
X11397205Y-13742388D02*
X11387682Y-13761436D01*
X11387682Y-13761436D02*
X11378158Y-13770960D01*
X11378158Y-13770960D02*
X11359110Y-13780484D01*
X11359110Y-13780484D02*
X11340062Y-13780484D01*
X11340062Y-13780484D02*
X11321015Y-13770960D01*
X11321015Y-13770960D02*
X11311491Y-13761436D01*
X11311491Y-13761436D02*
X11301967Y-13742388D01*
X11301967Y-13742388D02*
X11292443Y-13704293D01*
X11292443Y-13704293D02*
X11292443Y-13656674D01*
X11292443Y-13656674D02*
X11301967Y-13618579D01*
X11301967Y-13618579D02*
X11311491Y-13599531D01*
X11311491Y-13599531D02*
X11321015Y-13590008D01*
X11321015Y-13590008D02*
X11340062Y-13580484D01*
X11530539Y-13580484D02*
X11549586Y-13580484D01*
X11549586Y-13580484D02*
X11568634Y-13590008D01*
X11568634Y-13590008D02*
X11578158Y-13599531D01*
X11578158Y-13599531D02*
X11587682Y-13618579D01*
X11587682Y-13618579D02*
X11597205Y-13656674D01*
X11597205Y-13656674D02*
X11597205Y-13704293D01*
X11597205Y-13704293D02*
X11587682Y-13742388D01*
X11587682Y-13742388D02*
X11578158Y-13761436D01*
X11578158Y-13761436D02*
X11568634Y-13770960D01*
X11568634Y-13770960D02*
X11549586Y-13780484D01*
X11549586Y-13780484D02*
X11530539Y-13780484D01*
X11530539Y-13780484D02*
X11511491Y-13770960D01*
X11511491Y-13770960D02*
X11501967Y-13761436D01*
X11501967Y-13761436D02*
X11492443Y-13742388D01*
X11492443Y-13742388D02*
X11482920Y-13704293D01*
X11482920Y-13704293D02*
X11482920Y-13656674D01*
X11482920Y-13656674D02*
X11492443Y-13618579D01*
X11492443Y-13618579D02*
X11501967Y-13599531D01*
X11501967Y-13599531D02*
X11511491Y-13590008D01*
X11511491Y-13590008D02*
X11530539Y-13580484D01*
X11682920Y-13780484D02*
X11682920Y-13647150D01*
X11682920Y-13666198D02*
X11692443Y-13656674D01*
X11692443Y-13656674D02*
X11711491Y-13647150D01*
X11711491Y-13647150D02*
X11740063Y-13647150D01*
X11740063Y-13647150D02*
X11759110Y-13656674D01*
X11759110Y-13656674D02*
X11768634Y-13675722D01*
X11768634Y-13675722D02*
X11768634Y-13780484D01*
X11768634Y-13675722D02*
X11778158Y-13656674D01*
X11778158Y-13656674D02*
X11797205Y-13647150D01*
X11797205Y-13647150D02*
X11825777Y-13647150D01*
X11825777Y-13647150D02*
X11844824Y-13656674D01*
X11844824Y-13656674D02*
X11854348Y-13675722D01*
X11854348Y-13675722D02*
X11854348Y-13780484D01*
X11949586Y-13780484D02*
X11949586Y-13647150D01*
X11949586Y-13666198D02*
X11959110Y-13656674D01*
X11959110Y-13656674D02*
X11978158Y-13647150D01*
X11978158Y-13647150D02*
X12006729Y-13647150D01*
X12006729Y-13647150D02*
X12025777Y-13656674D01*
X12025777Y-13656674D02*
X12035301Y-13675722D01*
X12035301Y-13675722D02*
X12035301Y-13780484D01*
X12035301Y-13675722D02*
X12044824Y-13656674D01*
X12044824Y-13656674D02*
X12063872Y-13647150D01*
X12063872Y-13647150D02*
X12092443Y-13647150D01*
X12092443Y-13647150D02*
X12111491Y-13656674D01*
X12111491Y-13656674D02*
X12121015Y-13675722D01*
X12121015Y-13675722D02*
X12121015Y-13780484D01*
X12511491Y-13570960D02*
X12340063Y-13828103D01*
X12768634Y-13580484D02*
X12787682Y-13580484D01*
X12787682Y-13580484D02*
X12806729Y-13590008D01*
X12806729Y-13590008D02*
X12816253Y-13599531D01*
X12816253Y-13599531D02*
X12825777Y-13618579D01*
X12825777Y-13618579D02*
X12835301Y-13656674D01*
X12835301Y-13656674D02*
X12835301Y-13704293D01*
X12835301Y-13704293D02*
X12825777Y-13742388D01*
X12825777Y-13742388D02*
X12816253Y-13761436D01*
X12816253Y-13761436D02*
X12806729Y-13770960D01*
X12806729Y-13770960D02*
X12787682Y-13780484D01*
X12787682Y-13780484D02*
X12768634Y-13780484D01*
X12768634Y-13780484D02*
X12749586Y-13770960D01*
X12749586Y-13770960D02*
X12740063Y-13761436D01*
X12740063Y-13761436D02*
X12730539Y-13742388D01*
X12730539Y-13742388D02*
X12721015Y-13704293D01*
X12721015Y-13704293D02*
X12721015Y-13656674D01*
X12721015Y-13656674D02*
X12730539Y-13618579D01*
X12730539Y-13618579D02*
X12740063Y-13599531D01*
X12740063Y-13599531D02*
X12749586Y-13590008D01*
X12749586Y-13590008D02*
X12768634Y-13580484D01*
X12921015Y-13761436D02*
X12930539Y-13770960D01*
X12930539Y-13770960D02*
X12921015Y-13780484D01*
X12921015Y-13780484D02*
X12911491Y-13770960D01*
X12911491Y-13770960D02*
X12921015Y-13761436D01*
X12921015Y-13761436D02*
X12921015Y-13780484D01*
X13054348Y-13580484D02*
X13073396Y-13580484D01*
X13073396Y-13580484D02*
X13092444Y-13590008D01*
X13092444Y-13590008D02*
X13101967Y-13599531D01*
X13101967Y-13599531D02*
X13111491Y-13618579D01*
X13111491Y-13618579D02*
X13121015Y-13656674D01*
X13121015Y-13656674D02*
X13121015Y-13704293D01*
X13121015Y-13704293D02*
X13111491Y-13742388D01*
X13111491Y-13742388D02*
X13101967Y-13761436D01*
X13101967Y-13761436D02*
X13092444Y-13770960D01*
X13092444Y-13770960D02*
X13073396Y-13780484D01*
X13073396Y-13780484D02*
X13054348Y-13780484D01*
X13054348Y-13780484D02*
X13035301Y-13770960D01*
X13035301Y-13770960D02*
X13025777Y-13761436D01*
X13025777Y-13761436D02*
X13016253Y-13742388D01*
X13016253Y-13742388D02*
X13006729Y-13704293D01*
X13006729Y-13704293D02*
X13006729Y-13656674D01*
X13006729Y-13656674D02*
X13016253Y-13618579D01*
X13016253Y-13618579D02*
X13025777Y-13599531D01*
X13025777Y-13599531D02*
X13035301Y-13590008D01*
X13035301Y-13590008D02*
X13054348Y-13580484D01*
X13187682Y-13580484D02*
X13311491Y-13580484D01*
X13311491Y-13580484D02*
X13244825Y-13656674D01*
X13244825Y-13656674D02*
X13273396Y-13656674D01*
X13273396Y-13656674D02*
X13292444Y-13666198D01*
X13292444Y-13666198D02*
X13301967Y-13675722D01*
X13301967Y-13675722D02*
X13311491Y-13694769D01*
X13311491Y-13694769D02*
X13311491Y-13742388D01*
X13311491Y-13742388D02*
X13301967Y-13761436D01*
X13301967Y-13761436D02*
X13292444Y-13770960D01*
X13292444Y-13770960D02*
X13273396Y-13780484D01*
X13273396Y-13780484D02*
X13216253Y-13780484D01*
X13216253Y-13780484D02*
X13197206Y-13770960D01*
X13197206Y-13770960D02*
X13187682Y-13761436D01*
X13501967Y-13780484D02*
X13387682Y-13780484D01*
X13444825Y-13780484D02*
X13444825Y-13580484D01*
X13444825Y-13580484D02*
X13425777Y-13609055D01*
X13425777Y-13609055D02*
X13406729Y-13628103D01*
X13406729Y-13628103D02*
X13387682Y-13637627D01*
X13682920Y-13580484D02*
X13587682Y-13580484D01*
X13587682Y-13580484D02*
X13578158Y-13675722D01*
X13578158Y-13675722D02*
X13587682Y-13666198D01*
X13587682Y-13666198D02*
X13606729Y-13656674D01*
X13606729Y-13656674D02*
X13654348Y-13656674D01*
X13654348Y-13656674D02*
X13673396Y-13666198D01*
X13673396Y-13666198D02*
X13682920Y-13675722D01*
X13682920Y-13675722D02*
X13692444Y-13694769D01*
X13692444Y-13694769D02*
X13692444Y-13742388D01*
X13692444Y-13742388D02*
X13682920Y-13761436D01*
X13682920Y-13761436D02*
X13673396Y-13770960D01*
X13673396Y-13770960D02*
X13654348Y-13780484D01*
X13654348Y-13780484D02*
X13606729Y-13780484D01*
X13606729Y-13780484D02*
X13587682Y-13770960D01*
X13587682Y-13770960D02*
X13578158Y-13761436D01*
X13768634Y-13580484D02*
X13768634Y-13618579D01*
X13844825Y-13580484D02*
X13844825Y-13618579D01*
X14140063Y-13856674D02*
X14130539Y-13847150D01*
X14130539Y-13847150D02*
X14111491Y-13818579D01*
X14111491Y-13818579D02*
X14101968Y-13799531D01*
X14101968Y-13799531D02*
X14092444Y-13770960D01*
X14092444Y-13770960D02*
X14082920Y-13723341D01*
X14082920Y-13723341D02*
X14082920Y-13685246D01*
X14082920Y-13685246D02*
X14092444Y-13637627D01*
X14092444Y-13637627D02*
X14101968Y-13609055D01*
X14101968Y-13609055D02*
X14111491Y-13590008D01*
X14111491Y-13590008D02*
X14130539Y-13561436D01*
X14130539Y-13561436D02*
X14140063Y-13551912D01*
X14321015Y-13780484D02*
X14206729Y-13780484D01*
X14263872Y-13780484D02*
X14263872Y-13580484D01*
X14263872Y-13580484D02*
X14244825Y-13609055D01*
X14244825Y-13609055D02*
X14225777Y-13628103D01*
X14225777Y-13628103D02*
X14206729Y-13637627D01*
X14435301Y-13666198D02*
X14416253Y-13656674D01*
X14416253Y-13656674D02*
X14406729Y-13647150D01*
X14406729Y-13647150D02*
X14397206Y-13628103D01*
X14397206Y-13628103D02*
X14397206Y-13618579D01*
X14397206Y-13618579D02*
X14406729Y-13599531D01*
X14406729Y-13599531D02*
X14416253Y-13590008D01*
X14416253Y-13590008D02*
X14435301Y-13580484D01*
X14435301Y-13580484D02*
X14473396Y-13580484D01*
X14473396Y-13580484D02*
X14492444Y-13590008D01*
X14492444Y-13590008D02*
X14501968Y-13599531D01*
X14501968Y-13599531D02*
X14511491Y-13618579D01*
X14511491Y-13618579D02*
X14511491Y-13628103D01*
X14511491Y-13628103D02*
X14501968Y-13647150D01*
X14501968Y-13647150D02*
X14492444Y-13656674D01*
X14492444Y-13656674D02*
X14473396Y-13666198D01*
X14473396Y-13666198D02*
X14435301Y-13666198D01*
X14435301Y-13666198D02*
X14416253Y-13675722D01*
X14416253Y-13675722D02*
X14406729Y-13685246D01*
X14406729Y-13685246D02*
X14397206Y-13704293D01*
X14397206Y-13704293D02*
X14397206Y-13742388D01*
X14397206Y-13742388D02*
X14406729Y-13761436D01*
X14406729Y-13761436D02*
X14416253Y-13770960D01*
X14416253Y-13770960D02*
X14435301Y-13780484D01*
X14435301Y-13780484D02*
X14473396Y-13780484D01*
X14473396Y-13780484D02*
X14492444Y-13770960D01*
X14492444Y-13770960D02*
X14501968Y-13761436D01*
X14501968Y-13761436D02*
X14511491Y-13742388D01*
X14511491Y-13742388D02*
X14511491Y-13704293D01*
X14511491Y-13704293D02*
X14501968Y-13685246D01*
X14501968Y-13685246D02*
X14492444Y-13675722D01*
X14492444Y-13675722D02*
X14473396Y-13666198D01*
X14749587Y-13780484D02*
X14749587Y-13580484D01*
X14835301Y-13780484D02*
X14835301Y-13675722D01*
X14835301Y-13675722D02*
X14825777Y-13656674D01*
X14825777Y-13656674D02*
X14806730Y-13647150D01*
X14806730Y-13647150D02*
X14778158Y-13647150D01*
X14778158Y-13647150D02*
X14759110Y-13656674D01*
X14759110Y-13656674D02*
X14749587Y-13666198D01*
X14959110Y-13780484D02*
X14940063Y-13770960D01*
X14940063Y-13770960D02*
X14930539Y-13761436D01*
X14930539Y-13761436D02*
X14921015Y-13742388D01*
X14921015Y-13742388D02*
X14921015Y-13685246D01*
X14921015Y-13685246D02*
X14930539Y-13666198D01*
X14930539Y-13666198D02*
X14940063Y-13656674D01*
X14940063Y-13656674D02*
X14959110Y-13647150D01*
X14959110Y-13647150D02*
X14987682Y-13647150D01*
X14987682Y-13647150D02*
X15006730Y-13656674D01*
X15006730Y-13656674D02*
X15016253Y-13666198D01*
X15016253Y-13666198D02*
X15025777Y-13685246D01*
X15025777Y-13685246D02*
X15025777Y-13742388D01*
X15025777Y-13742388D02*
X15016253Y-13761436D01*
X15016253Y-13761436D02*
X15006730Y-13770960D01*
X15006730Y-13770960D02*
X14987682Y-13780484D01*
X14987682Y-13780484D02*
X14959110Y-13780484D01*
X15140063Y-13780484D02*
X15121015Y-13770960D01*
X15121015Y-13770960D02*
X15111491Y-13751912D01*
X15111491Y-13751912D02*
X15111491Y-13580484D01*
X15292444Y-13770960D02*
X15273396Y-13780484D01*
X15273396Y-13780484D02*
X15235301Y-13780484D01*
X15235301Y-13780484D02*
X15216253Y-13770960D01*
X15216253Y-13770960D02*
X15206730Y-13751912D01*
X15206730Y-13751912D02*
X15206730Y-13675722D01*
X15206730Y-13675722D02*
X15216253Y-13656674D01*
X15216253Y-13656674D02*
X15235301Y-13647150D01*
X15235301Y-13647150D02*
X15273396Y-13647150D01*
X15273396Y-13647150D02*
X15292444Y-13656674D01*
X15292444Y-13656674D02*
X15301968Y-13675722D01*
X15301968Y-13675722D02*
X15301968Y-13694769D01*
X15301968Y-13694769D02*
X15206730Y-13713817D01*
X15378158Y-13770960D02*
X15397206Y-13780484D01*
X15397206Y-13780484D02*
X15435301Y-13780484D01*
X15435301Y-13780484D02*
X15454349Y-13770960D01*
X15454349Y-13770960D02*
X15463872Y-13751912D01*
X15463872Y-13751912D02*
X15463872Y-13742388D01*
X15463872Y-13742388D02*
X15454349Y-13723341D01*
X15454349Y-13723341D02*
X15435301Y-13713817D01*
X15435301Y-13713817D02*
X15406730Y-13713817D01*
X15406730Y-13713817D02*
X15387682Y-13704293D01*
X15387682Y-13704293D02*
X15378158Y-13685246D01*
X15378158Y-13685246D02*
X15378158Y-13675722D01*
X15378158Y-13675722D02*
X15387682Y-13656674D01*
X15387682Y-13656674D02*
X15406730Y-13647150D01*
X15406730Y-13647150D02*
X15435301Y-13647150D01*
X15435301Y-13647150D02*
X15454349Y-13656674D01*
X15530539Y-13856674D02*
X15540063Y-13847150D01*
X15540063Y-13847150D02*
X15559111Y-13818579D01*
X15559111Y-13818579D02*
X15568634Y-13799531D01*
X15568634Y-13799531D02*
X15578158Y-13770960D01*
X15578158Y-13770960D02*
X15587682Y-13723341D01*
X15587682Y-13723341D02*
X15587682Y-13685246D01*
X15587682Y-13685246D02*
X15578158Y-13637627D01*
X15578158Y-13637627D02*
X15568634Y-13609055D01*
X15568634Y-13609055D02*
X15559111Y-13590008D01*
X15559111Y-13590008D02*
X15540063Y-13561436D01*
X15540063Y-13561436D02*
X15530539Y-13551912D01*
D13*
X10510000Y-13898000D02*
X10510000Y-14008000D01*
X10455000Y-13953000D02*
X10565000Y-13953000D01*
D10*
X10930539Y-14044484D02*
X10816253Y-14044484D01*
X10873396Y-14044484D02*
X10873396Y-13844484D01*
X10873396Y-13844484D02*
X10854348Y-13873055D01*
X10854348Y-13873055D02*
X10835301Y-13892103D01*
X10835301Y-13892103D02*
X10816253Y-13901627D01*
X11016253Y-14025436D02*
X11025777Y-14034960D01*
X11025777Y-14034960D02*
X11016253Y-14044484D01*
X11016253Y-14044484D02*
X11006729Y-14034960D01*
X11006729Y-14034960D02*
X11016253Y-14025436D01*
X11016253Y-14025436D02*
X11016253Y-14044484D01*
X11216253Y-14044484D02*
X11101967Y-14044484D01*
X11159110Y-14044484D02*
X11159110Y-13844484D01*
X11159110Y-13844484D02*
X11140063Y-13873055D01*
X11140063Y-13873055D02*
X11121015Y-13892103D01*
X11121015Y-13892103D02*
X11101967Y-13901627D01*
X11340062Y-13844484D02*
X11359110Y-13844484D01*
X11359110Y-13844484D02*
X11378158Y-13854008D01*
X11378158Y-13854008D02*
X11387682Y-13863531D01*
X11387682Y-13863531D02*
X11397205Y-13882579D01*
X11397205Y-13882579D02*
X11406729Y-13920674D01*
X11406729Y-13920674D02*
X11406729Y-13968293D01*
X11406729Y-13968293D02*
X11397205Y-14006388D01*
X11397205Y-14006388D02*
X11387682Y-14025436D01*
X11387682Y-14025436D02*
X11378158Y-14034960D01*
X11378158Y-14034960D02*
X11359110Y-14044484D01*
X11359110Y-14044484D02*
X11340062Y-14044484D01*
X11340062Y-14044484D02*
X11321015Y-14034960D01*
X11321015Y-14034960D02*
X11311491Y-14025436D01*
X11311491Y-14025436D02*
X11301967Y-14006388D01*
X11301967Y-14006388D02*
X11292443Y-13968293D01*
X11292443Y-13968293D02*
X11292443Y-13920674D01*
X11292443Y-13920674D02*
X11301967Y-13882579D01*
X11301967Y-13882579D02*
X11311491Y-13863531D01*
X11311491Y-13863531D02*
X11321015Y-13854008D01*
X11321015Y-13854008D02*
X11340062Y-13844484D01*
X11530539Y-13844484D02*
X11549586Y-13844484D01*
X11549586Y-13844484D02*
X11568634Y-13854008D01*
X11568634Y-13854008D02*
X11578158Y-13863531D01*
X11578158Y-13863531D02*
X11587682Y-13882579D01*
X11587682Y-13882579D02*
X11597205Y-13920674D01*
X11597205Y-13920674D02*
X11597205Y-13968293D01*
X11597205Y-13968293D02*
X11587682Y-14006388D01*
X11587682Y-14006388D02*
X11578158Y-14025436D01*
X11578158Y-14025436D02*
X11568634Y-14034960D01*
X11568634Y-14034960D02*
X11549586Y-14044484D01*
X11549586Y-14044484D02*
X11530539Y-14044484D01*
X11530539Y-14044484D02*
X11511491Y-14034960D01*
X11511491Y-14034960D02*
X11501967Y-14025436D01*
X11501967Y-14025436D02*
X11492443Y-14006388D01*
X11492443Y-14006388D02*
X11482920Y-13968293D01*
X11482920Y-13968293D02*
X11482920Y-13920674D01*
X11482920Y-13920674D02*
X11492443Y-13882579D01*
X11492443Y-13882579D02*
X11501967Y-13863531D01*
X11501967Y-13863531D02*
X11511491Y-13854008D01*
X11511491Y-13854008D02*
X11530539Y-13844484D01*
X11682920Y-14044484D02*
X11682920Y-13911150D01*
X11682920Y-13930198D02*
X11692443Y-13920674D01*
X11692443Y-13920674D02*
X11711491Y-13911150D01*
X11711491Y-13911150D02*
X11740063Y-13911150D01*
X11740063Y-13911150D02*
X11759110Y-13920674D01*
X11759110Y-13920674D02*
X11768634Y-13939722D01*
X11768634Y-13939722D02*
X11768634Y-14044484D01*
X11768634Y-13939722D02*
X11778158Y-13920674D01*
X11778158Y-13920674D02*
X11797205Y-13911150D01*
X11797205Y-13911150D02*
X11825777Y-13911150D01*
X11825777Y-13911150D02*
X11844824Y-13920674D01*
X11844824Y-13920674D02*
X11854348Y-13939722D01*
X11854348Y-13939722D02*
X11854348Y-14044484D01*
X11949586Y-14044484D02*
X11949586Y-13911150D01*
X11949586Y-13930198D02*
X11959110Y-13920674D01*
X11959110Y-13920674D02*
X11978158Y-13911150D01*
X11978158Y-13911150D02*
X12006729Y-13911150D01*
X12006729Y-13911150D02*
X12025777Y-13920674D01*
X12025777Y-13920674D02*
X12035301Y-13939722D01*
X12035301Y-13939722D02*
X12035301Y-14044484D01*
X12035301Y-13939722D02*
X12044824Y-13920674D01*
X12044824Y-13920674D02*
X12063872Y-13911150D01*
X12063872Y-13911150D02*
X12092443Y-13911150D01*
X12092443Y-13911150D02*
X12111491Y-13920674D01*
X12111491Y-13920674D02*
X12121015Y-13939722D01*
X12121015Y-13939722D02*
X12121015Y-14044484D01*
X12511491Y-13834960D02*
X12340063Y-14092103D01*
X12768634Y-13844484D02*
X12787682Y-13844484D01*
X12787682Y-13844484D02*
X12806729Y-13854008D01*
X12806729Y-13854008D02*
X12816253Y-13863531D01*
X12816253Y-13863531D02*
X12825777Y-13882579D01*
X12825777Y-13882579D02*
X12835301Y-13920674D01*
X12835301Y-13920674D02*
X12835301Y-13968293D01*
X12835301Y-13968293D02*
X12825777Y-14006388D01*
X12825777Y-14006388D02*
X12816253Y-14025436D01*
X12816253Y-14025436D02*
X12806729Y-14034960D01*
X12806729Y-14034960D02*
X12787682Y-14044484D01*
X12787682Y-14044484D02*
X12768634Y-14044484D01*
X12768634Y-14044484D02*
X12749586Y-14034960D01*
X12749586Y-14034960D02*
X12740063Y-14025436D01*
X12740063Y-14025436D02*
X12730539Y-14006388D01*
X12730539Y-14006388D02*
X12721015Y-13968293D01*
X12721015Y-13968293D02*
X12721015Y-13920674D01*
X12721015Y-13920674D02*
X12730539Y-13882579D01*
X12730539Y-13882579D02*
X12740063Y-13863531D01*
X12740063Y-13863531D02*
X12749586Y-13854008D01*
X12749586Y-13854008D02*
X12768634Y-13844484D01*
X12921015Y-14025436D02*
X12930539Y-14034960D01*
X12930539Y-14034960D02*
X12921015Y-14044484D01*
X12921015Y-14044484D02*
X12911491Y-14034960D01*
X12911491Y-14034960D02*
X12921015Y-14025436D01*
X12921015Y-14025436D02*
X12921015Y-14044484D01*
X13054348Y-13844484D02*
X13073396Y-13844484D01*
X13073396Y-13844484D02*
X13092444Y-13854008D01*
X13092444Y-13854008D02*
X13101967Y-13863531D01*
X13101967Y-13863531D02*
X13111491Y-13882579D01*
X13111491Y-13882579D02*
X13121015Y-13920674D01*
X13121015Y-13920674D02*
X13121015Y-13968293D01*
X13121015Y-13968293D02*
X13111491Y-14006388D01*
X13111491Y-14006388D02*
X13101967Y-14025436D01*
X13101967Y-14025436D02*
X13092444Y-14034960D01*
X13092444Y-14034960D02*
X13073396Y-14044484D01*
X13073396Y-14044484D02*
X13054348Y-14044484D01*
X13054348Y-14044484D02*
X13035301Y-14034960D01*
X13035301Y-14034960D02*
X13025777Y-14025436D01*
X13025777Y-14025436D02*
X13016253Y-14006388D01*
X13016253Y-14006388D02*
X13006729Y-13968293D01*
X13006729Y-13968293D02*
X13006729Y-13920674D01*
X13006729Y-13920674D02*
X13016253Y-13882579D01*
X13016253Y-13882579D02*
X13025777Y-13863531D01*
X13025777Y-13863531D02*
X13035301Y-13854008D01*
X13035301Y-13854008D02*
X13054348Y-13844484D01*
X13292444Y-13911150D02*
X13292444Y-14044484D01*
X13244825Y-13834960D02*
X13197206Y-13977817D01*
X13197206Y-13977817D02*
X13321015Y-13977817D01*
X13378158Y-13844484D02*
X13501967Y-13844484D01*
X13501967Y-13844484D02*
X13435301Y-13920674D01*
X13435301Y-13920674D02*
X13463872Y-13920674D01*
X13463872Y-13920674D02*
X13482920Y-13930198D01*
X13482920Y-13930198D02*
X13492444Y-13939722D01*
X13492444Y-13939722D02*
X13501967Y-13958769D01*
X13501967Y-13958769D02*
X13501967Y-14006388D01*
X13501967Y-14006388D02*
X13492444Y-14025436D01*
X13492444Y-14025436D02*
X13482920Y-14034960D01*
X13482920Y-14034960D02*
X13463872Y-14044484D01*
X13463872Y-14044484D02*
X13406729Y-14044484D01*
X13406729Y-14044484D02*
X13387682Y-14034960D01*
X13387682Y-14034960D02*
X13378158Y-14025436D01*
X13568634Y-13844484D02*
X13692444Y-13844484D01*
X13692444Y-13844484D02*
X13625777Y-13920674D01*
X13625777Y-13920674D02*
X13654348Y-13920674D01*
X13654348Y-13920674D02*
X13673396Y-13930198D01*
X13673396Y-13930198D02*
X13682920Y-13939722D01*
X13682920Y-13939722D02*
X13692444Y-13958769D01*
X13692444Y-13958769D02*
X13692444Y-14006388D01*
X13692444Y-14006388D02*
X13682920Y-14025436D01*
X13682920Y-14025436D02*
X13673396Y-14034960D01*
X13673396Y-14034960D02*
X13654348Y-14044484D01*
X13654348Y-14044484D02*
X13597206Y-14044484D01*
X13597206Y-14044484D02*
X13578158Y-14034960D01*
X13578158Y-14034960D02*
X13568634Y-14025436D01*
X13768634Y-13844484D02*
X13768634Y-13882579D01*
X13844825Y-13844484D02*
X13844825Y-13882579D01*
X14140063Y-14120674D02*
X14130539Y-14111150D01*
X14130539Y-14111150D02*
X14111491Y-14082579D01*
X14111491Y-14082579D02*
X14101968Y-14063531D01*
X14101968Y-14063531D02*
X14092444Y-14034960D01*
X14092444Y-14034960D02*
X14082920Y-13987341D01*
X14082920Y-13987341D02*
X14082920Y-13949246D01*
X14082920Y-13949246D02*
X14092444Y-13901627D01*
X14092444Y-13901627D02*
X14101968Y-13873055D01*
X14101968Y-13873055D02*
X14111491Y-13854008D01*
X14111491Y-13854008D02*
X14130539Y-13825436D01*
X14130539Y-13825436D02*
X14140063Y-13815912D01*
X14321015Y-14044484D02*
X14206729Y-14044484D01*
X14263872Y-14044484D02*
X14263872Y-13844484D01*
X14263872Y-13844484D02*
X14244825Y-13873055D01*
X14244825Y-13873055D02*
X14225777Y-13892103D01*
X14225777Y-13892103D02*
X14206729Y-13901627D01*
X14416253Y-14044484D02*
X14454348Y-14044484D01*
X14454348Y-14044484D02*
X14473396Y-14034960D01*
X14473396Y-14034960D02*
X14482920Y-14025436D01*
X14482920Y-14025436D02*
X14501968Y-13996865D01*
X14501968Y-13996865D02*
X14511491Y-13958769D01*
X14511491Y-13958769D02*
X14511491Y-13882579D01*
X14511491Y-13882579D02*
X14501968Y-13863531D01*
X14501968Y-13863531D02*
X14492444Y-13854008D01*
X14492444Y-13854008D02*
X14473396Y-13844484D01*
X14473396Y-13844484D02*
X14435301Y-13844484D01*
X14435301Y-13844484D02*
X14416253Y-13854008D01*
X14416253Y-13854008D02*
X14406729Y-13863531D01*
X14406729Y-13863531D02*
X14397206Y-13882579D01*
X14397206Y-13882579D02*
X14397206Y-13930198D01*
X14397206Y-13930198D02*
X14406729Y-13949246D01*
X14406729Y-13949246D02*
X14416253Y-13958769D01*
X14416253Y-13958769D02*
X14435301Y-13968293D01*
X14435301Y-13968293D02*
X14473396Y-13968293D01*
X14473396Y-13968293D02*
X14492444Y-13958769D01*
X14492444Y-13958769D02*
X14501968Y-13949246D01*
X14501968Y-13949246D02*
X14511491Y-13930198D01*
X14749587Y-14044484D02*
X14749587Y-13844484D01*
X14835301Y-14044484D02*
X14835301Y-13939722D01*
X14835301Y-13939722D02*
X14825777Y-13920674D01*
X14825777Y-13920674D02*
X14806730Y-13911150D01*
X14806730Y-13911150D02*
X14778158Y-13911150D01*
X14778158Y-13911150D02*
X14759110Y-13920674D01*
X14759110Y-13920674D02*
X14749587Y-13930198D01*
X14959110Y-14044484D02*
X14940063Y-14034960D01*
X14940063Y-14034960D02*
X14930539Y-14025436D01*
X14930539Y-14025436D02*
X14921015Y-14006388D01*
X14921015Y-14006388D02*
X14921015Y-13949246D01*
X14921015Y-13949246D02*
X14930539Y-13930198D01*
X14930539Y-13930198D02*
X14940063Y-13920674D01*
X14940063Y-13920674D02*
X14959110Y-13911150D01*
X14959110Y-13911150D02*
X14987682Y-13911150D01*
X14987682Y-13911150D02*
X15006730Y-13920674D01*
X15006730Y-13920674D02*
X15016253Y-13930198D01*
X15016253Y-13930198D02*
X15025777Y-13949246D01*
X15025777Y-13949246D02*
X15025777Y-14006388D01*
X15025777Y-14006388D02*
X15016253Y-14025436D01*
X15016253Y-14025436D02*
X15006730Y-14034960D01*
X15006730Y-14034960D02*
X14987682Y-14044484D01*
X14987682Y-14044484D02*
X14959110Y-14044484D01*
X15140063Y-14044484D02*
X15121015Y-14034960D01*
X15121015Y-14034960D02*
X15111491Y-14015912D01*
X15111491Y-14015912D02*
X15111491Y-13844484D01*
X15292444Y-14034960D02*
X15273396Y-14044484D01*
X15273396Y-14044484D02*
X15235301Y-14044484D01*
X15235301Y-14044484D02*
X15216253Y-14034960D01*
X15216253Y-14034960D02*
X15206730Y-14015912D01*
X15206730Y-14015912D02*
X15206730Y-13939722D01*
X15206730Y-13939722D02*
X15216253Y-13920674D01*
X15216253Y-13920674D02*
X15235301Y-13911150D01*
X15235301Y-13911150D02*
X15273396Y-13911150D01*
X15273396Y-13911150D02*
X15292444Y-13920674D01*
X15292444Y-13920674D02*
X15301968Y-13939722D01*
X15301968Y-13939722D02*
X15301968Y-13958769D01*
X15301968Y-13958769D02*
X15206730Y-13977817D01*
X15378158Y-14034960D02*
X15397206Y-14044484D01*
X15397206Y-14044484D02*
X15435301Y-14044484D01*
X15435301Y-14044484D02*
X15454349Y-14034960D01*
X15454349Y-14034960D02*
X15463872Y-14015912D01*
X15463872Y-14015912D02*
X15463872Y-14006388D01*
X15463872Y-14006388D02*
X15454349Y-13987341D01*
X15454349Y-13987341D02*
X15435301Y-13977817D01*
X15435301Y-13977817D02*
X15406730Y-13977817D01*
X15406730Y-13977817D02*
X15387682Y-13968293D01*
X15387682Y-13968293D02*
X15378158Y-13949246D01*
X15378158Y-13949246D02*
X15378158Y-13939722D01*
X15378158Y-13939722D02*
X15387682Y-13920674D01*
X15387682Y-13920674D02*
X15406730Y-13911150D01*
X15406730Y-13911150D02*
X15435301Y-13911150D01*
X15435301Y-13911150D02*
X15454349Y-13920674D01*
X15530539Y-14120674D02*
X15540063Y-14111150D01*
X15540063Y-14111150D02*
X15559111Y-14082579D01*
X15559111Y-14082579D02*
X15568634Y-14063531D01*
X15568634Y-14063531D02*
X15578158Y-14034960D01*
X15578158Y-14034960D02*
X15587682Y-13987341D01*
X15587682Y-13987341D02*
X15587682Y-13949246D01*
X15587682Y-13949246D02*
X15578158Y-13901627D01*
X15578158Y-13901627D02*
X15568634Y-13873055D01*
X15568634Y-13873055D02*
X15559111Y-13854008D01*
X15559111Y-13854008D02*
X15540063Y-13825436D01*
X15540063Y-13825436D02*
X15530539Y-13815912D01*
X10535711Y-14287711D02*
X10535711Y-14146289D01*
X10394289Y-14146289D01*
X10394289Y-14287711D01*
X10535711Y-14287711D01*
X10806729Y-14108484D02*
X10930539Y-14108484D01*
X10930539Y-14108484D02*
X10863872Y-14184674D01*
X10863872Y-14184674D02*
X10892444Y-14184674D01*
X10892444Y-14184674D02*
X10911491Y-14194198D01*
X10911491Y-14194198D02*
X10921015Y-14203722D01*
X10921015Y-14203722D02*
X10930539Y-14222769D01*
X10930539Y-14222769D02*
X10930539Y-14270388D01*
X10930539Y-14270388D02*
X10921015Y-14289436D01*
X10921015Y-14289436D02*
X10911491Y-14298960D01*
X10911491Y-14298960D02*
X10892444Y-14308484D01*
X10892444Y-14308484D02*
X10835301Y-14308484D01*
X10835301Y-14308484D02*
X10816253Y-14298960D01*
X10816253Y-14298960D02*
X10806729Y-14289436D01*
X11016253Y-14289436D02*
X11025777Y-14298960D01*
X11025777Y-14298960D02*
X11016253Y-14308484D01*
X11016253Y-14308484D02*
X11006729Y-14298960D01*
X11006729Y-14298960D02*
X11016253Y-14289436D01*
X11016253Y-14289436D02*
X11016253Y-14308484D01*
X11101967Y-14127531D02*
X11111491Y-14118008D01*
X11111491Y-14118008D02*
X11130539Y-14108484D01*
X11130539Y-14108484D02*
X11178158Y-14108484D01*
X11178158Y-14108484D02*
X11197205Y-14118008D01*
X11197205Y-14118008D02*
X11206729Y-14127531D01*
X11206729Y-14127531D02*
X11216253Y-14146579D01*
X11216253Y-14146579D02*
X11216253Y-14165627D01*
X11216253Y-14165627D02*
X11206729Y-14194198D01*
X11206729Y-14194198D02*
X11092444Y-14308484D01*
X11092444Y-14308484D02*
X11216253Y-14308484D01*
X11340062Y-14108484D02*
X11359110Y-14108484D01*
X11359110Y-14108484D02*
X11378158Y-14118008D01*
X11378158Y-14118008D02*
X11387682Y-14127531D01*
X11387682Y-14127531D02*
X11397205Y-14146579D01*
X11397205Y-14146579D02*
X11406729Y-14184674D01*
X11406729Y-14184674D02*
X11406729Y-14232293D01*
X11406729Y-14232293D02*
X11397205Y-14270388D01*
X11397205Y-14270388D02*
X11387682Y-14289436D01*
X11387682Y-14289436D02*
X11378158Y-14298960D01*
X11378158Y-14298960D02*
X11359110Y-14308484D01*
X11359110Y-14308484D02*
X11340062Y-14308484D01*
X11340062Y-14308484D02*
X11321015Y-14298960D01*
X11321015Y-14298960D02*
X11311491Y-14289436D01*
X11311491Y-14289436D02*
X11301967Y-14270388D01*
X11301967Y-14270388D02*
X11292443Y-14232293D01*
X11292443Y-14232293D02*
X11292443Y-14184674D01*
X11292443Y-14184674D02*
X11301967Y-14146579D01*
X11301967Y-14146579D02*
X11311491Y-14127531D01*
X11311491Y-14127531D02*
X11321015Y-14118008D01*
X11321015Y-14118008D02*
X11340062Y-14108484D01*
X11530539Y-14108484D02*
X11549586Y-14108484D01*
X11549586Y-14108484D02*
X11568634Y-14118008D01*
X11568634Y-14118008D02*
X11578158Y-14127531D01*
X11578158Y-14127531D02*
X11587682Y-14146579D01*
X11587682Y-14146579D02*
X11597205Y-14184674D01*
X11597205Y-14184674D02*
X11597205Y-14232293D01*
X11597205Y-14232293D02*
X11587682Y-14270388D01*
X11587682Y-14270388D02*
X11578158Y-14289436D01*
X11578158Y-14289436D02*
X11568634Y-14298960D01*
X11568634Y-14298960D02*
X11549586Y-14308484D01*
X11549586Y-14308484D02*
X11530539Y-14308484D01*
X11530539Y-14308484D02*
X11511491Y-14298960D01*
X11511491Y-14298960D02*
X11501967Y-14289436D01*
X11501967Y-14289436D02*
X11492443Y-14270388D01*
X11492443Y-14270388D02*
X11482920Y-14232293D01*
X11482920Y-14232293D02*
X11482920Y-14184674D01*
X11482920Y-14184674D02*
X11492443Y-14146579D01*
X11492443Y-14146579D02*
X11501967Y-14127531D01*
X11501967Y-14127531D02*
X11511491Y-14118008D01*
X11511491Y-14118008D02*
X11530539Y-14108484D01*
X11682920Y-14308484D02*
X11682920Y-14175150D01*
X11682920Y-14194198D02*
X11692443Y-14184674D01*
X11692443Y-14184674D02*
X11711491Y-14175150D01*
X11711491Y-14175150D02*
X11740063Y-14175150D01*
X11740063Y-14175150D02*
X11759110Y-14184674D01*
X11759110Y-14184674D02*
X11768634Y-14203722D01*
X11768634Y-14203722D02*
X11768634Y-14308484D01*
X11768634Y-14203722D02*
X11778158Y-14184674D01*
X11778158Y-14184674D02*
X11797205Y-14175150D01*
X11797205Y-14175150D02*
X11825777Y-14175150D01*
X11825777Y-14175150D02*
X11844824Y-14184674D01*
X11844824Y-14184674D02*
X11854348Y-14203722D01*
X11854348Y-14203722D02*
X11854348Y-14308484D01*
X11949586Y-14308484D02*
X11949586Y-14175150D01*
X11949586Y-14194198D02*
X11959110Y-14184674D01*
X11959110Y-14184674D02*
X11978158Y-14175150D01*
X11978158Y-14175150D02*
X12006729Y-14175150D01*
X12006729Y-14175150D02*
X12025777Y-14184674D01*
X12025777Y-14184674D02*
X12035301Y-14203722D01*
X12035301Y-14203722D02*
X12035301Y-14308484D01*
X12035301Y-14203722D02*
X12044824Y-14184674D01*
X12044824Y-14184674D02*
X12063872Y-14175150D01*
X12063872Y-14175150D02*
X12092443Y-14175150D01*
X12092443Y-14175150D02*
X12111491Y-14184674D01*
X12111491Y-14184674D02*
X12121015Y-14203722D01*
X12121015Y-14203722D02*
X12121015Y-14308484D01*
X12511491Y-14098960D02*
X12340063Y-14356103D01*
X12768634Y-14108484D02*
X12787682Y-14108484D01*
X12787682Y-14108484D02*
X12806729Y-14118008D01*
X12806729Y-14118008D02*
X12816253Y-14127531D01*
X12816253Y-14127531D02*
X12825777Y-14146579D01*
X12825777Y-14146579D02*
X12835301Y-14184674D01*
X12835301Y-14184674D02*
X12835301Y-14232293D01*
X12835301Y-14232293D02*
X12825777Y-14270388D01*
X12825777Y-14270388D02*
X12816253Y-14289436D01*
X12816253Y-14289436D02*
X12806729Y-14298960D01*
X12806729Y-14298960D02*
X12787682Y-14308484D01*
X12787682Y-14308484D02*
X12768634Y-14308484D01*
X12768634Y-14308484D02*
X12749586Y-14298960D01*
X12749586Y-14298960D02*
X12740063Y-14289436D01*
X12740063Y-14289436D02*
X12730539Y-14270388D01*
X12730539Y-14270388D02*
X12721015Y-14232293D01*
X12721015Y-14232293D02*
X12721015Y-14184674D01*
X12721015Y-14184674D02*
X12730539Y-14146579D01*
X12730539Y-14146579D02*
X12740063Y-14127531D01*
X12740063Y-14127531D02*
X12749586Y-14118008D01*
X12749586Y-14118008D02*
X12768634Y-14108484D01*
X12921015Y-14289436D02*
X12930539Y-14298960D01*
X12930539Y-14298960D02*
X12921015Y-14308484D01*
X12921015Y-14308484D02*
X12911491Y-14298960D01*
X12911491Y-14298960D02*
X12921015Y-14289436D01*
X12921015Y-14289436D02*
X12921015Y-14308484D01*
X13121015Y-14308484D02*
X13006729Y-14308484D01*
X13063872Y-14308484D02*
X13063872Y-14108484D01*
X13063872Y-14108484D02*
X13044825Y-14137055D01*
X13044825Y-14137055D02*
X13025777Y-14156103D01*
X13025777Y-14156103D02*
X13006729Y-14165627D01*
X13197206Y-14127531D02*
X13206729Y-14118008D01*
X13206729Y-14118008D02*
X13225777Y-14108484D01*
X13225777Y-14108484D02*
X13273396Y-14108484D01*
X13273396Y-14108484D02*
X13292444Y-14118008D01*
X13292444Y-14118008D02*
X13301967Y-14127531D01*
X13301967Y-14127531D02*
X13311491Y-14146579D01*
X13311491Y-14146579D02*
X13311491Y-14165627D01*
X13311491Y-14165627D02*
X13301967Y-14194198D01*
X13301967Y-14194198D02*
X13187682Y-14308484D01*
X13187682Y-14308484D02*
X13311491Y-14308484D01*
X13482920Y-14108484D02*
X13444825Y-14108484D01*
X13444825Y-14108484D02*
X13425777Y-14118008D01*
X13425777Y-14118008D02*
X13416253Y-14127531D01*
X13416253Y-14127531D02*
X13397206Y-14156103D01*
X13397206Y-14156103D02*
X13387682Y-14194198D01*
X13387682Y-14194198D02*
X13387682Y-14270388D01*
X13387682Y-14270388D02*
X13397206Y-14289436D01*
X13397206Y-14289436D02*
X13406729Y-14298960D01*
X13406729Y-14298960D02*
X13425777Y-14308484D01*
X13425777Y-14308484D02*
X13463872Y-14308484D01*
X13463872Y-14308484D02*
X13482920Y-14298960D01*
X13482920Y-14298960D02*
X13492444Y-14289436D01*
X13492444Y-14289436D02*
X13501967Y-14270388D01*
X13501967Y-14270388D02*
X13501967Y-14222769D01*
X13501967Y-14222769D02*
X13492444Y-14203722D01*
X13492444Y-14203722D02*
X13482920Y-14194198D01*
X13482920Y-14194198D02*
X13463872Y-14184674D01*
X13463872Y-14184674D02*
X13425777Y-14184674D01*
X13425777Y-14184674D02*
X13406729Y-14194198D01*
X13406729Y-14194198D02*
X13397206Y-14203722D01*
X13397206Y-14203722D02*
X13387682Y-14222769D01*
X13625777Y-14108484D02*
X13644825Y-14108484D01*
X13644825Y-14108484D02*
X13663872Y-14118008D01*
X13663872Y-14118008D02*
X13673396Y-14127531D01*
X13673396Y-14127531D02*
X13682920Y-14146579D01*
X13682920Y-14146579D02*
X13692444Y-14184674D01*
X13692444Y-14184674D02*
X13692444Y-14232293D01*
X13692444Y-14232293D02*
X13682920Y-14270388D01*
X13682920Y-14270388D02*
X13673396Y-14289436D01*
X13673396Y-14289436D02*
X13663872Y-14298960D01*
X13663872Y-14298960D02*
X13644825Y-14308484D01*
X13644825Y-14308484D02*
X13625777Y-14308484D01*
X13625777Y-14308484D02*
X13606729Y-14298960D01*
X13606729Y-14298960D02*
X13597206Y-14289436D01*
X13597206Y-14289436D02*
X13587682Y-14270388D01*
X13587682Y-14270388D02*
X13578158Y-14232293D01*
X13578158Y-14232293D02*
X13578158Y-14184674D01*
X13578158Y-14184674D02*
X13587682Y-14146579D01*
X13587682Y-14146579D02*
X13597206Y-14127531D01*
X13597206Y-14127531D02*
X13606729Y-14118008D01*
X13606729Y-14118008D02*
X13625777Y-14108484D01*
X13768634Y-14108484D02*
X13768634Y-14146579D01*
X13844825Y-14108484D02*
X13844825Y-14146579D01*
X14140063Y-14384674D02*
X14130539Y-14375150D01*
X14130539Y-14375150D02*
X14111491Y-14346579D01*
X14111491Y-14346579D02*
X14101968Y-14327531D01*
X14101968Y-14327531D02*
X14092444Y-14298960D01*
X14092444Y-14298960D02*
X14082920Y-14251341D01*
X14082920Y-14251341D02*
X14082920Y-14213246D01*
X14082920Y-14213246D02*
X14092444Y-14165627D01*
X14092444Y-14165627D02*
X14101968Y-14137055D01*
X14101968Y-14137055D02*
X14111491Y-14118008D01*
X14111491Y-14118008D02*
X14130539Y-14089436D01*
X14130539Y-14089436D02*
X14140063Y-14079912D01*
X14301968Y-14175150D02*
X14301968Y-14308484D01*
X14254348Y-14098960D02*
X14206729Y-14241817D01*
X14206729Y-14241817D02*
X14330539Y-14241817D01*
X14559110Y-14308484D02*
X14559110Y-14108484D01*
X14644825Y-14308484D02*
X14644825Y-14203722D01*
X14644825Y-14203722D02*
X14635301Y-14184674D01*
X14635301Y-14184674D02*
X14616253Y-14175150D01*
X14616253Y-14175150D02*
X14587682Y-14175150D01*
X14587682Y-14175150D02*
X14568634Y-14184674D01*
X14568634Y-14184674D02*
X14559110Y-14194198D01*
X14768634Y-14308484D02*
X14749587Y-14298960D01*
X14749587Y-14298960D02*
X14740063Y-14289436D01*
X14740063Y-14289436D02*
X14730539Y-14270388D01*
X14730539Y-14270388D02*
X14730539Y-14213246D01*
X14730539Y-14213246D02*
X14740063Y-14194198D01*
X14740063Y-14194198D02*
X14749587Y-14184674D01*
X14749587Y-14184674D02*
X14768634Y-14175150D01*
X14768634Y-14175150D02*
X14797206Y-14175150D01*
X14797206Y-14175150D02*
X14816253Y-14184674D01*
X14816253Y-14184674D02*
X14825777Y-14194198D01*
X14825777Y-14194198D02*
X14835301Y-14213246D01*
X14835301Y-14213246D02*
X14835301Y-14270388D01*
X14835301Y-14270388D02*
X14825777Y-14289436D01*
X14825777Y-14289436D02*
X14816253Y-14298960D01*
X14816253Y-14298960D02*
X14797206Y-14308484D01*
X14797206Y-14308484D02*
X14768634Y-14308484D01*
X14949587Y-14308484D02*
X14930539Y-14298960D01*
X14930539Y-14298960D02*
X14921015Y-14279912D01*
X14921015Y-14279912D02*
X14921015Y-14108484D01*
X15101968Y-14298960D02*
X15082920Y-14308484D01*
X15082920Y-14308484D02*
X15044825Y-14308484D01*
X15044825Y-14308484D02*
X15025777Y-14298960D01*
X15025777Y-14298960D02*
X15016253Y-14279912D01*
X15016253Y-14279912D02*
X15016253Y-14203722D01*
X15016253Y-14203722D02*
X15025777Y-14184674D01*
X15025777Y-14184674D02*
X15044825Y-14175150D01*
X15044825Y-14175150D02*
X15082920Y-14175150D01*
X15082920Y-14175150D02*
X15101968Y-14184674D01*
X15101968Y-14184674D02*
X15111491Y-14203722D01*
X15111491Y-14203722D02*
X15111491Y-14222769D01*
X15111491Y-14222769D02*
X15016253Y-14241817D01*
X15187682Y-14298960D02*
X15206730Y-14308484D01*
X15206730Y-14308484D02*
X15244825Y-14308484D01*
X15244825Y-14308484D02*
X15263872Y-14298960D01*
X15263872Y-14298960D02*
X15273396Y-14279912D01*
X15273396Y-14279912D02*
X15273396Y-14270388D01*
X15273396Y-14270388D02*
X15263872Y-14251341D01*
X15263872Y-14251341D02*
X15244825Y-14241817D01*
X15244825Y-14241817D02*
X15216253Y-14241817D01*
X15216253Y-14241817D02*
X15197206Y-14232293D01*
X15197206Y-14232293D02*
X15187682Y-14213246D01*
X15187682Y-14213246D02*
X15187682Y-14203722D01*
X15187682Y-14203722D02*
X15197206Y-14184674D01*
X15197206Y-14184674D02*
X15216253Y-14175150D01*
X15216253Y-14175150D02*
X15244825Y-14175150D01*
X15244825Y-14175150D02*
X15263872Y-14184674D01*
X15340063Y-14384674D02*
X15349587Y-14375150D01*
X15349587Y-14375150D02*
X15368634Y-14346579D01*
X15368634Y-14346579D02*
X15378158Y-14327531D01*
X15378158Y-14327531D02*
X15387682Y-14298960D01*
X15387682Y-14298960D02*
X15397206Y-14251341D01*
X15397206Y-14251341D02*
X15397206Y-14213246D01*
X15397206Y-14213246D02*
X15387682Y-14165627D01*
X15387682Y-14165627D02*
X15378158Y-14137055D01*
X15378158Y-14137055D02*
X15368634Y-14118008D01*
X15368634Y-14118008D02*
X15349587Y-14089436D01*
X15349587Y-14089436D02*
X15340063Y-14079912D01*
M02*
