%TF.GenerationSoftware,KiCad,Pcbnew,7.0.8*%
%TF.CreationDate,2023-11-11T13:48:34-05:00*%
%TF.ProjectId,StackLight,53746163-6b4c-4696-9768-742e6b696361,rev?*%
%TF.SameCoordinates,Original*%
%TF.FileFunction,Drillmap*%
%TF.FilePolarity,Positive*%
%FSLAX45Y45*%
G04 Gerber Fmt 4.5, Leading zero omitted, Abs format (unit mm)*
G04 Created by KiCad (PCBNEW 7.0.8) date 2023-11-11 13:48:34*
%MOMM*%
%LPD*%
G01*
G04 APERTURE LIST*
%ADD10C,0.200000*%
G04 APERTURE END LIST*
D10*
X15950000Y-12775000D02*
X11200000Y-12775000D01*
X16575000Y-7400000D02*
X16575000Y-12150000D01*
X11200000Y-6775000D02*
X15950000Y-6775000D01*
X10575000Y-12150000D02*
X10575000Y-7400000D01*
X10575000Y-12150000D02*
G75*
G03*
X11200000Y-12775000I625000J0D01*
G01*
X15950000Y-12775000D02*
G75*
G03*
X16575000Y-12150000I0J625000D01*
G01*
X16575000Y-7400000D02*
G75*
G03*
X15950000Y-6775000I-625000J0D01*
G01*
X11200000Y-6775000D02*
G75*
G03*
X10575000Y-7400000I0J-625000D01*
G01*
X10825777Y-13096484D02*
X10825777Y-12896484D01*
X10825777Y-12896484D02*
X10873396Y-12896484D01*
X10873396Y-12896484D02*
X10901967Y-12906008D01*
X10901967Y-12906008D02*
X10921015Y-12925055D01*
X10921015Y-12925055D02*
X10930539Y-12944103D01*
X10930539Y-12944103D02*
X10940063Y-12982198D01*
X10940063Y-12982198D02*
X10940063Y-13010769D01*
X10940063Y-13010769D02*
X10930539Y-13048865D01*
X10930539Y-13048865D02*
X10921015Y-13067912D01*
X10921015Y-13067912D02*
X10901967Y-13086960D01*
X10901967Y-13086960D02*
X10873396Y-13096484D01*
X10873396Y-13096484D02*
X10825777Y-13096484D01*
X11025777Y-13096484D02*
X11025777Y-12963150D01*
X11025777Y-13001246D02*
X11035301Y-12982198D01*
X11035301Y-12982198D02*
X11044824Y-12972674D01*
X11044824Y-12972674D02*
X11063872Y-12963150D01*
X11063872Y-12963150D02*
X11082920Y-12963150D01*
X11149586Y-13096484D02*
X11149586Y-12963150D01*
X11149586Y-12896484D02*
X11140063Y-12906008D01*
X11140063Y-12906008D02*
X11149586Y-12915531D01*
X11149586Y-12915531D02*
X11159110Y-12906008D01*
X11159110Y-12906008D02*
X11149586Y-12896484D01*
X11149586Y-12896484D02*
X11149586Y-12915531D01*
X11273396Y-13096484D02*
X11254348Y-13086960D01*
X11254348Y-13086960D02*
X11244824Y-13067912D01*
X11244824Y-13067912D02*
X11244824Y-12896484D01*
X11378158Y-13096484D02*
X11359110Y-13086960D01*
X11359110Y-13086960D02*
X11349586Y-13067912D01*
X11349586Y-13067912D02*
X11349586Y-12896484D01*
X11606729Y-13096484D02*
X11606729Y-12896484D01*
X11606729Y-12896484D02*
X11673396Y-13039341D01*
X11673396Y-13039341D02*
X11740062Y-12896484D01*
X11740062Y-12896484D02*
X11740062Y-13096484D01*
X11921015Y-13096484D02*
X11921015Y-12991722D01*
X11921015Y-12991722D02*
X11911491Y-12972674D01*
X11911491Y-12972674D02*
X11892443Y-12963150D01*
X11892443Y-12963150D02*
X11854348Y-12963150D01*
X11854348Y-12963150D02*
X11835301Y-12972674D01*
X11921015Y-13086960D02*
X11901967Y-13096484D01*
X11901967Y-13096484D02*
X11854348Y-13096484D01*
X11854348Y-13096484D02*
X11835301Y-13086960D01*
X11835301Y-13086960D02*
X11825777Y-13067912D01*
X11825777Y-13067912D02*
X11825777Y-13048865D01*
X11825777Y-13048865D02*
X11835301Y-13029817D01*
X11835301Y-13029817D02*
X11854348Y-13020293D01*
X11854348Y-13020293D02*
X11901967Y-13020293D01*
X11901967Y-13020293D02*
X11921015Y-13010769D01*
X12016253Y-12963150D02*
X12016253Y-13163150D01*
X12016253Y-12972674D02*
X12035301Y-12963150D01*
X12035301Y-12963150D02*
X12073396Y-12963150D01*
X12073396Y-12963150D02*
X12092443Y-12972674D01*
X12092443Y-12972674D02*
X12101967Y-12982198D01*
X12101967Y-12982198D02*
X12111491Y-13001246D01*
X12111491Y-13001246D02*
X12111491Y-13058388D01*
X12111491Y-13058388D02*
X12101967Y-13077436D01*
X12101967Y-13077436D02*
X12092443Y-13086960D01*
X12092443Y-13086960D02*
X12073396Y-13096484D01*
X12073396Y-13096484D02*
X12035301Y-13096484D01*
X12035301Y-13096484D02*
X12016253Y-13086960D01*
X12197205Y-13077436D02*
X12206729Y-13086960D01*
X12206729Y-13086960D02*
X12197205Y-13096484D01*
X12197205Y-13096484D02*
X12187682Y-13086960D01*
X12187682Y-13086960D02*
X12197205Y-13077436D01*
X12197205Y-13077436D02*
X12197205Y-13096484D01*
X12197205Y-12972674D02*
X12206729Y-12982198D01*
X12206729Y-12982198D02*
X12197205Y-12991722D01*
X12197205Y-12991722D02*
X12187682Y-12982198D01*
X12187682Y-12982198D02*
X12197205Y-12972674D01*
X12197205Y-12972674D02*
X12197205Y-12991722D01*
M02*
