%TF.GenerationSoftware,KiCad,Pcbnew,7.0.8*%
%TF.CreationDate,2023-11-11T13:48:29-05:00*%
%TF.ProjectId,StackLight,53746163-6b4c-4696-9768-742e6b696361,rev?*%
%TF.SameCoordinates,Original*%
%TF.FileFunction,Legend,Bot*%
%TF.FilePolarity,Positive*%
%FSLAX46Y46*%
G04 Gerber Fmt 4.6, Leading zero omitted, Abs format (unit mm)*
G04 Created by KiCad (PCBNEW 7.0.8) date 2023-11-11 13:48:29*
%MOMM*%
%LPD*%
G01*
G04 APERTURE LIST*
%ADD10C,0.150000*%
G04 APERTURE END LIST*
D10*
X118460839Y-69242200D02*
X118317982Y-69289819D01*
X118317982Y-69289819D02*
X118079887Y-69289819D01*
X118079887Y-69289819D02*
X117984649Y-69242200D01*
X117984649Y-69242200D02*
X117937030Y-69194580D01*
X117937030Y-69194580D02*
X117889411Y-69099342D01*
X117889411Y-69099342D02*
X117889411Y-69004104D01*
X117889411Y-69004104D02*
X117937030Y-68908866D01*
X117937030Y-68908866D02*
X117984649Y-68861247D01*
X117984649Y-68861247D02*
X118079887Y-68813628D01*
X118079887Y-68813628D02*
X118270363Y-68766009D01*
X118270363Y-68766009D02*
X118365601Y-68718390D01*
X118365601Y-68718390D02*
X118413220Y-68670771D01*
X118413220Y-68670771D02*
X118460839Y-68575533D01*
X118460839Y-68575533D02*
X118460839Y-68480295D01*
X118460839Y-68480295D02*
X118413220Y-68385057D01*
X118413220Y-68385057D02*
X118365601Y-68337438D01*
X118365601Y-68337438D02*
X118270363Y-68289819D01*
X118270363Y-68289819D02*
X118032268Y-68289819D01*
X118032268Y-68289819D02*
X117889411Y-68337438D01*
X117032268Y-68623152D02*
X117032268Y-69289819D01*
X117460839Y-68623152D02*
X117460839Y-69146961D01*
X117460839Y-69146961D02*
X117413220Y-69242200D01*
X117413220Y-69242200D02*
X117317982Y-69289819D01*
X117317982Y-69289819D02*
X117175125Y-69289819D01*
X117175125Y-69289819D02*
X117079887Y-69242200D01*
X117079887Y-69242200D02*
X117032268Y-69194580D01*
X116127506Y-69242200D02*
X116222744Y-69289819D01*
X116222744Y-69289819D02*
X116413220Y-69289819D01*
X116413220Y-69289819D02*
X116508458Y-69242200D01*
X116508458Y-69242200D02*
X116556077Y-69194580D01*
X116556077Y-69194580D02*
X116603696Y-69099342D01*
X116603696Y-69099342D02*
X116603696Y-68813628D01*
X116603696Y-68813628D02*
X116556077Y-68718390D01*
X116556077Y-68718390D02*
X116508458Y-68670771D01*
X116508458Y-68670771D02*
X116413220Y-68623152D01*
X116413220Y-68623152D02*
X116222744Y-68623152D01*
X116222744Y-68623152D02*
X116127506Y-68670771D01*
X115698934Y-69289819D02*
X115698934Y-68289819D01*
X115603696Y-68908866D02*
X115317982Y-69289819D01*
X115317982Y-68623152D02*
X115698934Y-69004104D01*
X118460839Y-70614104D02*
X117984649Y-70614104D01*
X118556077Y-70899819D02*
X118222744Y-69899819D01*
X118222744Y-69899819D02*
X117889411Y-70899819D01*
X118079887Y-71986009D02*
X118413220Y-71986009D01*
X118413220Y-72509819D02*
X118413220Y-71509819D01*
X118413220Y-71509819D02*
X117937030Y-71509819D01*
X117127506Y-72509819D02*
X117127506Y-71986009D01*
X117127506Y-71986009D02*
X117175125Y-71890771D01*
X117175125Y-71890771D02*
X117270363Y-71843152D01*
X117270363Y-71843152D02*
X117460839Y-71843152D01*
X117460839Y-71843152D02*
X117556077Y-71890771D01*
X117127506Y-72462200D02*
X117222744Y-72509819D01*
X117222744Y-72509819D02*
X117460839Y-72509819D01*
X117460839Y-72509819D02*
X117556077Y-72462200D01*
X117556077Y-72462200D02*
X117603696Y-72366961D01*
X117603696Y-72366961D02*
X117603696Y-72271723D01*
X117603696Y-72271723D02*
X117556077Y-72176485D01*
X117556077Y-72176485D02*
X117460839Y-72128866D01*
X117460839Y-72128866D02*
X117222744Y-72128866D01*
X117222744Y-72128866D02*
X117127506Y-72081247D01*
X116794172Y-71843152D02*
X116413220Y-71843152D01*
X116651315Y-71509819D02*
X116651315Y-72366961D01*
X116651315Y-72366961D02*
X116603696Y-72462200D01*
X116603696Y-72462200D02*
X116508458Y-72509819D01*
X116508458Y-72509819D02*
X116413220Y-72509819D01*
X118079887Y-73596009D02*
X117937030Y-73643628D01*
X117937030Y-73643628D02*
X117889411Y-73691247D01*
X117889411Y-73691247D02*
X117841792Y-73786485D01*
X117841792Y-73786485D02*
X117841792Y-73929342D01*
X117841792Y-73929342D02*
X117889411Y-74024580D01*
X117889411Y-74024580D02*
X117937030Y-74072200D01*
X117937030Y-74072200D02*
X118032268Y-74119819D01*
X118032268Y-74119819D02*
X118413220Y-74119819D01*
X118413220Y-74119819D02*
X118413220Y-73119819D01*
X118413220Y-73119819D02*
X118079887Y-73119819D01*
X118079887Y-73119819D02*
X117984649Y-73167438D01*
X117984649Y-73167438D02*
X117937030Y-73215057D01*
X117937030Y-73215057D02*
X117889411Y-73310295D01*
X117889411Y-73310295D02*
X117889411Y-73405533D01*
X117889411Y-73405533D02*
X117937030Y-73500771D01*
X117937030Y-73500771D02*
X117984649Y-73548390D01*
X117984649Y-73548390D02*
X118079887Y-73596009D01*
X118079887Y-73596009D02*
X118413220Y-73596009D01*
X116984649Y-74119819D02*
X116984649Y-73596009D01*
X116984649Y-73596009D02*
X117032268Y-73500771D01*
X117032268Y-73500771D02*
X117127506Y-73453152D01*
X117127506Y-73453152D02*
X117317982Y-73453152D01*
X117317982Y-73453152D02*
X117413220Y-73500771D01*
X116984649Y-74072200D02*
X117079887Y-74119819D01*
X117079887Y-74119819D02*
X117317982Y-74119819D01*
X117317982Y-74119819D02*
X117413220Y-74072200D01*
X117413220Y-74072200D02*
X117460839Y-73976961D01*
X117460839Y-73976961D02*
X117460839Y-73881723D01*
X117460839Y-73881723D02*
X117413220Y-73786485D01*
X117413220Y-73786485D02*
X117317982Y-73738866D01*
X117317982Y-73738866D02*
X117079887Y-73738866D01*
X117079887Y-73738866D02*
X116984649Y-73691247D01*
X116508458Y-73453152D02*
X116508458Y-74119819D01*
X116508458Y-73548390D02*
X116460839Y-73500771D01*
X116460839Y-73500771D02*
X116365601Y-73453152D01*
X116365601Y-73453152D02*
X116222744Y-73453152D01*
X116222744Y-73453152D02*
X116127506Y-73500771D01*
X116127506Y-73500771D02*
X116079887Y-73596009D01*
X116079887Y-73596009D02*
X116079887Y-74119819D01*
X115175125Y-74119819D02*
X115175125Y-73596009D01*
X115175125Y-73596009D02*
X115222744Y-73500771D01*
X115222744Y-73500771D02*
X115317982Y-73453152D01*
X115317982Y-73453152D02*
X115508458Y-73453152D01*
X115508458Y-73453152D02*
X115603696Y-73500771D01*
X115175125Y-74072200D02*
X115270363Y-74119819D01*
X115270363Y-74119819D02*
X115508458Y-74119819D01*
X115508458Y-74119819D02*
X115603696Y-74072200D01*
X115603696Y-74072200D02*
X115651315Y-73976961D01*
X115651315Y-73976961D02*
X115651315Y-73881723D01*
X115651315Y-73881723D02*
X115603696Y-73786485D01*
X115603696Y-73786485D02*
X115508458Y-73738866D01*
X115508458Y-73738866D02*
X115270363Y-73738866D01*
X115270363Y-73738866D02*
X115175125Y-73691247D01*
X114698934Y-73453152D02*
X114698934Y-74119819D01*
X114698934Y-73548390D02*
X114651315Y-73500771D01*
X114651315Y-73500771D02*
X114556077Y-73453152D01*
X114556077Y-73453152D02*
X114413220Y-73453152D01*
X114413220Y-73453152D02*
X114317982Y-73500771D01*
X114317982Y-73500771D02*
X114270363Y-73596009D01*
X114270363Y-73596009D02*
X114270363Y-74119819D01*
X113365601Y-74119819D02*
X113365601Y-73596009D01*
X113365601Y-73596009D02*
X113413220Y-73500771D01*
X113413220Y-73500771D02*
X113508458Y-73453152D01*
X113508458Y-73453152D02*
X113698934Y-73453152D01*
X113698934Y-73453152D02*
X113794172Y-73500771D01*
X113365601Y-74072200D02*
X113460839Y-74119819D01*
X113460839Y-74119819D02*
X113698934Y-74119819D01*
X113698934Y-74119819D02*
X113794172Y-74072200D01*
X113794172Y-74072200D02*
X113841791Y-73976961D01*
X113841791Y-73976961D02*
X113841791Y-73881723D01*
X113841791Y-73881723D02*
X113794172Y-73786485D01*
X113794172Y-73786485D02*
X113698934Y-73738866D01*
X113698934Y-73738866D02*
X113460839Y-73738866D01*
X113460839Y-73738866D02*
X113365601Y-73691247D01*
M02*
